<svg width="87" height="24" viewBox="0 0 87 24" fill="none" xmlns="http://www.w3.org/2000/svg">
<path d="M24.2512 13.5109C24.3572 12.8851 24.4249 12.2435 24.4249 11.5917C24.4249 11.0122 24.3662 10.444 24.2873 9.88597H19.7314C20.3483 9.27487 21.7895 7.81767 23.2284 6.37969C22.7108 5.29753 22.0353 4.30235 21.238 3.43481L14.3151 10.3751C13.9824 10.7038 13.8008 11.1127 13.8008 11.5917C13.8008 12.0593 13.9824 12.5281 14.3162 12.8534L21.2155 19.7723C22.0184 18.9059 22.6916 17.9118 23.2126 16.8308C21.8537 15.4809 20.3201 14.096 19.7314 13.5109H24.2512Z" fill="#E9E6EF"/>
<path d="M10.9822 11.5914C10.9822 11.1125 10.7983 10.7036 10.46 10.3749L3.53371 3.43457C2.73417 4.30888 2.06093 5.29728 1.54332 6.37944C2.98452 7.8242 4.4291 9.26897 5.04482 9.88686H0.482155C0.404343 10.4438 0.345703 11.012 0.345703 11.5914C0.345703 12.2432 0.414493 12.886 0.514858 13.5106H5.04482C4.46067 14.0969 2.91798 15.4761 1.55911 16.8305C2.08349 17.9116 2.75334 18.9034 3.55852 19.772L10.46 12.8543C10.7938 12.5279 10.9822 12.0591 10.9822 11.5914Z" fill="#E9E6EF"/>
<path d="M12.3843 13.0256C11.9152 13.0256 11.4743 13.2075 11.1439 13.5418L4.24805 20.4505C5.11074 21.2525 6.09973 21.9314 7.18006 22.451C8.61224 21.0153 10.0444 19.5852 10.6522 18.973V23.5072C11.2172 23.593 11.7934 23.6484 12.3843 23.6484C13.0294 23.6484 13.6553 23.5806 14.2676 23.4869V18.973C14.8551 19.5536 16.2354 21.0966 17.5808 22.451C18.6656 21.9325 19.649 21.2525 20.5196 20.4505L13.6135 13.5464C13.2865 13.2075 12.8557 13.0256 12.3843 13.0256Z" fill="#E9E6EF"/>
<path d="M12.386 10.213C12.8686 10.213 13.3152 10.021 13.6456 9.67643L20.5595 2.75649C19.6754 1.93752 18.6695 1.24847 17.5666 0.716424C16.5573 1.73194 15.0721 3.32581 14.2523 4.14477V2.16006C14.2523 1.1581 13.4065 0.351562 12.3916 0.351562C11.3767 0.351562 10.6358 1.14454 10.6245 2.13521V4.14477C9.68396 3.21059 8.15029 1.67094 7.20528 0.716424C6.10464 1.24847 5.09648 1.93752 4.20898 2.75649L11.1252 9.68434C11.4612 10.021 11.9078 10.213 12.386 10.213Z" fill="#E9E6EF"/>
<path d="M40.073 1.25122C45.8953 1.25122 49.646 5.34152 49.646 10.9127C49.646 14.0654 48.7811 16.4116 47.5226 17.7377L49.7881 19.7428L47.4944 21.9308L45.1116 19.8173C43.7414 20.6047 42.537 21.122 39.9907 21.122C34.1436 21.122 30.3613 17.322 30.3613 11.1759C30.3613 5.36524 33.9146 1.25122 40.073 1.25122ZM39.9625 17.7118C40.7722 17.7118 41.6732 17.5299 42.2573 17.2181L40.214 15.3904L42.4547 13.2284L44.4417 15.0301C44.9165 14.0383 45.2255 13.2577 45.3066 11.2222C45.3066 7.20649 43.6568 4.71007 40.0155 4.71007C36.7734 4.71007 34.7006 6.90263 34.7006 11.1759C34.7006 15.5294 36.8839 17.7118 39.9625 17.7118Z" fill="#E9E6EF"/>
<path d="M56.1473 1.84814L63.9837 14.7426V1.84814H68.0175V20.6041H63.7086L55.6985 7.47582V20.6041H51.6445V1.84814H56.1473Z" fill="#E9E6EF"/>
<path d="M79.1535 1.84814C83.8899 1.84814 86.0404 3.62162 86.0404 6.7461C86.0404 8.28236 85.6152 9.53396 83.6023 10.5461C85.3671 11.1188 86.6539 12.5771 86.6539 14.9211C86.6539 17.6581 85.1157 20.6041 79.1276 20.6041H69.9414V1.84814H79.1535ZM74.0609 9.1883H79.0126C81.0278 9.1883 81.8679 8.54669 81.8679 7.16405C81.8679 5.86275 81.083 5.20193 78.4262 5.20193H74.0609V9.1883ZM74.0609 17.2413H78.928C81.1732 17.2413 82.2626 16.5387 82.2626 14.6364C82.2626 13.1792 81.2804 12.3941 79.0396 12.3941H74.0609V17.2413Z" fill="#E9E6EF"/>
</svg>
