<svg width="57" height="56" viewBox="0 0 57 56" fill="none" xmlns="http://www.w3.org/2000/svg">
<path d="M28.9816 11.4144C37.9283 11.6688 45.0926 18.9913 45.0926 28.0001H28.5V11.4075C28.5716 11.4075 28.6431 11.408 28.7144 11.4089C28.8037 11.41 28.8927 11.4118 28.9816 11.4144Z" fill="#E9E6EF"/>
<path d="M28.5008 28V44.5926C28.4225 44.5926 28.3443 44.5921 28.2662 44.591C19.2047 44.4656 11.9082 37.0915 11.9082 28H28.5008Z" fill="#E9E6EF"/>
<path fill-rule="evenodd" clip-rule="evenodd" d="M17.0403 11.4425C17.9351 12.4748 17.4285 13.5562 16.5338 14.4921C16.2692 14.7689 16.0314 15.0164 15.806 15.251C14.9554 16.1365 14.2821 16.8374 13.0156 18.2294L8.18164 13.6754C8.64546 13.0743 9.4185 12.1465 9.94976 11.5585C11.7097 9.60982 12.3561 9.03976 13.1965 8.95482C13.6472 8.90908 14.0929 9.01525 14.4482 9.3011C15.1768 9.88751 15.1127 10.7369 15.0124 11.0031L14.991 11.0619L15.0584 11.0358C15.736 10.7597 16.5535 10.8823 17.0403 11.4425ZM12.7031 10.6977C12.2343 11.1224 11.1998 12.1955 10.2261 13.3781L11.1636 14.2651C11.1636 14.2651 13.0518 12.3033 13.5666 11.7267C13.7952 11.4719 14.0008 11.1632 13.9268 10.8382C13.8528 10.5147 13.5255 10.291 13.208 10.3775C13.0123 10.4298 12.8511 10.5637 12.7031 10.6977ZM14.5584 12.6137C13.9581 13.2311 12.1192 15.1618 12.1192 15.1618L13.0995 16.0847C13.1028 16.0815 15.2837 13.7636 15.537 13.4941C15.7245 13.2932 15.9515 13.0302 16.0124 12.7542C16.0634 12.5222 15.9696 12.2886 15.7657 12.1531C15.5584 12.0159 15.3265 12.0371 15.1143 12.14C14.9499 12.22 14.7969 12.3687 14.5584 12.6137Z" fill="#E9E6EF"/>
<path d="M30.6 5.61781L29.0523 9.06108H27.6427L26.095 5.61781L25.9963 5.31236L26.0242 5.63088L25.8614 10.2322C25.3186 10.2845 24.7578 10.358 24.2051 10.4495L24.4568 3.63483C25.2298 3.54989 25.9996 3.48946 26.7693 3.45679L28.2924 7.21531L28.3466 7.49462L28.4009 7.21531L29.9256 3.45679C30.6954 3.48946 31.4651 3.54989 32.2382 3.63483L32.4898 10.4495C31.9372 10.358 31.3763 10.2829 30.8335 10.2322L30.6707 5.63088L30.6987 5.31236L30.6 5.61781Z" fill="#E9E6EF"/>
<path d="M43.1412 17.6398C42.8336 17.2429 42.2859 16.5896 41.906 16.1845L43.6609 12.8196L43.8205 12.604L43.6034 12.7624L40.2184 14.5069C39.8352 14.159 39.2349 13.6477 38.7793 13.2998L42.3747 7.6792C42.8863 8.07122 43.2876 8.39464 43.7053 8.74746L41.332 12.3083L41.1198 12.5517L41.3862 12.3704L44.5491 10.7974L45.6692 11.9098L44.0853 15.0492L43.9027 15.3138L44.1478 15.1048L47.735 12.7494C48.0722 13.143 48.5229 13.7017 48.8058 14.0692L43.1412 17.6398Z" fill="#E9E6EF"/>
<path fill-rule="evenodd" clip-rule="evenodd" d="M28.5 0C13.0365 0 0.5 12.5365 0.5 28C0.5 43.4635 13.0365 56 28.5 56C43.9635 56 56.5 43.4635 56.5 28C56.5 12.5365 43.9635 0 28.5 0ZM54.6792 28C54.6792 42.4577 42.9593 54.1792 28.5 54.1792C14.0407 54.1792 2.32079 42.4577 2.32079 28C2.32079 13.5423 14.0423 1.82079 28.5 1.82079C42.9577 1.82079 54.6792 13.5423 54.6792 28Z" fill="#E9E6EF"/>
</svg>
