<svg width="145" height="24" viewBox="0 0 145 24" fill="none" xmlns="http://www.w3.org/2000/svg">
<g clip-path="url(#clip0_105_6526)">
<path d="M11.7189 6.75428L14.7255 3.80654C13.5527 3.0853 11.9425 2.75468 9.93534 2.75468H4.1849L1.17969 18.5257H7.17474C14.1384 18.5257 16.9228 13.5551 16.9228 8.3823C16.9228 7.03887 16.6404 5.96468 16.0925 5.12905L11.7189 6.75428ZM7.50461 14.7744H6.61982L8.21049 6.45853H9.45171C11.3303 6.45853 12.0152 7.5941 12.0152 9.14819C12.0152 12.2898 10.3099 14.7744 7.50461 14.7744ZM136.32 18.9303C132.804 18.9303 131.082 17.3929 131.082 14.3224C131.082 10.9101 132.74 6.27857 138.58 6.27857C142.073 6.27857 143.819 7.86056 143.819 10.8906C143.819 14.3699 142.159 18.9303 136.32 18.9303ZM138.003 9.91686C136.19 9.91686 135.702 12.7418 135.702 14.0071C135.702 15.0241 136.122 15.3157 136.943 15.3157C138.731 15.3157 139.196 12.4907 139.196 11.2073C139.196 10.2126 138.799 9.91686 138.003 9.91686ZM130.593 10.8659C130.351 10.7976 129.867 10.7292 129.512 10.7292C128.517 10.7292 127.719 11.7476 127.365 13.6211L126.436 18.5247H121.928L124.18 6.68914H127.564L127.676 8.26694C128.716 6.95838 129.532 6.279 130.791 6.279C131.369 6.279 131.676 6.32364 131.834 6.37107L130.593 10.8659ZM114.516 14.143C114.494 14.2546 114.474 14.4597 114.474 14.5713C114.474 15.2953 114.961 15.5423 116.241 15.5423C117.393 15.5423 119.028 15.2493 119.98 14.9117V18.2319C118.764 18.6839 116.86 18.9308 115.334 18.9308C111.751 18.9308 110.027 17.9362 110.027 14.6173C110.027 11.3599 111.508 6.27913 117.214 6.27913C120.843 6.27913 121.927 7.95458 121.927 9.71513C121.927 11.996 120 13.9393 114.516 14.143ZM116.883 9.39985C115.843 9.39985 115.247 10.2787 115.004 11.2971C117.06 11.2971 117.682 10.6414 117.682 10.0974C117.682 9.71513 117.347 9.39985 116.883 9.39985ZM107.51 18.5257H102.75L103.88 12.5605H99.8543L98.7249 18.5257H93.9725L96.9791 2.75468H101.735L100.652 8.3823H104.678L105.761 2.75468H110.513L107.51 18.5257ZM90.1682 6.68816C88.1764 11.974 86.4082 15.8369 84.6386 18.5042C82.0737 22.4131 79.8163 23.3171 77.4932 23.3171C76.8083 23.3171 76.08 23.133 75.7236 22.953L76.4337 19.5421H77.9824C78.7554 19.5421 79.0866 19.2241 79.5954 18.5251C78.733 15.3403 78.3123 10.89 78.357 6.68816H82.8914C82.7991 8.60635 82.8229 10.5957 82.9361 12.4023C82.9585 12.9212 82.999 13.4179 83.0437 13.9173H83.0675C83.266 13.4402 83.4854 12.9673 83.6867 12.4469C84.4387 10.572 85.1698 8.42499 85.6534 6.68816H90.1682ZM76.0614 10.8659C75.8168 10.7976 75.329 10.7292 74.9768 10.7292C73.9802 10.7292 73.1848 11.7476 72.8284 13.6211L71.9045 18.5247H67.3883L69.6471 6.68914H73.0325L73.1415 8.26694C74.18 6.95838 75.0005 6.279 76.2599 6.279C76.833 6.279 77.1447 6.32364 77.2971 6.37107L76.0614 10.8659ZM59.9836 14.143C59.9625 14.2546 59.9375 14.4597 59.9375 14.5713C59.9375 15.2953 60.4253 15.5423 61.7071 15.5423C62.8574 15.5423 64.4928 15.2493 65.4433 14.9117V18.2319C64.2273 18.6839 62.3263 18.9308 60.8013 18.9308C57.2174 18.9308 55.4926 17.9362 55.4926 14.6173C55.4926 11.3599 56.9728 6.27913 62.6799 6.27913C66.3071 6.27913 67.3876 7.95458 67.3876 9.71513C67.3876 11.996 65.4684 13.9393 59.9836 14.143ZM62.3486 9.39985C61.3115 9.39985 60.7105 10.2787 60.4658 11.2971C62.5248 11.2971 63.144 10.6414 63.144 10.0974C63.144 9.71513 62.8141 9.39985 62.3486 9.39985ZM56.3111 6.68816C54.7624 10.664 53.0599 14.5493 50.8933 18.5251H45.3637C44.6565 14.7739 44.3462 10.8203 44.4356 6.68816H48.9476C48.8568 8.63007 48.882 10.6194 48.9896 12.4706C49.0134 12.9673 49.0581 13.4402 49.1014 13.9173H49.1266C49.3237 13.4402 49.5431 12.9673 49.743 12.4706C50.5159 10.5245 51.2232 8.40546 51.7572 6.68816H56.3111ZM38.9768 6.68816H43.4426L41.1838 18.5251H36.6732L38.2639 10.2121M41.6482 5.69782C40.1694 5.69782 39.2161 4.72686 39.2161 3.3932C39.2161 1.65357 40.4112 0.682617 41.89 0.682617C43.3954 0.682617 44.3263 1.65357 44.3263 2.96352C44.3263 4.72686 43.1522 5.69782 41.6482 5.69782ZM21.6814 14.143C21.6576 14.2546 21.6367 14.4597 21.6367 14.5713C21.6367 15.2953 22.1203 15.5423 23.4063 15.5423C24.5552 15.5423 26.1892 15.2493 27.1411 14.9117V18.2319C25.9265 18.6839 24.0227 18.9308 22.4963 18.9308C18.9152 18.9308 17.1904 17.9362 17.1904 14.6173C17.1904 11.3599 18.6706 6.27913 24.3791 6.27913C28.0035 6.27913 29.0854 7.95458 29.0854 9.71513C29.0854 11.996 27.1649 13.9393 21.6814 14.143ZM24.0464 9.39985C23.0079 9.39985 22.4097 10.2787 22.1678 11.2971C24.2226 11.2971 24.8432 10.6414 24.8432 10.0974C24.8432 9.71513 24.5091 9.39985 24.0464 9.39985ZM34.1399 18.7048H29.8012L33.1964 2.45949L37.9279 0.683588L34.1399 18.7048Z" fill="#E9E6EF"/>
</g>
<defs>
<clipPath id="clip0_105_6526">
<rect width="144" height="24" fill="white" transform="translate(0.5)"/>
</clipPath>
</defs>
</svg>
