<svg width="151" height="20" viewBox="0 0 151 20" fill="none" xmlns="http://www.w3.org/2000/svg">
<g clip-path="url(#clip0_105_6529)">
<path fill-rule="evenodd" clip-rule="evenodd" d="M131.552 7.3238L131.598 7.0395C131.62 6.92543 131.587 6.80626 131.514 6.71604C131.438 6.62751 131.328 6.57474 131.212 6.57474H129.163C128.974 6.57218 128.808 6.70582 128.773 6.89309L128.715 7.20208L126.527 19.1301C126.507 19.245 126.542 19.365 126.619 19.4544C126.697 19.5429 126.815 19.5957 126.932 19.5931L127.943 19.5778H128.893C129.082 19.5778 129.24 19.4459 129.278 19.2646L130.779 11.8616C131.275 9.98553 132.521 9.42714 133.624 9.26456C133.683 9.2569 133.906 9.2603 133.952 9.22966C133.197 13.7181 132.303 19.0322 132.287 19.1207C132.268 19.2331 132.301 19.3497 132.375 19.4391C132.449 19.5267 132.561 19.5778 132.674 19.5778H134.88C135.052 19.5778 135.205 19.468 135.255 19.302C135.326 19.0858 135.853 16.0359 136.17 14.2041C136.987 15.4392 139.595 19.3973 139.595 19.3973C139.668 19.508 139.792 19.5735 139.924 19.5735L142.561 19.5778C142.609 19.5778 142.652 19.5667 142.696 19.5523C142.753 19.5778 142.815 19.5948 142.877 19.5931L145.102 19.5778C145.295 19.577 145.456 19.4391 145.487 19.2543C145.487 19.2543 147.1 9.96765 147.206 9.35819C147.724 9.35734 149.761 9.35478 149.761 9.35478C149.952 9.35478 150.116 9.21689 150.149 9.02877L150.493 7.03184C150.497 7.0097 150.5 6.98927 150.5 6.96544C150.5 6.87521 150.467 6.78498 150.409 6.71433C150.334 6.62581 150.223 6.57474 150.105 6.57474H147.588C147.711 5.86908 148.159 3.26524 148.159 3.26524C148.161 3.24225 148.164 3.22012 148.164 3.19884C148.164 3.10436 148.132 3.01498 148.072 2.94518C147.998 2.85495 147.886 2.80558 147.771 2.80558H145.559C145.368 2.80558 145.204 2.94348 145.171 3.13075C145.171 3.13075 144.678 6.04103 144.587 6.57474C144.387 6.58069 144.181 6.58495 144.181 6.58495L143.836 6.5875L143.47 6.58069C143.329 6.57729 143.203 6.64964 143.13 6.76285C143.059 6.65475 142.94 6.58495 142.806 6.58495L140.78 6.58069H140.187C140.077 6.58069 139.974 6.62751 139.897 6.70667C139.897 6.70667 137.86 9.03558 136.778 10.2043C137.094 8.35291 137.967 3.27034 137.967 3.27034C137.97 3.24651 137.972 3.22608 137.972 3.20225C137.972 3.11117 137.939 3.02094 137.879 2.95114C137.804 2.86091 137.694 2.81069 137.578 2.81069L135.374 2.80558C135.181 2.80473 135.015 2.94178 134.983 3.12989C134.932 3.43292 134.704 4.7855 134.397 6.5875C134.394 6.58155 134.391 6.57729 134.387 6.57218C134.309 6.4811 134.197 6.43344 134.077 6.43769C133.138 6.46493 132.291 6.84882 131.552 7.3238ZM142.592 18.4908C141.684 17.0369 139.033 12.7928 138.8 12.4183C139.107 12.0574 142.334 8.13585 142.989 7.36806L142.699 8.88832C142.677 9.00409 142.709 9.12325 142.784 9.21178C142.859 9.30116 142.97 9.35478 143.088 9.35478H144.094C143.979 10.0477 142.928 16.4377 142.592 18.4908ZM66.9232 13.4142C66.4632 15.0162 64.9423 16.5407 63.458 16.8999C62.3229 17.0497 61.4899 16.9433 60.9095 16.5688C60.2984 16.15 59.992 15.4231 59.7547 14.7668C59.7138 14.5318 59.6924 14.2952 59.6924 14.0645C59.6924 12.6056 60.4751 11.1994 61.9149 10.1226C62.7428 9.5446 63.8669 9.32669 64.8535 9.55226C65.41 9.67995 66.1713 10.0102 66.6467 10.8682C66.913 11.3338 67.0547 11.9237 67.0547 12.4991C67.0547 12.8175 67.0103 13.1299 66.9232 13.4142ZM55.7023 3.11798L55.2261 5.69714C55.2039 5.81205 55.2355 5.93207 55.3106 6.02486C55.3857 6.11338 55.4966 6.16616 55.617 6.16616H57.9189C58.1083 6.16616 58.2731 6.03166 58.3072 5.8427L58.7399 3.28652C58.7587 3.17245 58.728 3.05243 58.6546 2.96306C58.5795 2.87368 58.4685 2.82091 58.3541 2.82005L56.0915 2.80133C55.9021 2.79963 55.739 2.93412 55.7023 3.11798ZM50.7299 13.4142C50.8161 13.1299 50.8579 12.8175 50.8579 12.4991C50.8579 11.9237 50.7179 11.3338 50.4525 10.8682C49.9745 10.0102 49.2141 9.67995 48.6567 9.55226C47.6727 9.32669 46.546 9.5446 45.7182 10.1226C44.2809 11.1994 43.4957 12.6056 43.4957 14.0645C43.4957 14.2952 43.5178 14.5318 43.5588 14.7668C43.7961 15.4231 44.1025 16.15 44.7144 16.5688C45.2948 16.9433 46.1287 17.0497 47.2621 16.8999C48.7472 16.5407 50.2664 15.0162 50.7299 13.4142ZM31.8472 11.5739C32.7894 11.5654 37.3018 11.5228 37.9514 11.5169C37.9044 11.081 37.674 10.6725 37.1917 10.1907C36.6592 9.73613 35.9294 9.52247 34.8933 9.51651C33.7709 9.67314 32.46 10.4094 31.8472 11.5739ZM124.355 13.4142C123.896 15.0162 122.376 16.5407 120.89 16.8999C119.754 17.0497 118.921 16.9433 118.344 16.5688C117.731 16.15 117.424 15.4231 117.186 14.7668C117.147 14.5318 117.123 14.2952 117.123 14.0645C117.123 12.6056 117.907 11.1994 119.348 10.1226C120.174 9.5446 121.3 9.32669 122.286 9.55226C122.842 9.67995 123.605 10.0102 124.079 10.8682C124.343 11.3338 124.485 11.9237 124.485 12.4991C124.485 12.8175 124.442 13.1299 124.355 13.4142ZM0.5 19.3761V19.1318C0.511949 19.1062 0.527312 19.0815 0.546942 19.0603L16.9486 0.207695C17.0057 0.144705 17.086 0.107252 17.173 0.107252H19.8214C19.9085 0.107252 19.9921 0.147259 20.0493 0.215356C20.092 0.268131 20.1167 0.337079 20.1167 0.400919C20.1167 0.419646 20.1125 0.441777 20.109 0.461355C20.109 0.461355 18.0547 10.5797 17.6732 12.4098C18.9662 10.9525 28.5134 0.207695 28.5134 0.207695C28.568 0.142152 28.65 0.107252 28.7328 0.107252H31.225C31.3163 0.107252 31.4025 0.14811 31.4588 0.219612C31.5143 0.291113 31.5348 0.385598 31.5117 0.472421L28.8958 11.0649C28.9171 11.0257 28.9359 10.9874 28.9555 10.9499C30.2008 8.53507 32.5667 6.83776 35.1271 6.52537C35.1348 6.52366 35.1451 6.52366 35.1553 6.52366C37.4708 6.4062 39.258 7.28039 40.33 9.0458C40.336 9.05516 40.3403 9.06367 40.3471 9.07388C40.732 9.84508 41.0188 10.881 41.07 11.9476C41.507 10.6759 42.2837 9.49949 43.3634 8.50698C45.1933 6.80967 47.4243 6.14147 49.6485 6.62836C49.6715 6.63347 49.6988 6.64283 49.7219 6.6522L49.9284 6.74072C50.4218 6.95267 50.9586 7.18761 51.4127 7.59363C51.6534 6.46493 52.3583 3.11798 52.3583 3.11798C52.3976 2.93667 52.5589 2.80558 52.7458 2.80558H54.7908C54.9094 2.80558 55.0204 2.85836 55.0955 2.94603C55.1706 3.03626 55.2022 3.15543 55.1817 3.27034L52.1987 19.3114C52.1629 19.4986 51.9999 19.6331 51.8087 19.6331L49.7799 19.6272C49.6613 19.6272 49.5486 19.5778 49.4735 19.4884C49.4138 19.4169 49.3822 19.3275 49.3822 19.2365C49.3822 19.2118 49.3848 19.1871 49.3899 19.1641C49.3899 19.1641 49.4411 18.8951 49.4735 18.7172C47.8195 19.7353 46.1449 20.1319 44.5762 19.8485C42.7821 19.4927 41.1118 17.7434 40.7756 15.8691C40.6834 15.3669 40.6424 14.8638 40.6475 14.3684C40.5767 14.4322 40.4828 14.4705 40.3821 14.4705C40.3821 14.4705 31.4085 14.474 30.9621 14.4748C30.9518 14.5131 30.9459 14.548 30.9459 14.5889C30.9459 14.7327 30.9954 14.9191 31.0602 15.1319C31.0602 15.1319 31.0875 15.229 31.1003 15.2707C31.5476 16.3662 32.6204 17.0531 33.8375 17.0242C35.0478 16.9969 36.1693 16.419 37.1653 15.3081C37.2387 15.2239 37.3471 15.1762 37.458 15.1762H39.5585C39.6942 15.1762 39.8214 15.246 39.8922 15.3609C39.9656 15.475 39.975 15.6188 39.9178 15.7406C38.7255 18.2406 36.0515 19.92 33.2452 19.92C31.2932 19.8442 29.6545 18.8968 28.7421 17.3127C28.2881 16.4683 28.073 15.4205 28.0858 14.348L26.8534 19.3386C26.8201 19.4731 26.6997 19.565 26.564 19.565H23.9071C23.8175 19.565 23.7313 19.5233 23.6767 19.4518C23.6331 19.3982 23.6109 19.3335 23.6109 19.2697C23.6109 19.245 23.6143 19.2237 23.6186 19.2007C24.6565 14.8919 26.1117 8.76745 26.64 6.34406C25.3691 7.82772 15.4106 19.4433 15.4106 19.4433C15.3559 19.5089 15.2748 19.5455 15.1886 19.5455L12.944 19.565C12.8535 19.565 12.7698 19.5259 12.7127 19.4544C12.67 19.4025 12.6461 19.3369 12.6461 19.2697C12.6461 19.2492 12.6469 19.228 12.6521 19.2075C13.602 14.8476 14.9309 8.63892 15.3986 6.22404C14.1738 7.68301 4.2972 19.4603 4.2972 19.4603C4.24001 19.5276 4.1521 19.5667 4.06078 19.565C3.29434 19.5386 2.71653 19.5421 2.04568 19.5455H0.767144C0.652776 19.548 0.547796 19.4808 0.5 19.3761ZM128.006 6.71604C127.933 6.62751 127.822 6.57474 127.704 6.57474H125.657C125.471 6.57474 125.308 6.70497 125.271 6.88713L125.113 7.65918C124.658 7.25315 124.205 6.99268 123.555 6.74072L123.351 6.6522C123.326 6.64283 123.302 6.63347 123.276 6.62836C121.054 6.14147 118.821 6.80967 116.992 8.50698C116.079 9.34457 115.387 10.3158 114.928 11.3619L117.617 0.472421C117.64 0.385598 117.62 0.291113 117.564 0.219612C117.508 0.14811 117.423 0.107252 117.331 0.107252H114.84C114.753 0.107252 114.675 0.142152 114.618 0.207695C114.618 0.207695 105.072 10.9525 103.779 12.4098C104.16 10.5797 106.289 0.461355 106.289 0.461355C106.289 0.441777 106.294 0.419646 106.294 0.400919C106.294 0.335376 106.274 0.268131 106.228 0.215356C106.172 0.147259 106.088 0.107252 106 0.107252H103.247C103.16 0.107252 103.079 0.144705 103.023 0.207695L89.2754 16.041C89.045 13.736 87.9448 11.2257 87.9448 11.2257C86.1021 7.46084 82.0028 6.24106 79.6778 8.40058L79.6616 8.40398L79.2972 8.66786C80.9837 5.984 85.2623 6.10317 88.0173 9.2637C88.0173 9.2637 89.2413 10.7312 90.1101 12.9145C90.3414 12.1433 90.4831 11.3449 90.5258 10.5286C89.0919 8.59295 87.4754 7.45659 87.4754 7.45659C83.9957 5.11576 79.8298 6.10487 78.8986 9.13347L78.8867 9.14624L78.7066 9.55567C78.8201 6.38832 82.584 4.35989 86.5528 5.72268C86.5528 5.72268 88.4211 6.4062 90.3073 7.9222C90.2817 7.80133 90.2561 7.68046 90.2228 7.55959C90.0188 6.75945 89.7235 6.00017 89.342 5.29367C87.1417 4.34372 85.1923 4.16667 85.1923 4.16667C81.0033 3.8764 77.8941 6.80541 78.6059 9.89445L78.6007 9.91062L78.6477 10.3567C77.16 7.55618 79.4013 3.92577 83.5211 3.12394C83.5211 3.12394 85.4338 2.79282 87.7861 3.14266C87.1895 2.51447 86.5084 1.96374 85.753 1.49898C83.3948 1.77477 81.6358 2.58853 81.6358 2.58853C77.865 4.42373 76.6394 8.51379 78.8047 10.8342L78.8073 10.8478L79.0736 11.2138C76.3808 9.53013 76.5029 5.26388 79.6693 2.51788C79.6693 2.51788 81.1493 1.28703 83.3504 0.416241C82.4423 0.144706 81.5009 0.00680967 80.551 0C78.7108 1.39683 77.6363 2.91454 77.6363 2.91454C75.29 6.38662 76.2801 10.538 79.3168 11.4683L79.3279 11.4785L79.741 11.6616C76.566 11.5475 74.5321 7.79367 75.8986 3.8347C75.8986 3.8347 76.5276 2.12802 77.9154 0.333674C77.1208 0.538815 76.3689 0.838441 75.6639 1.21553C74.7677 3.3478 74.6004 5.20344 74.6004 5.20344C74.3077 9.38202 77.2471 12.483 80.3444 11.7739L80.3581 11.7782L80.8087 11.728C77.9999 13.215 74.3563 10.978 73.5566 6.86755C73.5566 6.86755 73.2357 5.0315 73.5566 2.74345C72.8875 3.37589 72.302 4.10198 71.8172 4.91233C72.1176 7.16718 72.8849 8.82363 72.8849 8.82363C74.7259 12.5868 78.8252 13.8075 81.151 11.6471L81.1681 11.6437L81.5316 11.3807C79.8468 14.0645 75.5666 13.9454 72.814 10.7848C72.814 10.7848 71.4024 9.02537 70.6649 6.97736C70.6658 6.88117 70.6368 6.78924 70.577 6.71604C70.5011 6.62751 70.3901 6.57474 70.2706 6.57474H68.2265C68.0387 6.57474 67.8774 6.70497 67.8382 6.88713C67.8382 6.88713 67.6811 7.12462 67.6086 7.59363C67.1545 7.18761 66.6168 6.95267 66.1252 6.74072L65.9178 6.6522C65.8939 6.64283 65.8675 6.63347 65.8436 6.62836C63.6219 6.14147 61.39 6.80967 59.5601 8.50698C58.4796 9.49949 57.7029 10.6759 57.2625 11.9476C57.2625 11.9476 57.2489 11.9799 57.225 12.031L58.0947 7.03439C58.1135 6.92118 58.0819 6.80286 58.0068 6.71433C57.93 6.62581 57.819 6.57388 57.7029 6.57474L55.5214 6.57729C55.3302 6.57899 55.1672 6.71433 55.1322 6.9033L52.8781 19.1641C52.8585 19.279 52.8901 19.3973 52.9652 19.4884C53.0394 19.577 53.1512 19.6272 53.2682 19.6272L55.5675 19.6331C55.7621 19.6331 55.9268 19.4944 55.9584 19.3046L56.8272 14.3165C56.8366 14.348 56.8443 14.3684 56.8443 14.3684C56.8366 14.8638 56.8776 15.3669 56.9706 15.8691C57.3086 17.7434 58.9755 19.4927 60.7721 19.8485C62.3391 20.1319 64.0154 19.7353 65.6694 18.7172C65.637 18.8951 65.5849 19.1641 65.5849 19.1641C65.5807 19.1871 65.579 19.2118 65.579 19.2365C65.579 19.3275 65.6105 19.4169 65.6694 19.4884C65.7437 19.5778 65.8555 19.6272 65.9759 19.6272L68.0046 19.6331C68.1958 19.6331 68.3605 19.4986 68.3938 19.3114L70.1802 9.66122C71.5167 11.2445 73.2655 12.5962 73.2655 12.5962C76.7444 14.9387 80.9077 13.9496 81.8389 10.9219L81.8526 10.9091L82.0335 10.498C81.92 13.6653 78.1552 15.6946 74.1856 14.3301C74.1856 14.3301 72.4744 13.7028 70.6709 12.3187C70.6863 12.3842 70.6991 12.4523 70.7162 12.5187C70.9304 13.3478 71.2402 14.1335 71.6413 14.8638C73.7392 15.7252 75.5486 15.8878 75.5486 15.8878C79.735 16.1798 82.8452 13.2491 82.1334 10.16L82.1393 10.1439L82.0898 9.69612C83.5792 12.4966 81.3371 16.133 77.2164 16.9288C77.2164 16.9288 75.4155 17.2429 73.158 16.9391C73.6983 17.5068 74.3077 18.0158 74.9802 18.4517C77.3196 18.1699 79.0531 17.3655 79.0531 17.3655C82.8255 15.5312 84.052 11.4402 81.8858 9.1224L81.8816 9.10453L81.617 8.74276C84.3098 10.4248 84.1894 14.6893 81.0221 17.4379C81.0221 17.4379 79.5114 18.6891 77.2787 19.5616C77.8949 19.7685 78.5273 19.9157 79.1683 20H80.0816C81.9575 18.5895 83.0517 17.0395 83.0517 17.0395C85.4005 13.5683 84.4105 9.41437 81.3729 8.48655L81.3601 8.47378L80.9496 8.29248C84.1254 8.40739 86.1593 12.1612 84.7928 16.1202C84.7928 16.1202 84.1101 17.9724 82.5968 19.851C82.7189 19.8238 82.8358 19.7991 82.9561 19.7676C83.7234 19.5735 84.4455 19.2901 85.1172 18.9445C86.056 16.7663 86.2284 14.8417 86.2284 14.8417C86.5229 10.6682 83.5826 7.56384 80.4836 8.27375L80.4707 8.27034L80.0227 8.31801C82.829 6.8335 86.4742 9.06963 87.2757 13.1801C87.2757 13.1801 87.7383 15.0672 87.3917 17.3025C87.3252 17.6251 87.1895 18.0933 86.9283 18.5921C86.8489 18.7308 86.7499 18.8951 86.6304 19.0858C86.633 19.0832 86.6338 19.0807 86.6338 19.0807C86.633 19.0858 86.6279 19.0901 86.6245 19.096C86.6219 19.102 86.6219 19.1028 86.6219 19.1071C86.5749 19.1871 86.5647 19.2867 86.6048 19.3761C86.6518 19.4808 86.7576 19.548 86.8745 19.5455H88.1514C88.8222 19.5421 89.3992 19.5386 90.1665 19.565C90.2578 19.5667 90.3448 19.5276 90.4037 19.4603C90.4037 19.4603 100.28 7.68301 101.504 6.22404C101.036 8.63892 99.7077 14.8476 98.7569 19.2075C98.7535 19.228 98.7517 19.2492 98.7517 19.2697C98.7517 19.3369 98.7739 19.4025 98.8158 19.4544C98.8721 19.5259 98.9575 19.565 99.0496 19.565L101.295 19.5455C101.381 19.5455 101.462 19.5089 101.517 19.4433C101.517 19.4433 111.473 7.82772 112.747 6.34406C112.216 8.76745 110.763 14.8919 109.727 19.2007C109.72 19.2237 109.717 19.245 109.717 19.2697C109.717 19.3335 109.739 19.3982 109.781 19.4518C109.838 19.5233 109.921 19.565 110.014 19.565H112.67C112.805 19.565 112.926 19.4731 112.958 19.3386L114.108 14.6876L114.267 14.0339C114.273 14.2203 114.275 14.3684 114.275 14.3684C114.27 14.8638 114.311 15.3669 114.404 15.8691C114.739 17.7434 116.41 19.4927 118.203 19.8485C119.77 20.1319 121.448 19.7353 123.102 18.7172C123.069 18.8951 123.017 19.1641 123.017 19.1641C123.013 19.1871 123.011 19.2118 123.011 19.2365C123.011 19.3275 123.041 19.4169 123.099 19.4884C123.177 19.5778 123.289 19.6272 123.405 19.6272L125.435 19.6331C125.628 19.6331 125.791 19.4986 125.825 19.3114L127.659 9.59568L128.098 6.97736C128.1 6.88117 128.07 6.78924 128.006 6.71604Z" fill="#E9E6EF"/>
</g>
<defs>
<clipPath id="clip0_105_6529">
<rect width="150" height="20" fill="white" transform="translate(0.5)"/>
</clipPath>
</defs>
</svg>
