<svg width="57" height="56" viewBox="0 0 57 56" fill="none" xmlns="http://www.w3.org/2000/svg">
<g clip-path="url(#clip0_105_6532)">
<path d="M56.4269 26.2316C55.5427 11.6421 43.3848 0 28.5005 0C13.6163 0 1.45843 11.6421 0.574219 26.2316C0.574219 26.8211 0.647903 27.4105 0.721587 28C1.31106 32.8632 3.15317 37.3579 5.95317 41.1158C11.0374 48.0421 19.2163 52.5368 28.5005 52.5368C15.5321 52.5368 4.92159 42.4421 4.03738 29.7684C3.96369 29.1789 3.96369 28.5895 3.96369 28C3.96369 27.4105 3.96369 26.8211 4.03738 26.2316C4.92159 13.5579 15.5321 3.46316 28.5005 3.46316C37.7848 3.46316 45.9637 7.95789 51.0479 14.8842C53.8479 18.6421 55.69 23.1368 56.2795 28C56.3532 28.5895 56.4269 29.1789 56.4269 29.6947C56.4269 29.4001 56.4453 29.1054 56.4637 28.8107C56.4821 28.516 56.5005 28.2211 56.5005 27.9263C56.5005 27.4105 56.5005 26.821 56.4269 26.2316Z" fill="#E9E6EF"/>
<path d="M0.573684 29.7685C1.4579 44.3579 13.6158 56 28.5 56C43.3842 56 55.5421 44.3579 56.4263 29.7685C56.4263 29.179 56.3527 28.5895 56.279 28C55.6895 23.1368 53.8474 18.6421 51.0474 14.8842C45.9632 7.95786 37.7843 3.46313 28.5 3.46313C41.4685 3.46313 52.0789 13.5579 52.9632 26.2316C53.0368 26.8211 53.0368 27.4106 53.0368 28C53.0368 28.5895 53.0368 29.179 52.9632 29.7685C52.0789 42.5158 41.4685 52.5368 28.5 52.5368C19.2158 52.5368 11.0369 48.0421 5.95268 41.1158C3.15268 37.3579 1.31057 32.8632 0.721099 28C0.647415 27.4105 0.573684 26.8211 0.573684 26.3053C0.573684 26.6 0.555263 26.8948 0.536842 27.1895C0.518421 27.4842 0.5 27.779 0.5 28.0737C0.5 28.5895 0.5 29.179 0.573684 29.7685Z" fill="#E9E6EF"/>
<path fill-rule="evenodd" clip-rule="evenodd" d="M25.0371 13.1157V5.37891H30.3423C31.5949 5.37891 32.6265 6.41046 32.6265 7.66309C32.5528 8.17888 32.3318 8.69467 32.0371 9.06309C32.4792 9.5052 32.7739 10.0947 32.7739 10.7578C32.7739 12.0841 31.7423 13.1157 30.416 13.1157H25.0371ZM30.0475 6.99995H26.8054V8.32623H30.0475C30.416 8.32623 30.7108 8.03152 30.7108 7.66309C30.7108 7.29467 30.416 6.99995 30.0475 6.99995ZM30.1213 9.94728H26.8054V11.421H30.1213C30.5634 11.421 30.8581 11.1262 30.8581 10.6841C30.8581 10.242 30.5634 9.94728 30.1213 9.94728Z" fill="#E9E6EF"/>
<path fill-rule="evenodd" clip-rule="evenodd" d="M27.6168 14.5894L23.7852 22.3262H25.7747L26.3641 20.9999H30.7116L31.301 22.3262H33.2904L29.3852 14.5894H27.6168ZM28.501 16.5789L29.8273 19.3789H27.1747L28.501 16.5789Z" fill="#E9E6EF"/>
<path d="M33.3635 24.021H31.153L28.574 27.5578L25.9214 24.021H23.7109L27.6161 29.0315V31.7578H29.4582V29.0315L33.3635 24.021Z" fill="#E9E6EF"/>
<path fill-rule="evenodd" clip-rule="evenodd" d="M43.8262 24.021V31.7578H45.6683V28.8105H47.0683L49.2789 31.7578H51.4893L49.2051 28.7368C50.163 28.442 50.8999 27.5578 50.8999 26.4526C50.8999 25.1263 49.8683 24.021 48.542 24.021H43.8262ZM45.742 25.642H48.3947C48.7631 25.642 49.1315 26.0104 49.1315 26.3789C49.1315 26.7473 48.8368 27.1157 48.3947 27.1157H45.742V25.642Z" fill="#E9E6EF"/>
<path fill-rule="evenodd" clip-rule="evenodd" d="M6.17383 31.7578V24.021H11.479C12.7317 24.021 13.7632 25.0525 13.7632 26.3051C13.6895 26.8209 13.4685 27.3367 13.1738 27.7051C13.6159 28.1472 13.9107 28.7368 13.9107 29.3999C13.9107 30.7262 12.8791 31.7578 11.5528 31.7578H6.17383ZM11.1843 25.642H7.9422V26.9683H11.1843C11.5527 26.9683 11.8475 26.6736 11.8475 26.3051C11.8475 25.9367 11.5527 25.642 11.1843 25.642ZM11.258 28.5893H7.9422V30.063H11.258C11.7001 30.063 11.9949 29.7683 11.9949 29.3262C11.9949 28.8841 11.7001 28.5893 11.258 28.5893Z" fill="#E9E6EF"/>
<path fill-rule="evenodd" clip-rule="evenodd" d="M18.8472 24.021L15.0156 31.7578H17.0051L17.5945 30.4315H21.942L22.5314 31.7578H24.5208L20.6156 24.021H18.8472ZM19.7314 26.0105L21.0577 28.8105H18.4051L19.7314 26.0105Z" fill="#E9E6EF"/>
<path d="M41.3945 25.684V24.021H34.3945V31.7578H41.3945V30.0948H36.2366V28.6486H41.2471V26.9856H36.2366V25.684H41.3945Z" fill="#E9E6EF"/>
<path fill-rule="evenodd" clip-rule="evenodd" d="M24.9629 43.0315V50.7684H26.805V47.821H28.205L30.4156 50.7684H32.6261L30.3419 47.7473C31.2998 47.4526 32.0367 46.5684 32.0367 45.4631C32.0367 44.1368 31.0051 43.0315 29.6787 43.0315H24.9629ZM26.8787 44.6526H29.5314C29.8998 44.6526 30.2683 45.021 30.2683 45.3894C30.2683 45.7578 29.9735 46.1263 29.5314 46.1263H26.8787V44.6526Z" fill="#E9E6EF"/>
<path d="M32.0371 35.0984V33.4353H25.0371V41.1722H32.0371V39.5091H26.8792V38.063H31.8897V36.3999H26.8792V35.0984H32.0371Z" fill="#E9E6EF"/>
</g>
<defs>
<clipPath id="clip0_105_6532">
<rect width="56" height="56" fill="white" transform="translate(0.5)"/>
</clipPath>
</defs>
</svg>
