<svg width="95" height="30" viewBox="0 0 95 30" fill="none" xmlns="http://www.w3.org/2000/svg">
<g clip-path="url(#clip0_105_6545)">
<path fill-rule="evenodd" clip-rule="evenodd" d="M11.3623 17.3342C11.579 17.4472 11.8569 17.4351 12.0489 17.2657L12.0571 17.2737C12.6375 16.7655 13.6919 15.858 14.2845 15.37C14.5215 15.1764 14.4806 14.8658 14.2926 14.6077C14.2357 14.5299 14.1784 14.4536 14.1214 14.3778C13.6469 13.7468 13.1974 13.1488 13.1974 11.9497V7.48073C13.1974 7.32806 13.1982 7.1764 13.1991 7.02588C13.209 5.31133 13.2181 3.74556 11.9182 2.54793C10.8024 1.49119 8.95516 1.12012 7.54111 1.12012C4.77838 1.12012 1.69279 2.13653 1.04298 5.50842C0.977588 5.86738 1.23915 6.05695 1.47619 6.10938L4.29613 6.40785C4.55769 6.39575 4.74977 6.14165 4.79881 5.88352C5.03994 4.72191 6.02896 4.16127 7.1365 4.16127C7.73319 4.16127 8.41161 4.37907 8.76717 4.90744C9.13025 5.43588 9.12472 6.13972 9.11976 6.7712C9.1192 6.84341 9.11864 6.91467 9.11864 6.98462V7.35569C8.8466 7.38632 8.56101 7.41516 8.26669 7.44488C6.73937 7.5991 4.97715 7.77704 3.65449 8.35193C1.83583 9.12634 0.556641 10.7114 0.556641 13.0387C0.556641 16.0194 2.46112 17.5077 4.90507 17.5077C6.97303 17.5077 8.101 17.0277 9.69488 15.4224C9.77898 15.5418 9.85407 15.6515 9.92471 15.7547C10.3004 16.3035 10.5505 16.6688 11.3623 17.3342ZM9.11864 9.65471V10.2759C9.11864 10.327 9.1187 10.3777 9.11876 10.4281C9.12 11.4785 9.12105 12.3702 8.57508 13.317C8.11326 14.1237 7.38172 14.6198 6.56434 14.6198C5.44863 14.6198 4.79881 13.7808 4.79881 12.5426C4.79881 10.0984 7.01798 9.65471 9.11864 9.65471Z" fill="#E9E6EF"/>
<path fill-rule="evenodd" clip-rule="evenodd" d="M50.1427 17.6837C49.9506 17.8531 49.6727 17.8652 49.4561 17.7522C48.6442 17.0868 48.3941 16.7215 48.0185 16.1727C47.9478 16.0695 47.8727 15.9598 47.7886 15.8404C46.1948 17.4457 45.0668 17.9257 42.9988 17.9257C40.5549 17.9257 38.6504 16.4374 38.6504 13.4567C38.6504 11.1295 39.9296 9.54432 41.7482 8.76991C43.0709 8.19502 44.8331 8.01708 46.3604 7.86285C46.6547 7.83314 46.9404 7.8043 47.2124 7.77367V7.4026C47.2124 7.33265 47.2129 7.26139 47.2135 7.18918C47.2185 6.5577 47.224 5.85386 46.8609 5.32542C46.5054 4.79705 45.8269 4.57925 45.2303 4.57925C44.1227 4.57925 43.1337 5.13989 42.8926 6.30149C42.8435 6.55963 42.6514 6.81373 42.3899 6.82583L39.5699 6.52736C39.3329 6.47493 39.0713 6.28536 39.1367 5.92639C39.7865 2.5545 42.8721 1.53809 45.6349 1.53809C47.0489 1.53809 48.8962 1.90916 50.0119 2.9659C51.3118 4.16354 51.3028 5.72931 51.2928 7.44386C51.292 7.59438 51.2911 7.74604 51.2911 7.8987V12.3677C51.2911 13.5668 51.7406 14.1648 52.2151 14.7958C52.272 14.8715 52.3295 14.948 52.3864 15.0257C52.5744 15.2838 52.6152 15.5944 52.3782 15.788C51.7856 16.276 50.7312 17.1835 50.1508 17.6917L50.1427 17.6837ZM47.2124 10.0727C45.1117 10.0727 42.8926 10.5164 42.8926 12.9606C42.8926 14.1988 43.5424 15.0378 44.6581 15.0378C45.4755 15.0378 46.207 14.5417 46.6688 13.735C47.2148 12.7882 47.2137 11.8965 47.2125 10.8461L47.2124 10.0727Z" fill="#E9E6EF"/>
<path d="M17.0795 17.7239H19.9853C20.2959 17.7239 20.5452 17.4859 20.5452 17.1915V9.39099L20.545 9.20535C20.5421 7.52288 20.5384 5.33342 22.5519 5.33342C24.4051 5.33342 24.3735 7.28143 24.3477 8.86757C24.3448 9.04785 24.3419 9.22345 24.3419 9.39099L24.346 17.1915C24.346 17.4738 24.5749 17.7037 24.8691 17.7239H27.7708C28.0814 17.7239 28.3307 17.4859 28.3307 17.1915V9.39099C28.3307 9.32584 28.3305 9.25821 28.3304 9.18854C28.3282 8.36526 28.3254 7.2559 28.6004 6.57167C28.8988 5.82953 29.6344 5.36569 30.3374 5.36569C31.1793 5.36569 31.8291 5.644 32.0457 6.63217C32.1575 7.10616 32.1423 8.20209 32.1321 8.93557C32.1296 9.11301 32.1274 9.26999 32.1274 9.39099V17.1915C32.1274 17.4738 32.3604 17.7037 32.6505 17.7239H35.5522C35.8628 17.7239 36.1121 17.4859 36.1121 17.1915L36.1162 7.90268C36.1162 7.67607 36.1201 7.44488 36.124 7.21143C36.1474 5.82024 36.1721 4.34883 35.3846 3.28851C34.5714 2.1753 33.239 1.6792 32.0211 1.6792C30.3087 1.6792 28.7108 2.54637 28.0078 4.40575C27.1905 2.54637 26.0543 1.6792 24.2357 1.6792C22.4456 1.6792 21.1174 2.54637 20.4103 4.40575H20.3572V2.48184C20.3368 2.21564 20.112 2.00186 19.83 1.98977H17.1204C16.8098 1.98977 16.5605 2.22371 16.5605 2.51814V17.2359C16.5809 17.498 16.8016 17.7037 17.0795 17.7239Z" fill="#E9E6EF"/>
<path d="M54.8268 4.58728V2.48187C54.8268 2.16323 55.072 1.94946 55.3662 1.94946H64.9173C65.2238 1.94946 65.469 2.16726 65.469 2.48187V4.28478C65.4649 4.58728 65.2074 4.98255 64.7497 5.60772L59.8005 12.5814C61.6396 12.537 63.5808 12.8073 65.2483 13.7349C65.6243 13.9447 65.7265 14.2512 65.7551 14.5537V16.8003C65.7551 17.1068 65.4118 17.4658 65.0521 17.2803C62.1137 15.7597 58.2107 15.5943 54.9616 17.2964C54.6306 17.4739 54.2832 17.1189 54.2832 16.8124V14.6787C54.2832 14.3359 54.2873 13.7511 54.6347 13.2308L60.3686 5.11565H55.3785C55.072 5.11565 54.8268 4.90188 54.8268 4.58728Z" fill="#E9E6EF"/>
<path d="M54.7335 20.6003C56.5051 20.3929 60.3799 19.9393 61.0708 20.8136C61.7692 21.6963 60.296 25.3266 59.6375 26.9494L59.6363 26.9523C59.436 27.4444 59.8651 27.642 60.3147 27.271C63.245 24.855 63.997 19.7931 63.4003 19.0631C62.8036 18.3371 57.6868 17.7119 54.5685 19.8778C54.0863 20.2086 54.168 20.6684 54.7034 20.6038L54.7335 20.6003Z" fill="#E9E6EF"/>
<path d="M38.6296 29.4611C45.4384 29.4611 53.3465 27.3436 58.8024 23.3748C59.7056 22.7133 58.9332 21.7292 58.0096 22.1164C51.8956 24.6775 45.2463 25.9118 39.2018 25.9118C30.2393 25.9118 21.5629 23.4877 14.5457 19.4584C13.9327 19.1034 13.475 19.7246 13.9858 20.1804C20.488 25.9763 29.0827 29.4611 38.6296 29.4611Z" fill="#E9E6EF"/>
<path fill-rule="evenodd" clip-rule="evenodd" d="M73.6913 1.6792C78.003 1.6792 80.3366 5.33342 80.3366 9.97986C80.3366 14.469 77.7578 18.0304 73.6913 18.0304C69.4573 18.0304 67.1523 14.3762 67.1523 9.82256C67.1523 5.24066 69.486 1.6792 73.6913 1.6792ZM73.7159 4.68405C71.5743 4.68405 71.4395 7.56387 71.4395 9.35872V9.42479C71.4391 11.2498 71.4384 14.9974 73.6913 14.9974C75.9432 14.9974 76.0495 11.8997 76.0495 10.0121C76.0495 8.76985 75.9963 7.28557 75.6163 6.10783C75.2893 5.08336 74.6395 4.68405 73.7159 4.68405Z" fill="#E9E6EF"/>
<path d="M83.0331 17.7239H85.9266C86.2372 17.7239 86.4906 17.4859 86.4947 17.1915V9.26595C86.4947 8.27375 86.5478 7.37834 86.9565 6.4789C87.2794 5.76903 87.9292 5.30116 88.6362 5.30116C90.4883 5.30116 90.4708 7.30764 90.4571 8.88208C90.456 9.01352 90.4549 9.14195 90.4549 9.26595V17.2601C90.4835 17.5101 90.7042 17.7037 90.9698 17.7239H93.8838C94.1698 17.7239 94.411 17.5182 94.4437 17.2601V7.99544C94.4437 6.57167 94.4437 4.59129 93.6835 3.41354C92.8661 2.14304 91.5951 1.6792 90.2914 1.6792C88.2847 1.6792 87.1445 2.63914 86.3312 4.65179H86.2781V2.40117C86.2209 2.17127 86.0124 2.00186 85.7591 1.98977H83.0658C82.7716 1.98977 82.5304 2.1995 82.5059 2.46974L82.51 17.1915C82.51 17.4738 82.743 17.7037 83.0331 17.7239Z" fill="#E9E6EF"/>
</g>
<defs>
<clipPath id="clip0_105_6545">
<rect width="94" height="29" fill="white" transform="translate(0.5 0.5)"/>
</clipPath>
</defs>
</svg>
