<svg width="20" height="21" viewBox="0 0 20 21" fill="none" xmlns="http://www.w3.org/2000/svg">
<g clip-path="url(#clip0_153_11438)">
<path d="M2.5 15.875C2.5 16.3333 2.875 16.7083 3.33333 16.7083H7.5V15.0417H3.33333C2.875 15.0417 2.5 15.4167 2.5 15.875ZM2.5 5.875C2.5 6.33333 2.875 6.70833 3.33333 6.70833H10.8333V5.04167H3.33333C2.875 5.04167 2.5 5.41667 2.5 5.875ZM10.8333 17.5417V16.7083H16.6667C17.125 16.7083 17.5 16.3333 17.5 15.875C17.5 15.4167 17.125 15.0417 16.6667 15.0417H10.8333V14.2083C10.8333 13.75 10.4583 13.375 10 13.375C9.54167 13.375 9.16667 13.75 9.16667 14.2083V17.5417C9.16667 18 9.54167 18.375 10 18.375C10.4583 18.375 10.8333 18 10.8333 17.5417ZM5.83333 9.20833V10.0417H3.33333C2.875 10.0417 2.5 10.4167 2.5 10.875C2.5 11.3333 2.875 11.7083 3.33333 11.7083H5.83333V12.5417C5.83333 13 6.20833 13.375 6.66667 13.375C7.125 13.375 7.5 13 7.5 12.5417V9.20833C7.5 8.75 7.125 8.375 6.66667 8.375C6.20833 8.375 5.83333 8.75 5.83333 9.20833ZM17.5 10.875C17.5 10.4167 17.125 10.0417 16.6667 10.0417H9.16667V11.7083H16.6667C17.125 11.7083 17.5 11.3333 17.5 10.875ZM13.3333 8.375C13.7917 8.375 14.1667 8 14.1667 7.54167V6.70833H16.6667C17.125 6.70833 17.5 6.33333 17.5 5.875C17.5 5.41667 17.125 5.04167 16.6667 5.04167H14.1667V4.20833C14.1667 3.75 13.7917 3.375 13.3333 3.375C12.875 3.375 12.5 3.75 12.5 4.20833V7.54167C12.5 8 12.875 8.375 13.3333 8.375Z" fill="white"/>
</g>
<defs>
<clipPath id="clip0_153_11438">
<rect width="20" height="20" fill="white" transform="translate(0 0.875)"/>
</clipPath>
</defs>
</svg>
