<svg width="35" height="40" viewBox="0 0 35 40" fill="none" xmlns="http://www.w3.org/2000/svg">
<path d="M3.8893 32.2919V12.0455L8.666 9.32884L22.1869 17.2442L26.1806 14.893L8.666 4.86133L0 9.92953V29.8624L3.8893 32.2919Z" fill="url(#paint0_linear_254_4588)"/>
<path d="M8.666 9.32884L3.8893 12.0455L0 9.92953L8.666 4.86133L26.1806 14.893L22.1869 17.2442L8.666 9.32884Z" fill="#6430D2"/>
<path d="M13.4727 2.27052L17.359 0L34.6532 9.99506L30.6884 12.2917L13.4727 2.27052Z" fill="#6430D2"/>
<path d="M7.70898 18.9297L17.2297 24.5102L17.2558 28.9694L11.6998 25.4753V32.2554L17.1776 35.4368L17.2297 40.0002L7.70898 34.3415V18.9297Z" fill="#D9D9D9"/>
<path d="M34.4451 14.5142L17.2297 24.5103L7.70898 18.9239V34.3416L17.2297 40.0003L34.4451 29.9866V25.4517L17.1776 35.4369L11.6998 32.2555V25.4754L17.2558 28.9695L34.4451 18.9822V14.5142Z" fill="white"/>
<path d="M10.7298 17.2222L7.70898 18.9236L17.2229 24.5138L34.4451 14.5138L32.0493 13.1597L17.2923 21.4583L10.7298 17.2222Z" fill="url(#paint1_linear_254_4588)"/>
<path d="M10.6595 28.1597L7.63867 29.8611L17.1526 35.4513L34.4442 25.4513L31.9789 24.0972L17.222 32.3958L10.6595 28.1597Z" fill="url(#paint2_linear_254_4588)"/>
<defs>
<linearGradient id="paint0_linear_254_4588" x1="1.97917" y1="10.6252" x2="2.04861" y2="33.6808" gradientUnits="userSpaceOnUse">
<stop stop-color="#6430D2"/>
<stop offset="1" stop-color="#BB30D2"/>
</linearGradient>
<linearGradient id="paint1_linear_254_4588" x1="18.8201" y1="7.53467" x2="17.2576" y2="28.2638" gradientUnits="userSpaceOnUse">
<stop stop-color="white" stop-opacity="0"/>
<stop offset="1" stop-color="white"/>
</linearGradient>
<linearGradient id="paint2_linear_254_4588" x1="18.7498" y1="18.4722" x2="17.1873" y2="39.2013" gradientUnits="userSpaceOnUse">
<stop stop-color="white" stop-opacity="0"/>
<stop offset="1" stop-color="white"/>
</linearGradient>
</defs>
</svg>
