<svg viewBox="0 0 59 92" fill="none" xmlns="http://www.w3.org/2000/svg">
<path d="M6.59719 54.5928V20.5652L14.6253 15.9994L37.3495 29.3026L44.0615 25.3509L14.6253 8.49097L0.0605469 17.009V50.5095L6.59719 54.5928Z" fill="url(#paint0_linear_254_4730)"/>
<path d="M14.6253 15.9994L6.59719 20.5652L0.0605469 17.009L14.6253 8.49097L44.0615 25.3509L37.3495 29.3026L14.6253 15.9994Z" fill="#6430D2"/>
<path d="M22.7031 4.13706L29.2348 0.321045L58.3007 17.1195L51.6371 20.9793L22.7031 4.13706Z" fill="#6430D2"/>
<path d="M13.0156 32.1353L29.0168 41.5143L29.0606 49.0087L19.723 43.1363V54.5314L28.9292 59.8783L29.0168 67.5479L13.0156 58.0374V32.1353Z" fill="#D9D9D9"/>
<path d="M57.9503 24.7141L29.0168 41.5144L13.0156 32.1254V58.0375L29.0168 67.5479L57.9503 50.7183V43.0965L28.9292 59.8784L19.723 54.5314V43.1363L29.0606 49.0088L57.9503 32.2235V24.7141Z" fill="white"/>
<path d="M18.0927 29.266L13.0156 32.1254L29.0054 41.5209L57.9503 24.7141L53.9237 22.4382L29.1221 36.3855L18.0927 29.266Z" fill="url(#paint1_linear_254_4730)"/>
<path d="M17.9755 47.6483L12.8984 50.5078L28.8882 59.9032L57.9498 43.0965L53.8065 40.8206L29.0049 54.7678L17.9755 47.6483Z" fill="url(#paint2_linear_254_4730)"/>
<path d="M6.364 87.6833C5.14267 87.6833 4.23867 87.3927 3.652 86.8113C3.07067 86.2247 2.78 85.3207 2.78 84.0993V80.4193C2.78 79.1873 3.07067 78.2807 3.652 77.6993C4.23333 77.1127 5.132 76.8247 6.348 76.8353H8.284C9.28667 76.8353 10.052 77.0433 10.58 77.4593C11.108 77.87 11.4147 78.5207 11.5 79.4113C11.532 79.6353 11.4893 79.806 11.372 79.9233C11.2547 80.0407 11.084 80.0993 10.86 80.0993C10.4547 80.0993 10.22 79.8753 10.156 79.4273C10.1027 78.9367 9.932 78.606 9.644 78.4353C9.36133 78.2647 8.908 78.1793 8.284 78.1793H6.348C5.78267 78.174 5.33733 78.238 5.012 78.3713C4.692 78.5047 4.46267 78.7367 4.324 79.0673C4.19067 79.3927 4.124 79.8433 4.124 80.4193V84.0993C4.124 84.67 4.19067 85.118 4.324 85.4433C4.46267 85.7687 4.69467 86.0007 5.02 86.1393C5.34533 86.2727 5.79333 86.3393 6.364 86.3393H8.284C8.908 86.3393 9.36133 86.254 9.644 86.0833C9.932 85.9073 10.1027 85.5767 10.156 85.0913C10.22 84.6433 10.4547 84.4193 10.86 84.4193C11.084 84.4193 11.2547 84.478 11.372 84.5953C11.4893 84.7127 11.532 84.8833 11.5 85.1073C11.4147 86.0033 11.108 86.6567 10.58 87.0673C10.052 87.478 9.28667 87.6833 8.284 87.6833H6.364ZM17.5046 87.6833C16.2833 87.6833 15.3793 87.3927 14.7926 86.8113C14.2113 86.2247 13.9206 85.3207 13.9206 84.0993V80.4033C13.9206 79.1713 14.214 78.2673 14.8006 77.6913C15.3873 77.11 16.2886 76.8247 17.5046 76.8353H19.4246C20.6513 76.8353 21.5553 77.126 22.1366 77.7073C22.718 78.2887 23.0086 79.1927 23.0086 80.4193V84.0993C23.0086 85.3207 22.718 86.2247 22.1366 86.8113C21.5553 87.3927 20.6513 87.6833 19.4246 87.6833H17.5046ZM17.5046 86.3393H19.4246C19.9953 86.3393 20.4433 86.2727 20.7686 86.1393C21.094 86.0007 21.3233 85.7687 21.4566 85.4433C21.5953 85.118 21.6646 84.67 21.6646 84.0993V80.4193C21.6646 79.854 21.5953 79.4087 21.4566 79.0833C21.3233 78.758 21.094 78.526 20.7686 78.3873C20.4433 78.2487 19.9953 78.1793 19.4246 78.1793H17.5046C16.9393 78.174 16.494 78.238 16.1686 78.3713C15.8433 78.5047 15.6113 78.734 15.4726 79.0593C15.334 79.3847 15.2646 79.8327 15.2646 80.4033V84.0993C15.2646 84.67 15.3313 85.118 15.4646 85.4433C15.6033 85.7687 15.8353 86.0007 16.1606 86.1393C16.486 86.2727 16.934 86.3393 17.5046 86.3393ZM32.9213 87.7153C32.7453 87.8273 32.5773 87.862 32.4173 87.8193C32.2573 87.7767 32.1213 87.6673 32.0093 87.4913L29.5293 83.3633H27.2893V87.0113C27.2893 87.4593 27.0653 87.6833 26.6173 87.6833C26.1693 87.6833 25.9453 87.4593 25.9453 87.0113V77.5073C25.9453 77.0593 26.1693 76.8353 26.6173 76.8353H30.3613C31.3373 76.8353 32.0839 77.0967 32.6013 77.6193C33.1239 78.1367 33.3853 78.8833 33.3853 79.8593V80.3393C33.3853 81.1873 33.1879 81.8647 32.7933 82.3713C32.3986 82.8727 31.8279 83.1847 31.0813 83.3073L33.1773 86.8033C33.3799 87.1767 33.2946 87.4807 32.9213 87.7153ZM27.2893 82.0193H30.3613C30.9693 82.0193 31.4013 81.8913 31.6573 81.6353C31.9133 81.3793 32.0413 80.9473 32.0413 80.3393V79.8593C32.0413 79.2567 31.9133 78.8273 31.6573 78.5713C31.4013 78.31 30.9693 78.1793 30.3613 78.1793H27.2893V82.0193ZM36.6173 87.6833C36.1693 87.6833 35.9453 87.4593 35.9453 87.0113V77.5073C35.9453 77.0593 36.1693 76.8353 36.6173 76.8353H42.3612C42.8093 76.8353 43.0333 77.0593 43.0333 77.5073C43.0333 77.9553 42.8093 78.1793 42.3612 78.1793H37.2893V81.5393H40.4733C40.9213 81.5393 41.1453 81.7633 41.1453 82.2113C41.1453 82.6593 40.9213 82.8833 40.4733 82.8833H37.2893V86.3393H42.3612C42.8093 86.3393 43.0333 86.5633 43.0333 87.0113C43.0333 87.4593 42.8093 87.6833 42.3612 87.6833H36.6173ZM46.2579 87.6833C45.8099 87.6833 45.5859 87.4593 45.5859 87.0113V77.5073C45.5859 77.0593 45.8099 76.8353 46.2579 76.8353H52.1459C52.3539 76.8353 52.5165 76.8967 52.6339 77.0193C52.7565 77.1367 52.8179 77.2993 52.8179 77.5073C52.8179 77.9553 52.5939 78.1793 52.1459 78.1793H46.9299V81.5393H50.1459C50.5939 81.5393 50.8179 81.7633 50.8179 82.2113C50.8179 82.6593 50.5939 82.8833 50.1459 82.8833H46.9299V87.0113C46.9299 87.4593 46.7059 87.6833 46.2579 87.6833ZM55.1485 87.6833C54.9192 87.6833 54.7485 87.63 54.6365 87.5233C54.5298 87.4113 54.4765 87.2407 54.4765 87.0113V77.5233C54.4765 77.2887 54.5298 77.118 54.6365 77.0113C54.7485 76.9047 54.9192 76.8513 55.1485 76.8513C55.3832 76.8513 55.5538 76.9047 55.6605 77.0113C55.7672 77.118 55.8205 77.2887 55.8205 77.5233V87.0113C55.8205 87.2407 55.7672 87.4113 55.6605 87.5233C55.5538 87.63 55.3832 87.6833 55.1485 87.6833Z" fill="white"/>
<defs>
<linearGradient id="paint0_linear_254_4730" x1="3.38688" y1="18.1782" x2="3.50359" y2="56.927" gradientUnits="userSpaceOnUse">
<stop stop-color="#6430D2"/>
<stop offset="1" stop-color="#BB30D2"/>
</linearGradient>
<linearGradient id="paint1_linear_254_4730" x1="31.6898" y1="12.9844" x2="29.0637" y2="47.8234" gradientUnits="userSpaceOnUse">
<stop stop-color="white" stop-opacity="0"/>
<stop offset="1" stop-color="white"/>
</linearGradient>
<linearGradient id="paint2_linear_254_4730" x1="31.5726" y1="31.3668" x2="28.9465" y2="66.2057" gradientUnits="userSpaceOnUse">
<stop stop-color="white" stop-opacity="0"/>
<stop offset="1" stop-color="white"/>
</linearGradient>
</defs>
</svg>
