<svg viewBox="0 0 117 40" fill="none" xmlns="http://www.w3.org/2000/svg">
<path d="M3.8893 32.2919V12.0455L8.666 9.32884L22.1869 17.2442L26.1806 14.893L8.666 4.86133L0 9.92953V29.8624L3.8893 32.2919Z" fill="url(#paint0_linear_254_4587)"/>
<path d="M8.666 9.32884L3.8893 12.0455L0 9.92953L8.666 4.86133L26.1806 14.893L22.1869 17.2442L8.666 9.32884Z" fill="#6430D2"/>
<path d="M13.4727 2.27052L17.359 0L34.6532 9.99506L30.6884 12.2917L13.4727 2.27052Z" fill="#6430D2"/>
<path d="M7.70898 18.9297L17.2297 24.5102L17.2558 28.9694L11.6998 25.4753V32.2554L17.1776 35.4368L17.2297 40.0002L7.70898 34.3415V18.9297Z" fill="#D9D9D9"/>
<path d="M34.4451 14.5142L17.2297 24.5103L7.70898 18.9239V34.3416L17.2297 40.0003L34.4451 29.9866V25.4517L17.1776 35.4369L11.6998 32.2555V25.4754L17.2558 28.9695L34.4451 18.9822V14.5142Z" fill="white"/>
<path d="M10.7298 17.2222L7.70898 18.9236L17.2229 24.5138L34.4451 14.5138L32.0493 13.1597L17.2923 21.4583L10.7298 17.2222Z" fill="url(#paint1_linear_254_4587)"/>
<path d="M10.6595 28.1597L7.63867 29.8611L17.1526 35.4513L34.4442 25.4513L31.9789 24.0972L17.222 32.3958L10.6595 28.1597Z" fill="url(#paint2_linear_254_4587)"/>
<path d="M54.6603 25.907C55.555 25.907 56.325 25.7603 56.9703 25.467C57.6157 25.159 58.2903 24.675 58.9943 24.015L60.6663 25.731C59.0383 27.535 57.0583 28.437 54.7263 28.437C52.409 28.437 50.4803 27.689 48.9403 26.193C47.415 24.697 46.6523 22.805 46.6523 20.517C46.6523 18.229 47.4297 16.3223 48.9843 14.797C50.5537 13.2717 52.5263 12.509 54.9023 12.509C57.293 12.509 59.2877 13.389 60.8863 15.149L59.2363 16.953C58.503 16.249 57.8063 15.7577 57.1463 15.479C56.501 15.2003 55.7383 15.061 54.8583 15.061C53.3037 15.061 51.9983 15.567 50.9423 16.579C49.8863 17.5763 49.3583 18.8597 49.3583 20.429C49.3583 21.9837 49.879 23.289 50.9203 24.345C51.9763 25.3863 53.223 25.907 54.6603 25.907Z" fill="white"/>
<path d="M66.2176 25.181C66.9216 25.885 67.8089 26.237 68.8796 26.237C69.9502 26.237 70.8302 25.885 71.5196 25.181C72.2236 24.4623 72.5756 23.5383 72.5756 22.409C72.5756 21.2797 72.2236 20.363 71.5196 19.659C70.8302 18.9403 69.9502 18.581 68.8796 18.581C67.8089 18.581 66.9216 18.9403 66.2176 19.659C65.5282 20.363 65.1836 21.2797 65.1836 22.409C65.1836 23.5383 65.5282 24.4623 66.2176 25.181ZM73.2796 26.699C72.1062 27.8577 70.6396 28.437 68.8796 28.437C67.1196 28.437 65.6529 27.8577 64.4796 26.699C63.3062 25.5257 62.7196 24.0957 62.7196 22.409C62.7196 20.7223 63.3062 19.2997 64.4796 18.141C65.6529 16.9677 67.1196 16.381 68.8796 16.381C70.6396 16.381 72.1062 16.9677 73.2796 18.141C74.4529 19.2997 75.0396 20.7223 75.0396 22.409C75.0396 24.0957 74.4529 25.5257 73.2796 26.699Z" fill="white"/>
<path d="M83.9791 18.867C82.7618 18.867 81.8451 19.263 81.2291 20.055C80.6131 20.847 80.3051 21.9103 80.3051 23.245V28.261H77.8411V16.557H80.3051V18.911C80.7011 18.1777 81.2365 17.5763 81.9111 17.107C82.6005 16.6377 83.3265 16.3957 84.0891 16.381L84.1111 18.867C84.0671 18.867 84.0231 18.867 83.9791 18.867Z" fill="white"/>
<path d="M97.4753 23.487H88.3013C88.3599 24.3377 88.7486 25.027 89.4673 25.555C90.1859 26.0683 91.0073 26.325 91.9313 26.325C93.3979 26.325 94.5126 25.863 95.2753 24.939L96.6833 26.479C95.4219 27.7843 93.7793 28.437 91.7553 28.437C90.1126 28.437 88.7119 27.8943 87.5533 26.809C86.4093 25.709 85.8373 24.2423 85.8373 22.409C85.8373 20.561 86.4239 19.0943 87.5973 18.009C88.7706 16.9237 90.1493 16.381 91.7333 16.381C93.3319 16.381 94.6886 16.865 95.8033 17.833C96.9179 18.7863 97.4753 20.1063 97.4753 21.793V23.487ZM88.3013 21.551H95.0113C95.0113 20.5683 94.7033 19.813 94.0873 19.285C93.4713 18.757 92.7086 18.493 91.7993 18.493C90.9046 18.493 90.0979 18.7717 89.3793 19.329C88.6606 19.8717 88.3013 20.6123 88.3013 21.551Z" fill="white"/>
<path d="M103.133 15.303V19.527H109.953V21.925H103.133V28.261H100.537V12.883H110.789L110.767 15.303H103.133Z" fill="white"/>
<path d="M115.926 28.261H113.462V16.557H115.926V28.261ZM113.616 14.225C113.308 13.917 113.154 13.5503 113.154 13.125C113.154 12.6997 113.308 12.333 113.616 12.025C113.924 11.717 114.291 11.563 114.716 11.563C115.142 11.563 115.508 11.717 115.816 12.025C116.124 12.333 116.278 12.6997 116.278 13.125C116.278 13.5503 116.124 13.917 115.816 14.225C115.508 14.533 115.142 14.687 114.716 14.687C114.291 14.687 113.924 14.533 113.616 14.225Z" fill="white"/>
<path d="M54.6603 25.907C55.555 25.907 56.325 25.7603 56.9703 25.467C57.6157 25.159 58.2903 24.675 58.9943 24.015L60.6663 25.731C59.0383 27.535 57.0583 28.437 54.7263 28.437C52.409 28.437 50.4803 27.689 48.9403 26.193C47.415 24.697 46.6523 22.805 46.6523 20.517C46.6523 18.229 47.4297 16.3223 48.9843 14.797C50.5537 13.2717 52.5263 12.509 54.9023 12.509C57.293 12.509 59.2877 13.389 60.8863 15.149L59.2363 16.953C58.503 16.249 57.8063 15.7577 57.1463 15.479C56.501 15.2003 55.7383 15.061 54.8583 15.061C53.3037 15.061 51.9983 15.567 50.9423 16.579C49.8863 17.5763 49.3583 18.8597 49.3583 20.429C49.3583 21.9837 49.879 23.289 50.9203 24.345C51.9763 25.3863 53.223 25.907 54.6603 25.907Z" stroke="white" stroke-width="0.5"/>
<path d="M66.2176 25.181C66.9216 25.885 67.8089 26.237 68.8796 26.237C69.9502 26.237 70.8302 25.885 71.5196 25.181C72.2236 24.4623 72.5756 23.5383 72.5756 22.409C72.5756 21.2797 72.2236 20.363 71.5196 19.659C70.8302 18.9403 69.9502 18.581 68.8796 18.581C67.8089 18.581 66.9216 18.9403 66.2176 19.659C65.5282 20.363 65.1836 21.2797 65.1836 22.409C65.1836 23.5383 65.5282 24.4623 66.2176 25.181ZM73.2796 26.699C72.1062 27.8577 70.6396 28.437 68.8796 28.437C67.1196 28.437 65.6529 27.8577 64.4796 26.699C63.3062 25.5257 62.7196 24.0957 62.7196 22.409C62.7196 20.7223 63.3062 19.2997 64.4796 18.141C65.6529 16.9677 67.1196 16.381 68.8796 16.381C70.6396 16.381 72.1062 16.9677 73.2796 18.141C74.4529 19.2997 75.0396 20.7223 75.0396 22.409C75.0396 24.0957 74.4529 25.5257 73.2796 26.699Z" stroke="white" stroke-width="0.5"/>
<path d="M83.9791 18.867C82.7618 18.867 81.8451 19.263 81.2291 20.055C80.6131 20.847 80.3051 21.9103 80.3051 23.245V28.261H77.8411V16.557H80.3051V18.911C80.7011 18.1777 81.2365 17.5763 81.9111 17.107C82.6005 16.6377 83.3265 16.3957 84.0891 16.381L84.1111 18.867C84.0671 18.867 84.0231 18.867 83.9791 18.867Z" stroke="white" stroke-width="0.5"/>
<path d="M97.4753 23.487H88.3013C88.3599 24.3377 88.7486 25.027 89.4673 25.555C90.1859 26.0683 91.0073 26.325 91.9313 26.325C93.3979 26.325 94.5126 25.863 95.2753 24.939L96.6833 26.479C95.4219 27.7843 93.7793 28.437 91.7553 28.437C90.1126 28.437 88.7119 27.8943 87.5533 26.809C86.4093 25.709 85.8373 24.2423 85.8373 22.409C85.8373 20.561 86.4239 19.0943 87.5973 18.009C88.7706 16.9237 90.1493 16.381 91.7333 16.381C93.3319 16.381 94.6886 16.865 95.8033 17.833C96.9179 18.7863 97.4753 20.1063 97.4753 21.793V23.487ZM88.3013 21.551H95.0113C95.0113 20.5683 94.7033 19.813 94.0873 19.285C93.4713 18.757 92.7086 18.493 91.7993 18.493C90.9046 18.493 90.0979 18.7717 89.3793 19.329C88.6606 19.8717 88.3013 20.6123 88.3013 21.551Z" stroke="white" stroke-width="0.5"/>
<path d="M103.133 15.303V19.527H109.953V21.925H103.133V28.261H100.537V12.883H110.789L110.767 15.303H103.133Z" stroke="white" stroke-width="0.5"/>
<path d="M115.926 28.261H113.462V16.557H115.926V28.261ZM113.616 14.225C113.308 13.917 113.154 13.5503 113.154 13.125C113.154 12.6997 113.308 12.333 113.616 12.025C113.924 11.717 114.291 11.563 114.716 11.563C115.142 11.563 115.508 11.717 115.816 12.025C116.124 12.333 116.278 12.6997 116.278 13.125C116.278 13.5503 116.124 13.917 115.816 14.225C115.508 14.533 115.142 14.687 114.716 14.687C114.291 14.687 113.924 14.533 113.616 14.225Z" stroke="white" stroke-width="0.5"/>
<defs>
<linearGradient id="paint0_linear_254_4587" x1="1.97917" y1="10.6252" x2="2.04861" y2="33.6808" gradientUnits="userSpaceOnUse">
<stop stop-color="#6430D2"/>
<stop offset="1" stop-color="#BB30D2"/>
</linearGradient>
<linearGradient id="paint1_linear_254_4587" x1="18.8201" y1="7.53467" x2="17.2576" y2="28.2638" gradientUnits="userSpaceOnUse">
<stop stop-color="white" stop-opacity="0"/>
<stop offset="1" stop-color="white"/>
</linearGradient>
<linearGradient id="paint2_linear_254_4587" x1="18.7498" y1="18.4722" x2="17.1873" y2="39.2013" gradientUnits="userSpaceOnUse">
<stop stop-color="white" stop-opacity="0"/>
<stop offset="1" stop-color="white"/>
</linearGradient>
</defs>
</svg>
