<svg  viewBox="0 0 106 29" fill="none" xmlns="http://www.w3.org/2000/svg">
<g clip-path="url(#clip0_184_3800)">
<path fill-rule="evenodd" clip-rule="evenodd" d="M14.0012 10.3101C14.8301 10.3101 15.6403 10.5558 16.3295 11.0163C17.0186 11.4768 17.5557 12.1313 17.8729 12.897C18.1901 13.6628 18.2731 14.5054 18.1114 15.3183C17.9497 16.1312 17.5506 16.8779 16.9645 17.464C16.3784 18.0501 15.6317 18.4492 14.8188 18.6109C14.0059 18.7726 13.1633 18.6896 12.3975 18.3724C11.6318 18.0552 10.9773 17.5181 10.5168 16.829C10.0563 16.1398 9.81055 15.3296 9.81055 14.5007C9.81055 13.3893 10.2521 12.3234 11.038 11.5375C11.8239 10.7516 12.8898 10.3101 14.0012 10.3101Z" fill="white"/>
<path fill-rule="evenodd" clip-rule="evenodd" d="M5.94313 11.2461L1.99319 7.29834C0.387765 9.97612 -0.276749 13.1136 0.105212 16.2123C0.487172 19.311 1.8937 22.1932 4.10134 24.401C6.30898 26.6087 9.19109 28.0154 12.2898 28.3975C15.3885 28.7797 18.526 28.1153 21.2038 26.5101L17.2507 22.558C15.6693 23.1955 13.9352 23.3538 12.2645 23.0131C10.5938 22.6725 9.06015 21.8481 7.85446 20.6424C6.64878 19.4367 5.82433 17.9031 5.48372 16.2323C5.14311 14.5616 5.30139 12.8276 5.93887 11.2461" fill="white"/>
<path fill-rule="evenodd" clip-rule="evenodd" d="M20.4894 20.2774L24.2358 24.026C26.6533 21.4432 27.999 18.0382 28.0004 14.5005C28.0004 6.80092 21.6995 0.5 13.9999 0.5H0.710938L6.02333 5.81238L8.22199 8.0121C9.87776 6.5375 12.0346 5.75173 14.2509 5.81571C16.4672 5.87969 18.5752 6.7886 20.1432 8.35627C21.7111 9.92394 22.6203 12.0317 22.6847 14.248C22.7491 16.4643 21.9637 18.6213 20.4894 20.2774Z" fill="white"/>
</g>
<path d="M44.008 20.407C44.9027 20.407 45.6727 20.2603 46.318 19.967C46.9633 19.659 47.638 19.175 48.342 18.515L50.014 20.231C48.386 22.035 46.406 22.937 44.074 22.937C41.7567 22.937 39.828 22.189 38.288 20.693C36.7627 19.197 36 17.305 36 15.017C36 12.729 36.7773 10.8223 38.332 9.29699C39.9013 7.77166 41.874 7.00899 44.25 7.00899C46.6407 7.00899 48.6353 7.88899 50.234 9.64899L48.584 11.453C47.8507 10.749 47.154 10.2577 46.494 9.97899C45.8487 9.70032 45.086 9.56099 44.206 9.56099C42.6513 9.56099 41.346 10.067 40.29 11.079C39.234 12.0763 38.706 13.3597 38.706 14.929C38.706 16.4837 39.2267 17.789 40.268 18.845C41.324 19.8863 42.5707 20.407 44.008 20.407Z" fill="white"/>
<path d="M55.5652 19.681C56.2692 20.385 57.1566 20.737 58.2272 20.737C59.2979 20.737 60.1779 20.385 60.8672 19.681C61.5712 18.9623 61.9232 18.0383 61.9232 16.909C61.9232 15.7797 61.5712 14.863 60.8672 14.159C60.1779 13.4403 59.2979 13.081 58.2272 13.081C57.1566 13.081 56.2692 13.4403 55.5652 14.159C54.8759 14.863 54.5312 15.7797 54.5312 16.909C54.5312 18.0383 54.8759 18.9623 55.5652 19.681ZM62.6272 21.199C61.4539 22.3577 59.9872 22.937 58.2272 22.937C56.4672 22.937 55.0006 22.3577 53.8272 21.199C52.6539 20.0257 52.0672 18.5957 52.0672 16.909C52.0672 15.2223 52.6539 13.7997 53.8272 12.641C55.0006 11.4677 56.4672 10.881 58.2272 10.881C59.9872 10.881 61.4539 11.4677 62.6272 12.641C63.8006 13.7997 64.3872 15.2223 64.3872 16.909C64.3872 18.5957 63.8006 20.0257 62.6272 21.199Z" fill="white"/>
<path d="M73.3268 13.367C72.1094 13.367 71.1928 13.763 70.5768 14.555C69.9608 15.347 69.6528 16.4103 69.6528 17.745V22.761H67.1888V11.057H69.6528V13.411C70.0488 12.6777 70.5841 12.0763 71.2588 11.607C71.9481 11.1377 72.6741 10.8957 73.4368 10.881L73.4588 13.367C73.4148 13.367 73.3708 13.367 73.3268 13.367Z" fill="white"/>
<path d="M86.8229 17.987H77.6489C77.7076 18.8377 78.0963 19.527 78.8149 20.055C79.5336 20.5683 80.3549 20.825 81.2789 20.825C82.7456 20.825 83.8603 20.363 84.6229 19.439L86.0309 20.979C84.7696 22.2843 83.1269 22.937 81.1029 22.937C79.4603 22.937 78.0596 22.3943 76.9009 21.309C75.7569 20.209 75.1849 18.7423 75.1849 16.909C75.1849 15.061 75.7716 13.5943 76.9449 12.509C78.1183 11.4237 79.4969 10.881 81.0809 10.881C82.6796 10.881 84.0363 11.365 85.1509 12.333C86.2656 13.2863 86.8229 14.6063 86.8229 16.293V17.987ZM77.6489 16.051H84.3589C84.3589 15.0683 84.0509 14.313 83.4349 13.785C82.8189 13.257 82.0563 12.993 81.1469 12.993C80.2523 12.993 79.4456 13.2717 78.7269 13.829C78.0083 14.3717 77.6489 15.1123 77.6489 16.051Z" fill="white"/>
<path d="M92.4805 9.80299V14.027H99.3005V16.425H92.4805V22.761H89.8845V7.38299H100.137L100.115 9.80299H92.4805Z" fill="white"/>
<path d="M105.274 22.761H102.81V11.057H105.274V22.761ZM102.964 8.72499C102.656 8.41699 102.502 8.05032 102.502 7.62499C102.502 7.19966 102.656 6.83299 102.964 6.52499C103.272 6.21699 103.639 6.06299 104.064 6.06299C104.489 6.06299 104.856 6.21699 105.164 6.52499C105.472 6.83299 105.626 7.19966 105.626 7.62499C105.626 8.05032 105.472 8.41699 105.164 8.72499C104.856 9.03299 104.489 9.18699 104.064 9.18699C103.639 9.18699 103.272 9.03299 102.964 8.72499Z" fill="white"/>
<path d="M44.008 20.407C44.9027 20.407 45.6727 20.2603 46.318 19.967C46.9633 19.659 47.638 19.175 48.342 18.515L50.014 20.231C48.386 22.035 46.406 22.937 44.074 22.937C41.7567 22.937 39.828 22.189 38.288 20.693C36.7627 19.197 36 17.305 36 15.017C36 12.729 36.7773 10.8223 38.332 9.29699C39.9013 7.77166 41.874 7.00899 44.25 7.00899C46.6407 7.00899 48.6353 7.88899 50.234 9.64899L48.584 11.453C47.8507 10.749 47.154 10.2577 46.494 9.97899C45.8487 9.70032 45.086 9.56099 44.206 9.56099C42.6513 9.56099 41.346 10.067 40.29 11.079C39.234 12.0763 38.706 13.3597 38.706 14.929C38.706 16.4837 39.2267 17.789 40.268 18.845C41.324 19.8863 42.5707 20.407 44.008 20.407Z" stroke="white" stroke-width="0.5"/>
<path d="M55.5652 19.681C56.2692 20.385 57.1566 20.737 58.2272 20.737C59.2979 20.737 60.1779 20.385 60.8672 19.681C61.5712 18.9623 61.9232 18.0383 61.9232 16.909C61.9232 15.7797 61.5712 14.863 60.8672 14.159C60.1779 13.4403 59.2979 13.081 58.2272 13.081C57.1566 13.081 56.2692 13.4403 55.5652 14.159C54.8759 14.863 54.5312 15.7797 54.5312 16.909C54.5312 18.0383 54.8759 18.9623 55.5652 19.681ZM62.6272 21.199C61.4539 22.3577 59.9872 22.937 58.2272 22.937C56.4672 22.937 55.0006 22.3577 53.8272 21.199C52.6539 20.0257 52.0672 18.5957 52.0672 16.909C52.0672 15.2223 52.6539 13.7997 53.8272 12.641C55.0006 11.4677 56.4672 10.881 58.2272 10.881C59.9872 10.881 61.4539 11.4677 62.6272 12.641C63.8006 13.7997 64.3872 15.2223 64.3872 16.909C64.3872 18.5957 63.8006 20.0257 62.6272 21.199Z" stroke="white" stroke-width="0.5"/>
<path d="M73.3268 13.367C72.1094 13.367 71.1928 13.763 70.5768 14.555C69.9608 15.347 69.6528 16.4103 69.6528 17.745V22.761H67.1888V11.057H69.6528V13.411C70.0488 12.6777 70.5841 12.0763 71.2588 11.607C71.9481 11.1377 72.6741 10.8957 73.4368 10.881L73.4588 13.367C73.4148 13.367 73.3708 13.367 73.3268 13.367Z" stroke="white" stroke-width="0.5"/>
<path d="M86.8229 17.987H77.6489C77.7076 18.8377 78.0963 19.527 78.8149 20.055C79.5336 20.5683 80.3549 20.825 81.2789 20.825C82.7456 20.825 83.8603 20.363 84.6229 19.439L86.0309 20.979C84.7696 22.2843 83.1269 22.937 81.1029 22.937C79.4603 22.937 78.0596 22.3943 76.9009 21.309C75.7569 20.209 75.1849 18.7423 75.1849 16.909C75.1849 15.061 75.7716 13.5943 76.9449 12.509C78.1183 11.4237 79.4969 10.881 81.0809 10.881C82.6796 10.881 84.0363 11.365 85.1509 12.333C86.2656 13.2863 86.8229 14.6063 86.8229 16.293V17.987ZM77.6489 16.051H84.3589C84.3589 15.0683 84.0509 14.313 83.4349 13.785C82.8189 13.257 82.0563 12.993 81.1469 12.993C80.2523 12.993 79.4456 13.2717 78.7269 13.829C78.0083 14.3717 77.6489 15.1123 77.6489 16.051Z" stroke="white" stroke-width="0.5"/>
<path d="M92.4805 9.80299V14.027H99.3005V16.425H92.4805V22.761H89.8845V7.38299H100.137L100.115 9.80299H92.4805Z" stroke="white" stroke-width="0.5"/>
<path d="M105.274 22.761H102.81V11.057H105.274V22.761ZM102.964 8.72499C102.656 8.41699 102.502 8.05032 102.502 7.62499C102.502 7.19966 102.656 6.83299 102.964 6.52499C103.272 6.21699 103.639 6.06299 104.064 6.06299C104.489 6.06299 104.856 6.21699 105.164 6.52499C105.472 6.83299 105.626 7.19966 105.626 7.62499C105.626 8.05032 105.472 8.41699 105.164 8.72499C104.856 9.03299 104.489 9.18699 104.064 9.18699C103.639 9.18699 103.272 9.03299 102.964 8.72499Z" stroke="white" stroke-width="0.5"/>
<defs>
<clipPath id="clip0_184_3800">
<rect width="28" height="28" fill="white" transform="translate(0 0.5)"/>
</clipPath>
</defs>
</svg>
