<svg  viewBox="0 0 409 332" fill="none" xmlns="http://www.w3.org/2000/svg">
<g opacity="0.1">
<path d="M21.2166 117.09L0 104.844V129.335L21.2166 141.58L42.4332 129.335V104.844L21.2166 117.09Z" fill="#42E8E0"/>
<path d="M21.2166 141.58L0 129.335V104.844L21.2166 117.09V141.58Z" fill="#42E8E0"/>
<path d="M42.4334 129.335L21.2168 141.58V117.09L42.4334 104.844V129.335Z" fill="#2FD3C7"/>
<path d="M21.2166 117.09L0 104.844L21.2166 92.5991L42.4332 104.844L21.2166 117.09Z" fill="#42E8E0"/>
<path d="M21.2166 117.09L0 104.844V105.914L21.2166 118.145L42.4332 105.914V104.844L21.2166 117.09Z" fill="white"/>
</g>
<path opacity="0.4" d="M21.2166 102.24L0 89.9953L21.2166 77.7501L42.4332 90.0093L21.2166 102.24Z" fill="#03002D"/>
<path d="M21.2166 59.2133L0 46.9681V71.4586L21.2166 83.7038L42.4332 71.4586V46.9681L21.2166 59.2133Z" fill="#42E8E0"/>
<path d="M21.2166 83.7038L0 71.4586V46.9681L21.2166 59.2133V83.7038Z" fill="#42E8E0"/>
<path d="M42.4334 71.4586L21.2168 83.7038V59.2133L42.4334 46.9681V71.4586Z" fill="#2FD3C7"/>
<path d="M21.2166 59.2133L0 46.9681L21.2166 34.7229L42.4332 46.9681L21.2166 59.2133Z" fill="#42E8E0"/>
<path d="M21.2166 59.2133L0 46.9681V48.0238L21.2166 60.269L42.4332 48.0238V46.9681L21.2166 59.2133Z" fill="white"/>
<g opacity="0.1">
<path d="M93.0606 278.811C93.0606 279.388 93.0606 279.951 93.0606 280.528L116.417 300.064L154.247 314.139L180.883 308.157L206.366 300.88L232.327 280.894L233.003 280.359C233.085 278.755 233.005 277.147 232.763 275.559L246.532 257.262C248.526 259.782 250.227 262.521 251.601 265.425L254.628 262.99V279.782C254.262 293.026 245.364 306.215 227.878 316.377C192.132 337.095 134.114 337.194 98.3542 316.616C80.5728 306.398 71.6047 293.012 71.4639 279.585V279.022V262.456L74.716 265.172C75.5181 263.504 76.4305 261.891 77.4473 260.344C81.5724 267.311 85.6974 275.897 93.0606 278.811Z" fill="url(#paint0_linear_145_9728)"/>
<path d="M226.315 240.794C226.794 241.062 227.3 241.315 227.723 241.597C234.94 245.563 241.318 250.893 246.504 257.29L232.735 275.588C231.327 266.411 224.64 257.459 212.461 250.464C185.093 234.728 140.759 234.812 113.432 250.647C99.9587 258.458 93.1728 268.635 93.0038 278.797C85.697 275.897 81.5719 267.312 77.4609 260.415C81.2567 254.873 86.0269 250.066 91.5396 246.227L88.386 246.889C88.386 246.889 109.926 228.183 110.715 228C111.503 227.817 154.612 216.417 154.612 216.417L203.141 220.639L226.315 240.794Z" fill="url(#paint1_linear_145_9728)"/>
<path opacity="0.5" d="M161.859 308.594C200.534 308.52 231.852 290.362 231.809 268.037C231.766 245.712 200.379 227.674 161.704 227.748C123.029 227.822 91.7115 245.981 91.7544 268.306C91.7973 290.631 123.184 308.669 161.859 308.594Z" fill="url(#paint2_linear_145_9728)"/>
<path opacity="0.48" d="M161.742 313.493C200.417 313.419 231.735 295.26 231.692 272.935C231.649 250.61 200.262 232.572 161.587 232.646C122.912 232.721 91.5943 250.879 91.6372 273.204C91.6801 295.529 123.067 313.567 161.742 313.493Z" fill="url(#paint3_linear_145_9728)"/>
<path d="M227.752 225.227C191.935 204.636 133.917 204.748 98.2277 225.467C62.5382 246.185 62.5523 279.669 98.3685 300.261C134.185 320.853 192.203 320.74 227.892 300.022C263.582 279.303 263.582 245.735 227.752 225.227ZM212.49 234.066C239.873 249.802 239.916 275.391 212.603 291.225C185.29 307.059 140.956 307.144 113.573 291.408C86.1904 275.672 86.1481 250.084 113.475 234.249C140.802 218.415 185.121 218.26 212.49 233.996V234.066Z" fill="#BCBEFF"/>
<path d="M227.752 225.227C191.935 204.636 133.917 204.748 98.2277 225.467C62.5382 246.185 62.5523 279.669 98.3685 300.261C134.185 320.853 192.203 320.74 227.892 300.022C263.582 279.303 263.582 245.735 227.752 225.227ZM212.49 234.066C239.873 249.802 239.916 275.391 212.603 291.225C185.29 307.059 140.956 307.144 113.573 291.408C86.1904 275.672 86.1481 250.084 113.475 234.249C140.802 218.415 185.121 218.26 212.49 233.996V234.066Z" fill="#BCBEFF"/>
<path d="M97.847 298.783C133.663 319.375 191.682 319.262 227.371 298.544C249.376 285.792 257.781 268.198 252.713 251.759C258.766 268.649 250.516 286.833 227.878 299.951C192.132 320.67 134.114 320.782 98.3539 300.191C84.5849 292.28 76.1236 282.456 72.9277 272.181C76.3911 281.935 84.6975 291.225 97.847 298.783Z" fill="white"/>
<path d="M112.996 232.786C140.322 216.951 184.656 216.867 212.025 232.589C222.626 238.683 229.117 246.269 231.51 254.18C228.807 246.776 222.471 239.739 212.49 233.996C185.121 218.26 140.787 218.345 113.474 234.179C96.7347 243.891 90.2866 257.248 94.0879 269.761C89.3434 256.854 95.6365 242.849 112.996 232.786Z" fill="white"/>
</g>
<path style="mix-blend-mode:lighten" opacity="0.2" d="M161.651 323.048C250.229 323.048 322.035 281.603 322.035 230.477C322.035 179.352 250.229 137.906 161.651 137.906C73.0732 137.906 1.2666 179.352 1.2666 230.477C1.2666 281.603 73.0732 323.048 161.651 323.048Z" fill="url(#paint4_radial_145_9728)"/>
<path style="mix-blend-mode:lighten" opacity="0.2" d="M161.652 152.066C234.399 152.066 293.372 118.025 293.372 76.0329C293.372 34.0411 234.399 0 161.652 0C88.9048 0 29.9316 34.0411 29.9316 76.0329C29.9316 118.025 88.9048 152.066 161.652 152.066Z" fill="url(#paint5_radial_145_9728)"/>
<path d="M93.0606 216.374C93.0606 216.937 93.0606 217.514 93.0606 218.091L116.417 237.613L154.247 251.688L180.883 245.721L206.366 238.444L232.327 218.457L233.003 217.922C233.085 216.314 233.004 214.701 232.763 213.109L246.532 194.811C248.529 197.329 250.23 200.068 251.601 202.975L254.628 200.54V217.331C254.262 230.562 245.364 243.75 227.878 253.926C192.132 274.645 134.114 274.757 98.3542 254.165C80.5728 243.961 71.6047 230.576 71.4639 217.134V216.571V199.991L74.716 202.722C75.515 201.052 76.4276 199.439 77.4473 197.894C81.5724 204.875 85.6974 213.433 93.0606 216.374Z" fill="url(#paint6_linear_145_9728)"/>
<path d="M226.315 178.344L227.722 179.146C234.94 183.118 241.319 188.452 246.503 194.854L232.734 213.151C231.327 203.988 224.639 195.037 212.461 188.041C185.092 172.306 140.758 172.39 113.432 188.224C99.9584 196.036 93.1724 206.212 93.0035 216.374C85.584 213.433 81.5153 204.875 77.4043 197.908C81.1962 192.363 85.967 187.555 91.483 183.72L88.3294 184.368C88.3294 184.368 109.87 165.676 110.658 165.493C111.447 165.31 154.556 153.896 154.556 153.896L203.085 158.118L226.315 178.344Z" fill="url(#paint7_linear_145_9728)"/>
<path opacity="0.5" d="M161.851 246.158C200.526 246.084 231.844 227.926 231.801 205.6C231.758 183.275 200.371 165.237 161.696 165.312C123.021 165.386 91.7037 183.544 91.7466 205.869C91.7894 228.194 123.176 246.232 161.851 246.158Z" fill="url(#paint8_linear_145_9728)"/>
<path opacity="0.48" d="M161.734 251.056C200.409 250.982 231.727 232.824 231.684 210.499C231.641 188.174 200.254 170.136 161.579 170.21C122.904 170.284 91.5865 188.443 91.6294 210.768C91.6723 233.093 123.059 251.131 161.734 251.056Z" fill="url(#paint9_linear_145_9728)"/>
<path d="M227.751 162.706C191.934 142.129 133.916 142.227 98.2267 162.96C62.5372 183.692 62.5513 217.162 98.3675 237.754C134.184 258.346 192.202 258.219 227.891 237.501C263.581 216.782 263.581 183.298 227.751 162.706ZM212.489 171.56C239.872 187.295 239.915 212.884 212.602 228.718C185.289 244.552 140.956 244.637 113.572 228.901C86.1894 213.165 86.1472 187.577 113.474 171.743C140.801 155.908 185.12 155.824 212.489 171.56Z" fill="#BCBEFF"/>
<path d="M227.751 162.706C191.934 142.129 133.916 142.227 98.2267 162.96C62.5372 183.692 62.5513 217.162 98.3675 237.754C134.184 258.346 192.202 258.219 227.891 237.501C263.581 216.782 263.581 183.298 227.751 162.706ZM212.489 171.56C239.872 187.295 239.915 212.884 212.602 228.718C185.289 244.552 140.956 244.637 113.572 228.901C86.1894 213.165 86.1472 187.577 113.474 171.743C140.801 155.908 185.12 155.824 212.489 171.56Z" fill="#BCBEFF"/>
<path d="M97.847 236.347C133.663 256.924 191.682 256.826 227.371 236.107C249.376 223.341 257.781 205.762 252.713 189.322C258.766 206.212 250.516 224.383 227.878 237.501C192.132 258.233 134.114 258.332 98.3539 237.754C84.5849 229.83 76.1236 220.006 72.9277 209.745C76.3911 219.499 84.6975 228.788 97.847 236.347Z" fill="white"/>
<path d="M112.996 170.335C140.322 154.501 184.656 154.416 212.025 170.152C222.626 176.247 229.117 183.819 231.51 191.743C228.807 184.34 222.471 177.288 212.49 171.56C185.121 155.824 140.787 155.908 113.474 171.743C96.7347 181.44 90.2866 194.797 94.0879 207.31C89.3434 194.403 95.6365 180.399 112.996 170.335Z" fill="white"/>
<path opacity="0.5" d="M163.413 208.66C214.147 208.562 255.23 184.745 255.174 155.463C255.118 126.181 213.944 102.522 163.209 102.619C112.474 102.716 71.3913 126.533 71.4475 155.816C71.5038 185.098 112.678 208.757 163.413 208.66Z" fill="#1BC9BC"/>
<path d="M162.356 139.736L143.758 129.011V150.475L162.356 161.2L180.94 150.475V129.011L162.356 139.736Z" fill="#42E8E0"/>
<path d="M162.356 161.2L143.758 150.475V129.011L162.356 139.736V161.2Z" fill="#42E8E0"/>
<path d="M180.939 150.475L162.355 161.2V139.736L180.939 129.011V150.475Z" fill="#2FD3C7"/>
<path d="M162.356 139.736L143.758 129.011L162.356 118.286L180.94 129.011L162.356 139.736Z" fill="#42E8E0"/>
<path d="M162.356 139.736L144.574 129.475L143.758 129.94L162.356 140.665L180.94 129.94L180.137 129.475L162.356 139.736Z" fill="white"/>
<path d="M186.501 153.515L167.917 142.776V164.241L186.501 174.966L205.085 164.241V142.776L186.501 153.515Z" fill="#42E8E0"/>
<path d="M186.501 174.966L167.917 164.241V142.776L186.501 153.515V174.966Z" fill="#42E8E0"/>
<path d="M205.084 164.241L186.5 174.966V153.515L205.084 142.776V164.241Z" fill="#2FD3C7"/>
<path d="M186.501 153.516L167.917 142.776L186.501 132.051L205.085 142.79L186.501 153.516Z" fill="#42E8E0"/>
<path d="M186.501 153.516L168.719 143.255L167.917 143.719L186.501 154.444L205.085 143.719L204.282 143.255L186.501 153.516Z" fill="white"/>
<path d="M210.646 167.281L192.048 156.556V178.02L210.646 188.745L229.23 178.02V156.556L210.646 167.281Z" fill="#42E8E0"/>
<path d="M210.646 188.745L192.048 178.02V156.556L210.646 167.281V188.745Z" fill="#42E8E0"/>
<path d="M229.229 178.02L210.646 188.745V167.281L229.229 156.556V178.02Z" fill="#2FD3C7"/>
<path d="M210.646 167.281L192.048 156.556L210.646 145.831L229.23 156.556L210.646 167.281Z" fill="#42E8E0"/>
<path d="M210.646 167.281L192.864 157.02L192.048 157.485L210.646 168.224L229.23 157.485V156.556L210.646 167.281Z" fill="white"/>
<path d="M138.21 154.444L119.612 143.719V165.17L138.21 175.909L156.794 165.17V143.719L138.21 154.444Z" fill="#42E8E0"/>
<path d="M138.21 175.909L119.612 165.17V143.719L138.21 154.444V175.909Z" fill="#42E8E0"/>
<path d="M156.795 165.17L138.211 175.909V154.444L156.795 143.719V165.17Z" fill="#2FD3C7"/>
<path d="M138.21 154.444L119.612 143.719L138.21 132.98L156.794 143.719L138.21 154.444Z" fill="#42E8E0"/>
<path d="M138.21 154.444L120.429 144.184L119.612 144.648L138.21 155.373L156.794 144.648L155.992 144.184L138.21 154.444Z" fill="white"/>
<path d="M162.356 168.224L143.758 157.485V178.949L162.356 189.674L180.94 178.949V157.485L162.356 168.224Z" fill="#42E8E0"/>
<path d="M162.356 189.674L143.758 178.949V157.485L162.356 168.224V189.674Z" fill="#42E8E0"/>
<path d="M180.939 178.949L162.355 189.674V168.224L180.939 157.485V178.949Z" fill="#2FD3C7"/>
<path d="M162.356 168.224L143.758 157.485L162.356 146.76L180.94 157.485L162.356 168.224Z" fill="#42E8E0"/>
<path d="M162.356 168.224L144.574 157.949L143.758 158.414L162.356 169.153L180.94 158.414L180.137 157.949L162.356 168.224Z" fill="white"/>
<path d="M186.501 181.989L167.917 171.264V192.714L186.501 203.453L205.085 192.714V171.264L186.501 181.989Z" fill="#42E8E0"/>
<path d="M186.501 203.453L167.917 192.714V171.264L186.501 181.989V203.453Z" fill="#42E8E0"/>
<path d="M205.084 192.714L186.5 203.453V181.989L205.084 171.264V192.714Z" fill="#2FD3C7"/>
<path d="M186.501 181.989L167.917 171.264L186.501 160.539L205.085 171.264L186.501 181.989Z" fill="#42E8E0"/>
<path d="M186.501 181.989L168.719 171.729L167.917 172.193L186.501 182.918L205.085 172.193V171.264L186.501 181.989Z" fill="white"/>
<path d="M114.066 169.153L95.4678 158.414V179.878L114.066 190.603L132.65 179.878V158.414L114.066 169.153Z" fill="#42E8E0"/>
<path d="M114.066 190.603L95.4678 179.878V158.414L114.066 169.153V190.603Z" fill="#42E8E0"/>
<path d="M132.649 179.878L114.065 190.603V169.153L132.649 158.414V179.878Z" fill="#2FD3C7"/>
<path d="M114.066 169.153L95.4678 158.414L114.066 147.688L132.65 158.414L114.066 169.153Z" fill="#42E8E0"/>
<path d="M114.066 169.153L95.4678 158.414V159.357L114.066 170.082L132.65 159.357L131.847 158.892L114.066 169.153Z" fill="white"/>
<path d="M138.21 182.918L119.612 172.193V193.657L138.21 204.382L156.794 193.657V172.193L138.21 182.918Z" fill="#42E8E0"/>
<path d="M138.21 204.382L119.612 193.657V172.193L138.21 182.918V204.382Z" fill="#42E8E0"/>
<path d="M156.795 193.657L138.211 204.382V182.918L156.795 172.193V193.657Z" fill="#2FD3C7"/>
<path d="M138.21 182.918L119.612 172.193L138.21 161.468L156.794 172.193L138.21 182.918Z" fill="#42E8E0"/>
<path d="M138.21 182.918L119.612 172.193V173.122L138.21 183.847L156.794 173.122L155.992 172.657L138.21 182.918Z" fill="white"/>
<path d="M162.356 196.697L143.758 185.972V207.423L162.356 218.148L180.94 207.423V185.972L162.356 196.697Z" fill="#42E8E0"/>
<path d="M162.356 218.148L143.758 207.423V185.972L162.356 196.697V218.148Z" fill="#42E8E0"/>
<path d="M180.939 207.423L162.355 218.148V196.697L180.939 185.972V207.423Z" fill="#2FD3C7"/>
<path d="M162.356 196.697L143.758 185.972L162.356 175.233L180.94 185.972L162.356 196.697Z" fill="#42E8E0"/>
<path d="M162.356 196.697L143.758 185.972V186.901L162.356 197.626L180.94 186.901V185.972L162.356 196.697Z" fill="white"/>
<path d="M162.356 111.263L143.758 100.537V121.988L162.356 132.727L180.94 121.988V100.537L162.356 111.263Z" fill="#42E8E0"/>
<path d="M162.356 132.727L143.758 121.988V100.537L162.356 111.263V132.727Z" fill="#42E8E0"/>
<path d="M180.939 121.988L162.355 132.727V111.263L180.939 100.537V121.988Z" fill="#2FD3C7"/>
<path d="M162.356 111.263L143.758 100.537L162.356 89.7982L180.94 100.537L162.356 111.263Z" fill="#42E8E0"/>
<path d="M162.356 111.263L144.574 101.002L143.758 101.466L162.356 112.191L180.94 101.466L180.137 101.002L162.356 111.263Z" fill="white"/>
<path opacity="0.7" d="M162.356 193.207L149.671 185.874L162.356 178.555L175.027 185.874L162.356 193.207Z" fill="#18B2A3"/>
<path opacity="0.7" d="M138.21 179.428L125.525 172.109L138.21 164.79L150.881 172.109L138.21 179.428Z" fill="#18B2A3"/>
<path opacity="0.7" d="M186.5 178.499L173.815 171.18L186.5 163.861L199.171 171.18L186.5 178.499Z" fill="#18B2A3"/>
<path opacity="0.7" d="M210.687 163.959L198.017 156.64L210.687 149.321L223.372 156.64L210.687 163.959Z" fill="#18B2A3"/>
<path opacity="0.7" d="M114.066 165.648L101.381 158.329L114.066 151.01L126.737 158.329L114.066 165.648Z" fill="#18B2A3"/>
<path d="M186.501 125.042L167.917 114.303V135.767L186.501 146.492L205.085 135.767V114.303L186.501 125.042Z" fill="#42E8E0"/>
<path d="M186.501 146.492L167.917 135.767V114.303L186.501 125.042V146.492Z" fill="#42E8E0"/>
<path d="M205.084 135.767L186.5 146.492V125.042L205.084 114.303V135.767Z" fill="#2FD3C7"/>
<path d="M186.501 125.042L167.917 114.303L186.501 103.578L205.085 114.303L186.501 125.042Z" fill="#42E8E0"/>
<path d="M186.501 125.042L168.719 114.767L167.917 115.232L186.501 125.971L205.085 115.232L204.282 114.767L186.501 125.042Z" fill="white"/>
<path d="M210.646 138.807L192.048 128.082V149.532L210.646 160.272L229.23 149.532V128.082L210.646 138.807Z" fill="#42E8E0"/>
<path d="M210.646 160.272L192.048 149.532V128.082L210.646 138.807V160.272Z" fill="#42E8E0"/>
<path d="M229.229 149.532L210.646 160.272V138.807L229.229 128.082V149.532Z" fill="#2FD3C7"/>
<path d="M210.646 138.807L192.048 128.082L210.646 117.357L229.23 128.082L210.646 138.807Z" fill="#42E8E0"/>
<path d="M210.646 138.807L192.864 128.547L192.048 129.011L210.646 139.736L229.23 129.011V128.082L210.646 138.807Z" fill="white"/>
<path d="M138.21 125.971L119.612 115.232V136.696L138.21 147.421L156.794 136.696V115.232L138.21 125.971Z" fill="#42E8E0"/>
<path d="M138.21 147.421L119.612 136.696V115.232L138.21 125.971V147.421Z" fill="#42E8E0"/>
<path d="M156.795 136.696L138.211 147.421V125.971L156.795 115.232V136.696Z" fill="#2FD3C7"/>
<path d="M138.21 125.971L119.612 115.232L138.21 104.507L156.794 115.232L138.21 125.971Z" fill="#42E8E0"/>
<path d="M138.21 125.971L120.429 115.696L119.612 116.161L138.21 126.9L156.794 116.175L155.992 115.696L138.21 125.971Z" fill="white"/>
<path d="M162.356 139.736L143.758 129.011V150.475L162.356 161.2L180.94 150.475V129.011L162.356 139.736Z" fill="#42E8E0"/>
<path d="M162.356 161.2L143.758 150.475V129.011L162.356 139.736V161.2Z" fill="#42E8E0"/>
<path d="M180.939 150.475L162.355 161.2V139.736L180.939 129.011V150.475Z" fill="#2FD3C7"/>
<path d="M162.356 139.736L143.758 129.011L162.356 118.286L180.94 129.011L162.356 139.736Z" fill="#42E8E0"/>
<path d="M162.356 139.736L144.574 129.475L143.758 129.94L162.356 140.665L180.94 129.94L180.137 129.475L162.356 139.736Z" fill="white"/>
<path d="M186.501 153.516L167.917 142.79V164.241L186.501 174.966L205.085 164.241V142.79L186.501 153.516Z" fill="#42E8E0"/>
<path d="M186.501 174.966L167.917 164.241V142.79L186.501 153.516V174.966Z" fill="#42E8E0"/>
<path d="M205.084 164.241L186.5 174.966V153.516L205.084 142.79V164.241Z" fill="#2FD3C7"/>
<path d="M186.501 153.516L167.917 142.79L186.501 132.051L205.085 142.79L186.501 153.516Z" fill="#42E8E0"/>
<path d="M186.501 153.516L168.719 143.255L167.917 143.719L186.501 154.444L205.085 143.719V142.79L186.501 153.516Z" fill="white"/>
<path d="M114.066 140.665L95.4678 129.94V151.404L114.066 162.129L132.65 151.404V129.94L114.066 140.665Z" fill="#42E8E0"/>
<path d="M114.066 162.129L95.4678 151.404V129.94L114.066 140.665V162.129Z" fill="#42E8E0"/>
<path d="M132.649 151.404L114.065 162.129V140.665L132.649 129.94V151.404Z" fill="#2FD3C7"/>
<path d="M114.066 140.665L95.4678 129.94L114.066 119.215L132.65 129.94L114.066 140.665Z" fill="#42E8E0"/>
<path d="M114.066 140.665L96.2843 130.404L95.4678 130.869L114.066 141.608L132.65 130.869L131.847 130.404L114.066 140.665Z" fill="white"/>
<path d="M138.21 154.444L119.612 143.719V165.17L138.21 175.909L156.794 165.17V143.719L138.21 154.444Z" fill="#42E8E0"/>
<path d="M138.21 175.909L119.612 165.17V143.719L138.21 154.444V175.909Z" fill="#42E8E0"/>
<path d="M156.795 165.17L138.211 175.909V154.444L156.795 143.719V165.17Z" fill="#2FD3C7"/>
<path d="M138.21 154.444L119.612 143.719L138.21 132.98L156.794 143.719L138.21 154.444Z" fill="#42E8E0"/>
<path d="M138.21 154.444L119.612 143.719V144.648L138.21 155.373L156.794 144.648L155.992 144.184L138.21 154.444Z" fill="white"/>
<path d="M162.356 168.224L143.758 157.485V178.949L162.356 189.674L180.94 178.949V157.485L162.356 168.224Z" fill="#42E8E0"/>
<path d="M162.356 189.674L143.758 178.949V157.485L162.356 168.224V189.674Z" fill="#42E8E0"/>
<path d="M180.939 178.949L162.355 189.674V168.224L180.939 157.485V178.949Z" fill="#2FD3C7"/>
<path d="M162.356 168.224L143.758 157.485L162.356 146.76L180.94 157.485L162.356 168.224Z" fill="#42E8E0"/>
<path d="M162.356 168.224L143.758 157.485V158.414L162.356 169.153L180.94 158.414V157.485L162.356 168.224Z" fill="white"/>
<path opacity="0.7" d="M210.687 135.612L198.017 128.293L210.687 120.974L223.372 128.293L210.687 135.612Z" fill="#18B2A3"/>
<path opacity="0.7" d="M114.066 137.301L101.381 129.982L114.066 122.663L126.737 129.982L114.066 137.301Z" fill="#18B2A3"/>
<path d="M162.356 82.7889L143.758 72.0497V93.514L162.356 104.239L180.94 93.514V72.0497L162.356 82.7889Z" fill="#42E8E0"/>
<path d="M162.356 104.239L143.758 93.514V72.0497L162.356 82.7889V104.239Z" fill="#42E8E0"/>
<path d="M180.939 93.514L162.355 104.239V82.7889L180.939 72.0497V93.514Z" fill="#2FD3C7"/>
<path d="M162.356 82.7889L143.758 72.0497L162.356 61.3246L180.94 72.0638L162.356 82.7889Z" fill="#42E8E0"/>
<path d="M162.356 82.7889L143.758 72.0497V72.9927L162.356 83.7178L180.94 72.9927V72.0497L162.356 82.7889Z" fill="white"/>
<path d="M186.501 96.5542L167.917 85.829V107.293L186.501 118.018L205.085 107.293V85.829L186.501 96.5542Z" fill="#42E8E0"/>
<path d="M186.501 118.018L167.917 107.293V85.829L186.501 96.5542V118.018Z" fill="#42E8E0"/>
<path d="M205.084 107.293L186.5 118.018V96.5542L205.084 85.829V107.293Z" fill="#2FD3C7"/>
<path d="M186.501 96.5542L167.917 85.8291L186.501 75.1039L205.085 85.8291L186.501 96.5542Z" fill="#42E8E0"/>
<path d="M186.501 96.5542L167.917 85.829V86.758L186.501 97.4831L205.085 86.758V85.829L186.501 96.5542Z" fill="white"/>
<path d="M210.646 110.334L192.048 99.6085V121.059L210.646 131.798L229.23 121.059V99.6085L210.646 110.334Z" fill="#42E8E0"/>
<path d="M210.646 131.798L192.048 121.059V99.6085L210.646 110.334V131.798Z" fill="#42E8E0"/>
<path d="M229.229 121.059L210.646 131.798V110.334L229.229 99.6085V121.059Z" fill="#2FD3C7"/>
<path d="M210.646 110.334L192.048 99.6084L210.646 88.8693L229.23 99.6084L210.646 110.334Z" fill="#42E8E0"/>
<path d="M210.646 110.334L192.048 99.6085V100.537L210.646 111.263L229.23 100.537V99.6085L210.646 110.334Z" fill="white"/>
<path d="M138.21 97.4972L119.612 86.758V108.222L138.21 118.947L156.794 108.222V86.758L138.21 97.4972Z" fill="#42E8E0"/>
<path d="M138.21 118.947L119.612 108.222V86.758L138.21 97.4972V118.947Z" fill="#42E8E0"/>
<path d="M156.795 108.222L138.211 118.947V97.4972L156.795 86.758V108.222Z" fill="#2FD3C7"/>
<path d="M138.21 97.4972L119.612 86.758L138.21 76.0329L156.794 86.758L138.21 97.4972Z" fill="#42E8E0"/>
<path d="M138.21 97.4972L119.612 86.758V87.6869L138.21 98.4261L156.794 87.6869V86.758L138.21 97.4972Z" fill="white"/>
<path d="M114.066 112.191L95.4678 101.466V122.917L114.066 133.656L132.65 122.917V101.466L114.066 112.191Z" fill="#42E8E0"/>
<path d="M114.066 133.656L95.4678 122.917V101.466L114.066 112.191V133.656Z" fill="#42E8E0"/>
<path d="M132.649 122.917L114.065 133.656V112.191L132.649 101.466V122.917Z" fill="#2FD3C7"/>
<path d="M114.066 112.191L95.4678 101.466L114.066 90.7412L132.65 101.466L114.066 112.191Z" fill="#42E8E0"/>
<path d="M114.066 112.191L95.4678 101.466V102.395L114.066 113.12L132.65 102.395V101.466L114.066 112.191Z" fill="white"/>
<path style="mix-blend-mode:lighten" opacity="0.48" d="M254.641 87.9966L209.589 111.22L153.077 131.756L98.3676 108.968L71.4069 85.8854V200.061C71.2661 213.728 80.2202 227.409 98.2972 237.81C134.113 258.388 192.132 258.275 227.821 237.557C245.715 227.184 254.641 213.63 254.571 200.061L254.641 87.9966Z" fill="url(#paint10_linear_145_9728)"/>
<path style="mix-blend-mode:lighten" opacity="0.48" d="M71.4072 87.9966L116.459 111.263L172.985 131.798L227.723 108.968L254.641 85.8854V200.061C254.796 213.728 245.842 227.409 227.751 237.81C191.935 258.388 133.917 258.275 98.2271 237.557C80.3331 227.184 71.4776 213.63 71.4776 200.061L71.4072 87.9966Z" fill="url(#paint11_linear_145_9728)"/>
<path opacity="0.5" d="M227.765 193.305C191.948 213.897 133.93 213.784 98.2407 193.066C80.3467 182.693 71.4912 169.139 71.4912 155.57V200.005C71.4912 213.559 80.3608 227.128 98.2407 237.501C133.987 258.219 192.005 258.332 227.765 237.754C245.856 227.353 254.81 213.672 254.655 200.005V155.57C254.81 169.237 245.856 182.918 227.765 193.305Z" fill="#42E8E0"/>
<path d="M93.0602 87.5884C93.0602 88.1655 93.0602 88.7285 93.0602 89.3056L116.417 108.842L154.246 122.917L180.883 116.935L206.365 109.658L232.327 89.6715L233.002 89.1367C233.085 87.5328 233.004 85.9248 232.763 84.3371L246.532 66.0397C248.526 68.5597 250.226 71.2985 251.6 74.2031L254.641 71.8104V88.6018C254.275 101.846 245.378 115.035 227.892 125.197C192.146 145.915 134.128 146.014 98.3678 125.436C80.5864 115.218 71.6183 101.832 71.4775 88.4048V87.8418V71.2756L74.7297 73.992C75.5318 72.3239 76.4442 70.711 77.461 69.1643C81.5719 76.0329 85.697 84.6468 93.0602 87.5884Z" fill="url(#paint12_linear_145_9728)"/>
<path d="M226.315 49.572C226.793 49.8394 227.3 50.0928 227.722 50.3743C234.94 54.3411 241.318 59.6709 246.503 66.0679L232.734 84.3653C231.327 75.1884 224.639 66.2368 212.461 59.2415C185.092 43.5057 140.758 43.5902 113.432 59.4245C99.9584 67.2361 93.1724 77.4123 93.0035 87.5744C85.584 84.6327 81.5153 76.0751 77.4043 69.108C81.2 63.5663 85.9702 58.7593 91.483 54.9205L88.3294 55.582C88.3294 55.582 109.87 36.8764 110.658 36.6934C111.447 36.5105 154.556 25.1097 154.556 25.1097L203.085 29.3322L226.315 49.572Z" fill="url(#paint13_linear_145_9728)"/>
<path opacity="0.5" d="M161.844 117.373C200.519 117.298 231.836 99.14 231.793 76.8149C231.75 54.4898 200.363 36.4519 161.688 36.5261C123.013 36.6003 91.6959 54.7586 91.7388 77.0837C91.7816 99.4088 123.169 117.447 161.844 117.373Z" fill="url(#paint14_linear_145_9728)"/>
<path opacity="0.48" d="M161.328 122.79C200.003 122.79 231.356 104.692 231.356 82.3666C231.356 60.0415 200.003 41.9434 161.328 41.9434C122.653 41.9434 91.3008 60.0415 91.3008 82.3666C91.3008 104.692 122.653 122.79 161.328 122.79Z" fill="url(#paint15_linear_145_9728)"/>
<path d="M227.751 33.9347C191.934 13.343 133.916 13.4556 98.2267 34.174C62.5372 54.8923 62.5513 88.3766 98.3675 108.968C134.184 129.56 192.202 129.447 227.891 108.729C263.581 88.0107 263.581 54.5123 227.751 33.9347ZM212.489 42.7738C239.872 58.5096 239.915 84.0978 212.602 99.9321C185.289 115.766 140.956 115.851 113.572 100.115C86.1894 84.3793 86.1472 58.7911 113.474 42.9567C140.801 27.1224 185.12 27.038 212.489 42.7738Z" fill="#BCBEFF"/>
<path d="M227.751 33.9347C191.934 13.343 133.916 13.4556 98.2267 34.174C62.5372 54.8923 62.5513 88.3766 98.3675 108.968C134.184 129.56 192.202 129.447 227.891 108.729C263.581 88.0107 263.581 54.5123 227.751 33.9347ZM212.489 42.7738C239.872 58.5096 239.915 84.0978 212.602 99.9321C185.289 115.766 140.956 115.851 113.572 100.115C86.1894 84.3793 86.1472 58.7911 113.474 42.9567C140.801 27.1224 185.12 27.038 212.489 42.7738Z" fill="#BCBEFF"/>
<path d="M97.847 107.561C133.663 128.152 191.682 128.04 227.371 107.322C249.376 94.5696 257.781 76.9759 252.713 60.5364C258.766 77.4263 250.516 95.6112 227.878 108.729C192.132 129.447 134.114 129.56 98.3539 108.968C84.5849 101.058 76.1236 91.2339 72.9277 80.9591C76.3911 90.7131 84.6975 99.9603 97.847 107.561Z" fill="white"/>
<path d="M112.996 41.5633C140.322 25.729 184.656 25.6445 212.025 41.3663C222.626 47.4607 229.117 55.0471 231.51 62.9572C228.807 55.5538 222.471 48.5163 212.49 42.7738C185.121 27.038 140.787 27.1224 113.474 42.9567C96.7347 52.6685 90.2866 66.0256 94.0879 78.5382C89.3434 65.6315 95.6365 51.6269 112.996 41.5633Z" fill="white"/>
<path opacity="0.5" d="M228.329 190.814C192.498 211.589 134.325 211.701 98.4105 191.053C80.9248 181.004 71.9707 167.886 71.492 154.67C70.9852 168.632 79.9392 182.665 98.4105 193.277C134.325 213.911 192.498 213.799 228.329 193.024C246.715 182.369 255.627 168.35 255.078 154.43C254.642 167.605 245.744 180.722 228.329 190.814Z" fill="#99FFF7"/>
<path opacity="0.8" d="M262.864 278.881C262.864 280.295 262.444 281.678 261.658 282.854C260.872 284.029 259.755 284.946 258.449 285.487C257.142 286.028 255.704 286.17 254.316 285.894C252.929 285.618 251.655 284.937 250.654 283.937C249.654 282.937 248.973 281.663 248.697 280.276C248.421 278.889 248.563 277.451 249.104 276.145C249.645 274.838 250.562 273.722 251.738 272.936C252.914 272.15 254.297 271.731 255.712 271.731C257.608 271.731 259.428 272.484 260.769 273.825C262.11 275.166 262.864 276.985 262.864 278.881Z" fill="#42E8E0"/>
<path opacity="0.8" d="M260.653 264.44C263.615 264.44 266.017 262.039 266.017 259.078C266.017 256.116 263.615 253.715 260.653 253.715C257.691 253.715 255.289 256.116 255.289 259.078C255.289 262.039 257.691 264.44 260.653 264.44Z" fill="#42E8E0"/>
<path opacity="0.8" d="M279.279 256.783C279.282 257.461 279.083 258.124 278.708 258.689C278.333 259.254 277.799 259.694 277.173 259.955C276.548 260.215 275.859 260.284 275.194 260.153C274.529 260.021 273.918 259.695 273.439 259.216C272.959 258.737 272.633 258.126 272.502 257.461C272.37 256.797 272.439 256.108 272.7 255.482C272.96 254.857 273.401 254.323 273.966 253.948C274.531 253.573 275.194 253.375 275.872 253.377C276.775 253.377 277.642 253.736 278.281 254.375C278.92 255.014 279.279 255.88 279.279 256.783Z" fill="#42E8E0"/>
<path opacity="0.8" d="M292.654 249.605C293.026 249.852 293.317 250.203 293.489 250.614C293.661 251.026 293.707 251.48 293.621 251.917C293.535 252.355 293.321 252.758 293.006 253.074C292.69 253.389 292.288 253.605 291.851 253.692C291.413 253.779 290.959 253.734 290.547 253.563C290.135 253.392 289.783 253.102 289.535 252.731C289.288 252.359 289.157 251.923 289.158 251.477C289.16 251.03 289.293 250.595 289.543 250.225C289.875 249.732 290.388 249.39 290.971 249.274C291.554 249.158 292.159 249.277 292.654 249.605Z" fill="#42E8E0"/>
<path opacity="0.8" d="M299.172 239.753C299.689 240.094 300.092 240.58 300.332 241.151C300.571 241.721 300.636 242.35 300.518 242.957C300.399 243.564 300.104 244.123 299.668 244.562C299.232 245.001 298.675 245.3 298.068 245.423C297.462 245.545 296.833 245.485 296.26 245.25C295.688 245.014 295.199 244.614 294.854 244.1C294.509 243.587 294.325 242.982 294.324 242.364C294.324 241.745 294.507 241.14 294.85 240.625C295.076 240.284 295.367 239.99 295.707 239.761C296.047 239.532 296.428 239.373 296.83 239.292C297.231 239.21 297.645 239.209 298.047 239.289C298.449 239.368 298.831 239.526 299.172 239.753Z" fill="#42E8E0"/>
<path opacity="0.8" d="M293.02 232.617C293.655 233.04 294.15 233.642 294.442 234.346C294.735 235.05 294.812 235.826 294.664 236.574C294.516 237.322 294.149 238.01 293.611 238.55C293.072 239.089 292.385 239.457 291.637 239.607C290.888 239.757 290.113 239.681 289.408 239.39C288.702 239.099 288.099 238.605 287.675 237.971C287.25 237.338 287.023 236.592 287.022 235.83C287.022 235.067 287.247 234.321 287.67 233.686C288.24 232.838 289.122 232.25 290.125 232.049C291.127 231.849 292.168 232.053 293.02 232.617Z" fill="#42E8E0"/>
<path opacity="0.8" d="M64.7057 93.9644C68.6556 93.9644 71.8577 90.7632 71.8577 86.8143C71.8577 82.8654 68.6556 79.6642 64.7057 79.6642C60.7558 79.6642 57.5537 82.8654 57.5537 86.8143C57.5537 90.7632 60.7558 93.9644 64.7057 93.9644Z" fill="#42E8E0"/>
<path opacity="0.8" d="M42.8979 93.1762C45.5571 93.1762 47.7128 91.0211 47.7128 88.3626C47.7128 85.7041 45.5571 83.549 42.8979 83.549C40.2387 83.549 38.083 85.7041 38.083 88.3626C38.083 91.0211 40.2387 93.1762 42.8979 93.1762Z" fill="#42E8E0"/>
<path opacity="0.8" d="M50.4998 102.677C50.4998 103.532 50.2459 104.368 49.7704 105.079C49.2948 105.79 48.619 106.344 47.8284 106.67C47.0378 106.997 46.168 107.082 45.3292 106.914C44.4904 106.746 43.7203 106.333 43.1164 105.727C42.5125 105.121 42.102 104.35 41.9368 103.511C41.7716 102.672 41.8592 101.803 42.1885 101.013C42.5178 100.224 43.074 99.5502 43.7866 99.0771C44.4992 98.604 45.3363 98.353 46.1917 98.3557C46.7586 98.3557 47.32 98.4676 47.8436 98.6849C48.3672 98.9023 48.8427 99.2207 49.243 99.6222C49.6432 100.024 49.9602 100.5 50.1759 101.024C50.3916 101.548 50.5016 102.11 50.4998 102.677Z" fill="#42E8E0"/>
<path opacity="0.8" d="M45.193 112.867C45.193 113.424 45.0279 113.968 44.7185 114.431C44.4091 114.894 43.9693 115.255 43.4548 115.468C42.9403 115.681 42.3741 115.737 41.8279 115.628C41.2817 115.519 40.78 115.251 40.3862 114.858C39.9924 114.464 39.7243 113.962 39.6156 113.416C39.507 112.87 39.5627 112.304 39.7759 111.79C39.989 111.275 40.3499 110.836 40.8129 110.526C41.276 110.217 41.8204 110.052 42.3773 110.052C43.124 110.052 43.8402 110.349 44.3683 110.877C44.8963 111.404 45.193 112.12 45.193 112.867Z" fill="#42E8E0"/>
<path opacity="0.8" d="M29.8331 112.937C30.2381 113.05 30.6006 113.281 30.8746 113.599C31.1487 113.918 31.3221 114.311 31.3729 114.728C31.4237 115.145 31.3496 115.568 31.16 115.943C30.9704 116.318 30.6738 116.629 30.3077 116.836C29.9416 117.042 29.5224 117.136 29.1031 117.104C28.6839 117.073 28.2834 116.917 27.9524 116.658C27.6213 116.399 27.3745 116.048 27.2431 115.649C27.1118 115.249 27.1018 114.82 27.2145 114.415C27.2893 114.146 27.4164 113.895 27.5885 113.675C27.7606 113.455 27.9743 113.271 28.2175 113.134C28.4607 112.997 28.7286 112.909 29.0058 112.875C29.283 112.841 29.5641 112.862 29.8331 112.937Z" fill="#42E8E0"/>
<path opacity="0.8" d="M262.864 98.9891C262.864 100.403 262.444 101.786 261.658 102.961C260.872 104.137 259.755 105.054 258.449 105.595C257.142 106.136 255.704 106.278 254.316 106.002C252.929 105.726 251.655 105.045 250.654 104.045C249.654 103.045 248.973 101.771 248.697 100.384C248.421 98.9971 248.563 97.5594 249.104 96.2529C249.645 94.9464 250.562 93.8297 251.738 93.0441C252.914 92.2584 254.297 91.8391 255.712 91.8391C257.607 91.8428 259.424 92.5973 260.765 93.9374C262.105 95.2775 262.86 97.094 262.864 98.9891Z" fill="#42E8E0"/>
<path opacity="0.8" d="M267.918 79.6079C267.915 80.6429 267.606 81.6538 267.028 82.513C266.451 83.3722 265.632 84.0411 264.675 84.4352C263.718 84.8293 262.665 84.931 261.65 84.7274C260.635 84.5238 259.703 84.024 258.972 83.2912C258.241 82.5584 257.744 81.6254 257.543 80.6102C257.342 79.5949 257.447 78.5428 257.843 77.5869C258.24 76.631 258.911 75.8141 259.772 75.2394C260.633 74.6647 261.645 74.358 262.681 74.358C264.071 74.3617 265.403 74.9165 266.385 75.9006C267.367 76.8848 267.918 78.218 267.918 79.6079Z" fill="#42E8E0"/>
<path opacity="0.8" d="M277.294 76.9337C279.338 76.9337 280.996 75.2764 280.996 73.232C280.996 71.1876 279.338 69.5303 277.294 69.5303C275.249 69.5303 273.591 71.1876 273.591 73.232C273.591 75.2764 275.249 76.9337 277.294 76.9337Z" fill="#42E8E0"/>
<path opacity="0.8" d="M291.823 74.358C291.823 74.8758 291.67 75.3819 291.382 75.8124C291.094 76.243 290.685 76.5785 290.207 76.7767C289.728 76.9748 289.202 77.0267 288.694 76.9256C288.186 76.8246 287.719 76.5753 287.353 76.2092C286.987 75.843 286.737 75.3766 286.636 74.8687C286.535 74.3609 286.587 73.8345 286.785 73.3561C286.983 72.8778 287.319 72.4689 287.75 72.1813C288.18 71.8936 288.687 71.7401 289.205 71.7401C289.899 71.7401 290.565 72.0159 291.056 72.5068C291.547 72.9978 291.823 73.6637 291.823 74.358Z" fill="#42E8E0"/>
<path opacity="0.8" d="M295.188 67.8272C295.942 67.8272 296.554 67.216 296.554 66.462C296.554 65.7079 295.942 65.0967 295.188 65.0967C294.434 65.0967 293.822 65.7079 293.822 66.462C293.822 67.216 294.434 67.8272 295.188 67.8272Z" fill="#42E8E0"/>
<path opacity="0.4" d="M215.657 230.477C215.66 231.366 215.399 232.235 214.907 232.976C214.415 233.716 213.715 234.293 212.894 234.635C212.074 234.977 211.17 235.068 210.298 234.897C209.426 234.725 208.625 234.299 207.995 233.671C207.366 233.044 206.937 232.244 206.762 231.373C206.588 230.501 206.676 229.598 207.015 228.776C207.355 227.955 207.93 227.253 208.669 226.759C209.408 226.265 210.277 226.001 211.166 226.001C211.755 226 212.339 226.114 212.884 226.338C213.428 226.562 213.923 226.892 214.341 227.307C214.758 227.723 215.089 228.217 215.315 228.761C215.541 229.305 215.657 229.888 215.657 230.477Z" fill="#42E8E0"/>
<path opacity="0.4" d="M137.352 25.5601C137.363 26.4476 137.11 27.3185 136.625 28.0619C136.14 28.8053 135.445 29.3877 134.628 29.7352C133.811 30.0826 132.909 30.1793 132.037 30.013C131.165 29.8467 130.362 29.4249 129.73 28.8013C129.098 28.1776 128.666 27.3802 128.489 26.5105C128.311 25.6408 128.397 24.738 128.734 23.9168C129.071 23.0957 129.645 22.3933 130.382 21.899C131.119 21.4046 131.987 21.1406 132.875 21.1406C134.053 21.1405 135.183 21.6043 136.021 22.4315C136.859 23.2588 137.337 24.3828 137.352 25.5601Z" fill="#42E8E0"/>
<path opacity="0.4" d="M146.094 178.696C146.097 180.005 145.711 181.285 144.986 182.375C144.261 183.464 143.228 184.314 142.019 184.817C140.81 185.32 139.48 185.453 138.195 185.2C136.911 184.946 135.73 184.317 134.803 183.392C133.877 182.468 133.245 181.289 132.989 180.005C132.732 178.722 132.862 177.391 133.363 176.181C133.863 174.972 134.711 173.938 135.8 173.21C136.888 172.483 138.168 172.094 139.477 172.094C140.346 172.093 141.206 172.262 142.008 172.593C142.811 172.924 143.541 173.41 144.155 174.023C144.77 174.636 145.258 175.364 145.59 176.166C145.923 176.968 146.094 177.828 146.094 178.696Z" fill="#42E8E0"/>
<path opacity="0.8" d="M129.397 296.193C131.978 296.193 134.071 294.101 134.071 291.52C134.071 288.94 131.978 286.848 129.397 286.848C126.815 286.848 124.723 288.94 124.723 291.52C124.723 294.101 126.815 296.193 129.397 296.193Z" fill="#42E8E0"/>
<path opacity="0.8" d="M200.608 102.677C200.605 104.09 200.183 105.471 199.395 106.645C198.608 107.819 197.49 108.734 196.183 109.273C194.876 109.812 193.438 109.951 192.052 109.674C190.665 109.396 189.392 108.714 188.394 107.714C187.395 106.713 186.715 105.439 186.44 104.052C186.165 102.666 186.308 101.229 186.849 99.9233C187.391 98.6176 188.308 97.5017 189.484 96.7167C190.66 95.9316 192.042 95.5126 193.456 95.5126C194.396 95.5126 195.327 95.698 196.196 96.0582C197.065 96.4185 197.854 96.9464 198.518 97.6118C199.182 98.2773 199.709 99.0671 200.067 99.9362C200.426 100.805 200.609 101.737 200.608 102.677Z" fill="#42E8E0"/>
<path opacity="0.8" d="M195.018 125.83C195.021 126.789 194.739 127.727 194.208 128.525C193.677 129.324 192.92 129.946 192.035 130.315C191.149 130.683 190.174 130.78 189.234 130.594C188.293 130.407 187.429 129.946 186.751 129.268C186.072 128.59 185.611 127.726 185.424 126.785C185.238 125.845 185.335 124.87 185.703 123.985C186.072 123.099 186.695 122.343 187.493 121.812C188.292 121.282 189.23 121 190.189 121.002C191.469 121.006 192.695 121.516 193.6 122.42C194.504 123.325 195.014 124.551 195.018 125.83Z" fill="#42E8E0"/>
<g opacity="0.1">
<path d="M335.89 163.34L354.248 179.568L359.119 155.57L340.761 139.342L317.545 147.125L312.674 171.123L335.89 163.34Z" fill="#42E8E0"/>
<path d="M340.761 139.342L359.119 155.57L354.248 179.568L335.89 163.34L340.761 139.342Z" fill="#42E8E0"/>
<path d="M317.545 147.125L340.761 139.342L335.89 163.34L312.674 171.123L317.545 147.125Z" fill="#2FD3C7"/>
<path d="M335.89 163.34L354.248 179.568L331.018 187.338L312.674 171.123L335.89 163.34Z" fill="#42E8E0"/>
<path d="M335.89 163.34L354.248 179.568L354.459 178.527L336.101 162.298L312.885 170.082L312.674 171.123L335.89 163.34Z" fill="white"/>
</g>
<path opacity="0.4" d="M339.648 154.008L318.432 141.763L339.648 129.532L360.865 141.763L339.648 154.008Z" fill="#03002D"/>
<path opacity="0.4" d="M339.648 175.275C325.668 175.275 311.688 172.207 301.044 166.07C290.682 160.089 284.98 152.136 284.98 143.649C284.98 135.162 290.682 127.223 301.044 121.242C322.331 108.954 356.965 108.954 378.252 121.242C388.614 127.223 394.316 135.176 394.316 143.649C394.316 152.122 388.684 160.089 378.252 166.07C367.622 172.207 353.628 175.275 339.648 175.275ZM339.648 112.459C325.752 112.459 311.843 115.513 301.27 121.622C291.048 127.519 285.431 135.345 285.431 143.649C285.431 151.953 291.062 159.793 301.27 165.676C322.388 177.893 356.866 177.893 378.041 165.676C388.248 159.793 393.865 151.967 393.865 143.649C393.865 135.331 388.234 127.519 378.041 121.622C367.453 115.513 353.558 112.459 339.648 112.459Z" fill="#42E8E0"/>
<path opacity="0.2" d="M339.649 183.749C321.909 183.749 304.17 179.85 290.655 172.052C277.533 164.48 270.297 154.388 270.297 143.649C270.297 132.91 277.533 122.832 290.655 115.246C317.672 99.6507 361.625 99.6507 388.642 115.246C401.764 122.832 409 132.91 409 143.649C409 154.388 401.764 164.48 388.642 172.066C375.141 179.85 357.416 183.749 339.649 183.749ZM339.649 104C321.994 104 304.325 107.87 290.88 115.64C277.899 123.128 270.747 133.079 270.747 143.649C270.747 154.219 277.899 164.184 290.88 171.672C317.77 187.155 361.527 187.155 388.417 171.672L388.53 171.869L388.389 171.743C401.369 164.255 408.521 154.304 408.521 143.719C408.521 133.135 401.369 123.198 388.389 115.71C374.972 107.87 357.317 104 339.649 104Z" fill="#42E8E0"/>
<path d="M339.649 168.604C328.625 168.604 317.615 166.183 309.225 161.341C301.059 156.626 296.554 150.349 296.554 143.649C296.554 136.949 301.059 130.672 309.225 125.957C326.006 116.273 353.305 116.273 370.073 125.957C378.252 130.672 382.743 136.963 382.743 143.649C382.743 150.335 378.252 156.626 370.073 161.341C361.639 166.183 350.672 168.604 339.649 168.604ZM339.649 119.13C328.709 119.13 317.77 121.537 309.45 126.351C301.425 130.982 297.004 137.132 297.004 143.649C297.004 150.166 301.425 156.316 309.45 160.961C326.105 170.574 353.206 170.574 369.861 160.961C377.886 156.331 382.307 150.18 382.307 143.649C382.307 137.118 377.886 130.982 369.861 126.351C361.527 121.537 350.588 119.13 339.649 119.13Z" fill="#42E8E0"/>
<path d="M337.213 120.228L334.777 95.8645L314.884 110.151L317.305 134.514L339.634 144.592L359.527 130.306L337.213 120.228Z" fill="#42E8E0"/>
<path d="M317.305 134.514L314.884 110.151L334.777 95.8645L337.213 120.228L317.305 134.514Z" fill="#42E8E0"/>
<path d="M339.634 144.592L317.306 134.514L337.213 120.228L359.528 130.306L339.634 144.592Z" fill="#2FD3C7"/>
<path d="M337.213 120.228L334.777 95.8645L357.106 105.942L359.528 130.306L337.213 120.228Z" fill="#42E8E0"/>
<path d="M337.212 120.228L334.777 95.8645L333.918 96.4838L336.34 120.848L358.668 130.925L359.527 130.306L337.212 120.228Z" fill="white"/>
<path opacity="0.4" d="M327.118 138.948H347.504L339.634 144.592L327.118 138.948Z" fill="#03002D"/>
<defs>
<linearGradient id="paint0_linear_145_9728" x1="94.7164" y1="315.886" x2="235.283" y2="234.676" gradientUnits="userSpaceOnUse">
<stop stop-color="#BCBEFF"/>
<stop offset="0.31" stop-color="#9297EE"/>
<stop offset="0.59" stop-color="#727AE2"/>
<stop offset="0.84" stop-color="#5E67DA"/>
<stop offset="1" stop-color="#5761D7"/>
</linearGradient>
<linearGradient id="paint1_linear_145_9728" x1="234.061" y1="218.357" x2="90.7877" y2="281.869" gradientUnits="userSpaceOnUse">
<stop stop-color="#5761D7"/>
<stop offset="0.16" stop-color="#5E67DA"/>
<stop offset="0.41" stop-color="#727AE2"/>
<stop offset="0.69" stop-color="#9297EE"/>
<stop offset="1" stop-color="#BCBEFF"/>
</linearGradient>
<linearGradient id="paint2_linear_145_9728" x1="136.184" y1="302.496" x2="185.514" y2="216.257" gradientUnits="userSpaceOnUse">
<stop stop-color="#42E8E0"/>
<stop offset="0.15" stop-color="#43E3E0"/>
<stop offset="0.33" stop-color="#45D5DF"/>
<stop offset="0.52" stop-color="#49BDDD"/>
<stop offset="0.72" stop-color="#4E9CDB"/>
<stop offset="0.93" stop-color="#5472D8"/>
<stop offset="1" stop-color="#5761D7"/>
</linearGradient>
<linearGradient id="paint3_linear_145_9728" x1="136.059" y1="307.411" x2="185.389" y2="221.172" gradientUnits="userSpaceOnUse">
<stop stop-color="#42E8E0"/>
<stop offset="0.1" stop-color="#3FD9D6"/>
<stop offset="0.3" stop-color="#36B2BD"/>
<stop offset="0.58" stop-color="#287394"/>
<stop offset="0.91" stop-color="#141D5B"/>
<stop offset="1" stop-color="#0F054C"/>
</linearGradient>
<radialGradient id="paint4_radial_145_9728" cx="0" cy="0" r="1" gradientUnits="userSpaceOnUse" gradientTransform="translate(161.651 197.004) scale(158.484 87.143)">
<stop stop-color="#42E8E0"/>
<stop offset="0.09" stop-color="#3BC9CC"/>
<stop offset="0.27" stop-color="#2E8EA5"/>
<stop offset="0.45" stop-color="#235D85"/>
<stop offset="0.61" stop-color="#1A376C"/>
<stop offset="0.76" stop-color="#141B5B"/>
<stop offset="0.9" stop-color="#100B50"/>
<stop offset="1" stop-color="#0F054C"/>
</radialGradient>
<radialGradient id="paint5_radial_145_9728" cx="0" cy="0" r="1" gradientUnits="userSpaceOnUse" gradientTransform="translate(161.652 43.5183) scale(130.157 71.5676)">
<stop stop-color="#42E8E0"/>
<stop offset="0.1" stop-color="#3FD9D6"/>
<stop offset="0.3" stop-color="#36B2BD"/>
<stop offset="0.58" stop-color="#287394"/>
<stop offset="0.91" stop-color="#141D5B"/>
<stop offset="1" stop-color="#0F054C"/>
</radialGradient>
<linearGradient id="paint6_linear_145_9728" x1="94.7083" y1="253.231" x2="235.275" y2="172.021" gradientUnits="userSpaceOnUse">
<stop stop-color="#BCBEFF"/>
<stop offset="0.31" stop-color="#9297EE"/>
<stop offset="0.59" stop-color="#727AE2"/>
<stop offset="0.84" stop-color="#5E67DA"/>
<stop offset="1" stop-color="#5761D7"/>
</linearGradient>
<linearGradient id="paint7_linear_145_9728" x1="234.052" y1="155.702" x2="90.7793" y2="219.214" gradientUnits="userSpaceOnUse">
<stop stop-color="#5761D7"/>
<stop offset="0.16" stop-color="#5E67DA"/>
<stop offset="0.41" stop-color="#727AE2"/>
<stop offset="0.69" stop-color="#9297EE"/>
<stop offset="1" stop-color="#BCBEFF"/>
</linearGradient>
<linearGradient id="paint8_linear_145_9728" x1="136.041" y1="239.841" x2="185.371" y2="153.602" gradientUnits="userSpaceOnUse">
<stop stop-color="#42E8E0"/>
<stop offset="0.15" stop-color="#43E3E0"/>
<stop offset="0.33" stop-color="#45D5DF"/>
<stop offset="0.52" stop-color="#49BDDD"/>
<stop offset="0.72" stop-color="#4E9CDB"/>
<stop offset="0.93" stop-color="#5472D8"/>
<stop offset="1" stop-color="#5761D7"/>
</linearGradient>
<linearGradient id="paint9_linear_145_9728" x1="135.93" y1="244.757" x2="185.26" y2="158.518" gradientUnits="userSpaceOnUse">
<stop stop-color="#42E8E0"/>
<stop offset="0.1" stop-color="#3FD9D6"/>
<stop offset="0.3" stop-color="#36B2BD"/>
<stop offset="0.58" stop-color="#287394"/>
<stop offset="0.91" stop-color="#141D5B"/>
<stop offset="1" stop-color="#0F054C"/>
</linearGradient>
<linearGradient id="paint10_linear_145_9728" x1="71.4069" y1="169.477" x2="254.669" y2="169.477" gradientUnits="userSpaceOnUse">
<stop stop-color="#42E8E0"/>
<stop offset="0.1" stop-color="#3FD9D6"/>
<stop offset="0.3" stop-color="#36B2BD"/>
<stop offset="0.58" stop-color="#287394"/>
<stop offset="0.91" stop-color="#141D5B"/>
<stop offset="1" stop-color="#0F054C"/>
</linearGradient>
<linearGradient id="paint11_linear_145_9728" x1="254.684" y1="169.477" x2="71.4072" y2="169.477" gradientUnits="userSpaceOnUse">
<stop stop-color="#C0BFF6"/>
<stop offset="0.12" stop-color="#B2B0E8"/>
<stop offset="0.36" stop-color="#8D89C5"/>
<stop offset="0.68" stop-color="#514A8B"/>
<stop offset="1" stop-color="#0F054C"/>
</linearGradient>
<linearGradient id="paint12_linear_145_9728" x1="94.691" y1="124.011" x2="235.258" y2="42.801" gradientUnits="userSpaceOnUse">
<stop stop-color="#BCBEFF"/>
<stop offset="0.31" stop-color="#9297EE"/>
<stop offset="0.59" stop-color="#727AE2"/>
<stop offset="0.84" stop-color="#5E67DA"/>
<stop offset="1" stop-color="#5761D7"/>
</linearGradient>
<linearGradient id="paint13_linear_145_9728" x1="234.035" y1="26.4825" x2="90.7747" y2="90.0009" gradientUnits="userSpaceOnUse">
<stop stop-color="#5761D7"/>
<stop offset="0.16" stop-color="#5E67DA"/>
<stop offset="0.41" stop-color="#727AE2"/>
<stop offset="0.69" stop-color="#9297EE"/>
<stop offset="1" stop-color="#BCBEFF"/>
</linearGradient>
<linearGradient id="paint14_linear_145_9728" x1="135.776" y1="110.622" x2="185.106" y2="24.383" gradientUnits="userSpaceOnUse">
<stop stop-color="#42E8E0"/>
<stop offset="0.15" stop-color="#43E3E0"/>
<stop offset="0.33" stop-color="#45D5DF"/>
<stop offset="0.52" stop-color="#49BDDD"/>
<stop offset="0.72" stop-color="#4E9CDB"/>
<stop offset="0.93" stop-color="#5472D8"/>
<stop offset="1" stop-color="#5761D7"/>
</linearGradient>
<linearGradient id="paint15_linear_145_9728" x1="135.266" y1="116.006" x2="184.761" y2="29.8623" gradientUnits="userSpaceOnUse">
<stop stop-color="#42E8E0"/>
<stop offset="0.1" stop-color="#3FD9D6"/>
<stop offset="0.3" stop-color="#36B2BD"/>
<stop offset="0.58" stop-color="#287394"/>
<stop offset="0.91" stop-color="#141D5B"/>
<stop offset="1" stop-color="#0F054C"/>
</linearGradient>
</defs>
</svg>
