<svg  viewBox="0 0 409 357" fill="none" xmlns="http://www.w3.org/2000/svg">
<g clip-path="url(#clip0_145_6869)">
<path d="M130.725 321.254C127.605 321.337 124.516 320.622 121.749 319.175L3.70533 250.98C1.33316 249.607 0.0380859 247.709 0.0380859 245.617C0.0380859 243.051 1.91017 240.588 5.16709 238.701L230.279 108.637C236.396 105.109 245.666 104.788 251.013 107.79L369.057 175.985C371.417 177.358 372.725 179.257 372.725 181.348C372.725 183.85 370.853 186.378 367.596 188.264L142.432 318.328C138.84 320.278 134.812 321.284 130.725 321.254ZM121.967 318.688C127.096 321.664 136.213 321.254 142.189 317.828L367.326 187.815C370.442 186.032 372.212 183.671 372.212 181.4C372.136 180.35 371.78 179.339 371.18 178.475C370.58 177.61 369.758 176.923 368.801 176.486L250.757 108.278C245.628 105.301 236.511 105.712 230.523 109.138L5.38508 239.15C2.28202 240.947 0.499698 243.295 0.499698 245.566C0.499698 247.465 1.71783 249.21 3.92331 250.48L121.967 318.688Z" fill="#42E8E0"/>
<path d="M372.468 149.849L355.517 152.762L250.885 92.3422C245.628 89.3142 236.46 89.6863 230.369 93.1891L30.2221 208.819L0.255859 213.951V224.588C0.255859 226.525 1.39708 228.373 3.79489 229.72L121.839 297.915C127.083 300.956 136.252 300.571 142.355 297.068L367.454 167.068C370.724 165.182 372.404 162.77 372.455 160.486L372.468 149.849Z" fill="url(#paint0_linear_145_6869)"/>
<path d="M121.839 287.278L3.79474 219.083C-1.4625 216.043 -0.795726 210.743 5.2565 207.241L230.407 77.1764C236.459 73.6737 245.627 73.3272 250.923 76.3296L368.967 144.525C374.212 147.565 373.558 152.852 367.493 156.354L142.316 286.431C136.251 289.934 127.045 290.306 121.839 287.278Z" fill="#24126A"/>
<path d="M367.455 156.354L142.317 286.432C136.252 289.921 127.084 290.281 121.801 287.278L3.7566 219.083C2.86936 218.654 2.09312 218.025 1.48822 217.246C0.883328 216.467 0.466076 215.559 0.268873 214.593C-0.0516901 216.787 1.07669 218.917 3.7566 220.456L121.839 288.651C127.084 291.692 136.252 291.307 142.355 287.804L367.455 157.779C371.083 155.674 372.763 152.941 372.404 150.427C372.096 152.492 370.429 154.648 367.455 156.354Z" fill="white"/>
<path opacity="0.51" d="M122.07 284.635L8.23148 218.852C3.10247 215.914 3.79489 210.782 9.65478 207.395L230.612 79.781C236.485 76.3937 245.358 76.0216 250.436 78.9599L364.262 144.743C369.391 147.681 368.698 152.8 362.838 156.188L141.893 283.814C136.021 287.201 127.148 287.573 122.07 284.635Z" fill="#453C9E"/>
<path style="mix-blend-mode:lighten" opacity="0.8" d="M130.674 284.032C127.623 284.119 124.6 283.426 121.891 282.018L8.05246 216.235C7.02976 215.758 6.15432 215.014 5.51805 214.082C4.88179 213.149 4.5082 212.063 4.43652 210.936C4.43652 208.472 6.27013 205.996 9.47577 204.149L230.433 76.5221C236.396 73.0835 245.449 72.6729 250.616 75.7009L364.455 141.484C365.477 141.961 366.353 142.704 366.989 143.637C367.625 144.569 367.999 145.656 368.07 146.783C368.07 149.246 366.237 151.723 363.031 153.57L142.073 281.197C138.575 283.091 134.653 284.067 130.674 284.032ZM122.25 281.376C127.225 284.25 135.957 283.878 141.702 280.555L362.672 152.941C365.634 151.222 367.34 148.977 367.34 146.783C367.265 145.787 366.924 144.83 366.353 144.01C365.783 143.191 365.003 142.54 364.095 142.125L250.257 76.3424C245.282 73.4684 236.55 73.7763 230.805 77.1636L9.83479 204.777C6.87279 206.497 5.1674 208.742 5.1674 210.936C5.24232 211.932 5.58284 212.889 6.15345 213.708C6.72405 214.528 7.50383 215.179 8.41149 215.594L122.25 281.376Z" fill="url(#paint1_linear_145_6869)"/>
<g opacity="0.1">
<path style="mix-blend-mode:lighten" opacity="0.5" d="M122.07 281.697L8.23148 215.914C3.10247 212.976 3.79489 207.844 9.65478 204.456L230.612 76.8428C236.485 73.4555 245.358 73.0834 250.436 76.0216L364.262 141.804C369.391 144.743 368.698 149.862 362.838 153.249L141.893 280.876C136.021 284.263 127.148 284.635 122.07 281.697Z" fill="url(#paint2_radial_145_6869)"/>
<mask id="mask0_145_6869" style="mask-type:luminance" maskUnits="userSpaceOnUse" x="4" y="74" width="364" height="210">
<path d="M122.07 281.697L8.23148 215.914C3.10247 212.976 3.79489 207.844 9.65478 204.456L230.612 76.8428C236.485 73.4555 245.358 73.0834 250.436 76.0216L364.262 141.804C369.391 144.743 368.698 149.862 362.838 153.249L141.893 280.876C136.021 284.263 127.148 284.635 122.07 281.697Z" fill="white"/>
</mask>
<g mask="url(#mask0_145_6869)">
<path d="M247.808 256.998C247.808 242.692 237.781 225.293 225.394 218.134C219.188 214.554 213.572 214.285 209.52 216.581L205.263 219.058L206.545 219.173C204.314 221.906 203.006 225.948 203.006 231.093C203.006 245.399 213.046 262.797 225.432 269.944C229.69 272.408 233.665 273.331 237.05 272.908L236.96 274.05L241.255 271.484L241.422 271.381C245.384 269.007 247.808 264.029 247.808 256.998Z" fill="#9FFFF8"/>
<path d="M239.105 275.321C247.903 270.261 247.937 253.8 239.18 238.554C230.424 223.308 216.193 215.051 207.395 220.11C198.597 225.17 198.563 241.63 207.32 256.876C216.076 272.122 230.307 280.38 239.105 275.321Z" fill="#42E8E0"/>
</g>
</g>
<path opacity="0.4" d="M339.963 152.723C338.987 153.217 337.909 153.474 336.815 153.474C335.722 153.474 334.643 153.217 333.667 152.723C331.936 151.723 331.936 150.093 333.667 149.092C334.643 148.598 335.722 148.341 336.815 148.341C337.909 148.341 338.987 148.598 339.963 149.092C341.694 150.08 341.694 151.723 339.963 152.723Z" fill="#24126A"/>
<path opacity="0.4" d="M315.947 135.209L328.256 142.33C329.77 143.203 329.539 144.717 327.833 145.718C326.946 146.222 325.952 146.507 324.933 146.549C323.914 146.592 322.899 146.39 321.973 145.962L309.651 138.853C308.151 137.981 308.369 136.467 310.074 135.453C310.967 134.959 311.962 134.679 312.982 134.637C314.001 134.595 315.016 134.791 315.947 135.209Z" fill="#24126A"/>
<path opacity="0.4" d="M245.679 92.5347L257.989 99.6429C259.502 100.515 259.271 102.029 257.566 103.043C256.675 103.537 255.682 103.817 254.665 103.859C253.647 103.901 252.634 103.705 251.706 103.287L239.383 96.1914C237.883 95.319 238.101 93.8049 239.807 92.8042C240.695 92.2998 241.69 92.0125 242.711 91.9657C243.731 91.9189 244.748 92.1138 245.679 92.5347Z" fill="#24126A"/>
<path d="M339.963 148.31C338.987 148.803 337.909 149.061 336.815 149.061C335.722 149.061 334.643 148.803 333.667 148.31C331.936 147.309 331.936 145.679 333.667 144.666C334.643 144.172 335.722 143.914 336.815 143.914C337.909 143.914 338.987 144.172 339.963 144.666C341.694 145.679 341.694 147.309 339.963 148.31Z" fill="#42E8E0"/>
<path d="M315.947 130.834L328.256 137.955C329.77 138.815 329.539 140.342 327.833 141.342C326.944 141.84 325.95 142.121 324.932 142.163C323.915 142.205 322.901 142.008 321.973 141.586L309.651 134.465C308.151 133.606 308.369 132.079 310.074 131.078C310.966 130.581 311.962 130.299 312.982 130.257C314.001 130.215 315.017 130.412 315.947 130.834Z" fill="#42E8E0"/>
<path d="M245.679 88.1082L257.989 95.2292C259.502 96.1017 259.271 97.6157 257.566 98.6165C256.679 99.1206 255.684 99.4057 254.665 99.4481C253.646 99.4905 252.632 99.289 251.706 98.8602L239.383 91.7521C237.883 90.8796 238.101 89.3656 239.807 88.3519C240.699 87.8575 241.695 87.578 242.714 87.5357C243.734 87.4934 244.749 87.6894 245.679 88.1082Z" fill="#42E8E0"/>
<g opacity="0.3">
<path d="M408.987 303.663V297.915L407.41 297.03C406.961 299.737 403.768 301.533 401.089 301.905L382.919 312.542L374.995 315.403L349.67 302.329L350.26 301.995C348.093 300.981 346.926 298.672 345.759 296.555L344.054 297.569L343.041 297.864V303.753C343.108 304.422 343.349 305.063 343.741 305.61C344.132 306.157 344.66 306.592 345.272 306.871L370.674 321.523C372.344 322.365 374.189 322.803 376.059 322.803C377.929 322.803 379.774 322.365 381.444 321.523L406.807 306.871C407.408 306.595 407.928 306.17 408.316 305.635C408.705 305.1 408.949 304.474 409.026 303.817C409.032 303.766 409.032 303.714 409.026 303.663H408.987Z" fill="url(#paint3_linear_145_6869)"/>
<path opacity="0.3" d="M401.089 301.905L382.919 312.542L376.021 315.031V322.806C377.896 322.845 379.749 322.403 381.406 321.523L406.769 306.871C407.37 306.595 407.889 306.17 408.278 305.635C408.666 305.1 408.911 304.474 408.987 303.817C408.994 303.766 408.994 303.714 408.987 303.663V297.915L407.538 297.107H407.384C406.897 299.775 403.743 301.482 401.089 301.905Z" fill="#0F054C"/>
<path d="M370.673 315.673L345.31 301.02C342.335 299.314 342.335 296.516 345.31 294.797L370.673 280.144C372.344 279.303 374.188 278.865 376.059 278.865C377.929 278.865 379.774 279.303 381.444 280.144L406.807 294.797C409.769 296.516 409.769 299.314 406.807 301.02L381.444 315.673C379.775 316.52 377.93 316.962 376.059 316.962C374.187 316.962 372.342 316.52 370.673 315.673Z" fill="url(#paint4_linear_145_6869)"/>
<g opacity="0.3">
<path d="M370.673 315.673L345.31 301.02C342.335 299.314 342.335 296.516 345.31 294.797L370.673 280.144C372.344 279.303 374.188 278.865 376.059 278.865C377.929 278.865 379.774 279.303 381.444 280.144L406.807 294.797C409.769 296.516 409.769 299.314 406.807 301.02L381.444 315.673C379.775 316.52 377.93 316.962 376.059 316.962C374.187 316.962 372.342 316.52 370.673 315.673Z" fill="#0F054C"/>
</g>
</g>
<path d="M376.02 297.158C374.355 297.188 372.709 296.795 371.237 296.016L345.874 281.363C345.275 281.153 344.756 280.761 344.389 280.243C344.022 279.725 343.825 279.105 343.825 278.47C343.825 277.835 344.022 277.215 344.389 276.697C344.756 276.179 345.275 275.787 345.874 275.577L371.237 260.924C372.719 260.177 374.355 259.788 376.014 259.788C377.673 259.788 379.309 260.177 380.79 260.924L406.166 275.577C406.765 275.787 407.284 276.179 407.651 276.697C408.018 277.215 408.215 277.835 408.215 278.47C408.215 279.105 408.018 279.725 407.651 280.243C407.284 280.761 406.765 281.153 406.166 281.363L380.803 296.016C379.331 296.795 377.685 297.188 376.02 297.158ZM376.02 260.231C374.432 260.199 372.862 260.57 371.455 261.309L346.092 275.962C345.566 276.137 345.108 276.473 344.783 276.923C344.458 277.374 344.284 277.915 344.284 278.47C344.284 279.025 344.458 279.566 344.783 280.017C345.108 280.467 345.566 280.803 346.092 280.978L371.455 295.631C372.869 296.346 374.43 296.718 376.014 296.718C377.597 296.718 379.159 296.346 380.572 295.631L405.935 280.953C406.462 280.778 406.92 280.441 407.245 279.991C407.569 279.541 407.744 279 407.744 278.444C407.744 277.889 407.569 277.348 407.245 276.898C406.92 276.448 406.462 276.111 405.935 275.936L380.572 261.283C379.167 260.555 377.602 260.193 376.02 260.231Z" fill="#42E8E0"/>
<path opacity="0.4" d="M408.987 272.844V264.157L407.41 263.272C406.961 265.992 403.768 267.776 401.089 268.148L382.919 278.784L374.995 281.646L349.67 268.571L350.26 268.238C348.093 267.224 346.926 264.914 345.759 262.797L344.054 263.811L343.041 264.106V272.934C343.108 273.603 343.349 274.243 343.741 274.79C344.132 275.337 344.66 275.772 345.272 276.051L370.674 290.704C372.342 291.552 374.188 291.993 376.059 291.993C377.931 291.993 379.776 291.552 381.444 290.704L406.807 276.051C407.408 275.776 407.928 275.35 408.316 274.815C408.705 274.281 408.949 273.655 409.026 272.998C409.032 272.947 409.032 272.895 409.026 272.844H408.987Z" fill="#42E8E0"/>
<path d="M408.987 265.12V259.372L407.41 258.486C406.961 261.206 403.768 262.99 401.089 263.362L382.919 273.999L374.995 276.86L349.67 263.785L350.26 263.452C348.093 262.438 346.926 260.129 345.759 258.012L344.054 259.038L343.041 259.32V265.21C343.108 265.879 343.349 266.519 343.741 267.066C344.132 267.613 344.66 268.048 345.272 268.327L370.674 282.98C372.342 283.828 374.188 284.269 376.059 284.269C377.931 284.269 379.776 283.828 381.444 282.98L406.807 268.327C407.408 268.052 407.928 267.626 408.316 267.091C408.705 266.557 408.949 265.931 409.026 265.274C409.032 265.223 409.032 265.171 409.026 265.12H408.987Z" fill="url(#paint5_linear_145_6869)"/>
<path opacity="0.3" d="M401.089 263.362L382.919 273.999L376.021 276.488V284.263C377.896 284.302 379.749 283.86 381.406 282.98L406.769 268.327C407.37 268.052 407.889 267.626 408.278 267.091C408.666 266.556 408.911 265.93 408.987 265.274C408.994 265.223 408.994 265.171 408.987 265.12V259.372L407.538 258.563H407.384C406.897 261.232 403.743 262.99 401.089 263.362Z" fill="#0F054C"/>
<path d="M370.673 277.104L345.31 262.451C342.335 260.732 342.335 257.935 345.31 256.228L370.673 241.614C372.342 240.766 374.187 240.325 376.059 240.325C377.93 240.325 379.775 240.766 381.444 241.614L406.807 256.267C409.769 257.973 409.769 260.77 406.807 262.489L381.406 277.104C379.74 277.939 377.903 278.374 376.039 278.374C374.176 278.374 372.339 277.939 370.673 277.104Z" fill="url(#paint6_linear_145_6869)"/>
<path d="M406.769 262.489L381.406 277.104C379.735 277.945 377.891 278.384 376.02 278.384C374.15 278.384 372.305 277.945 370.635 277.104L345.272 262.451C344.718 262.19 344.232 261.806 343.85 261.327C343.467 260.849 343.199 260.29 343.066 259.692C342.887 260.975 343.63 262.259 345.272 263.157L370.673 277.848C372.342 278.695 374.187 279.137 376.059 279.137C377.93 279.137 379.775 278.695 381.444 277.848L406.807 263.195C407.484 262.914 408.058 262.43 408.451 261.81C408.843 261.19 409.035 260.464 409 259.731C408.863 260.331 408.591 260.891 408.204 261.369C407.817 261.847 407.326 262.231 406.769 262.489Z" fill="white"/>
<g opacity="0.3">
<path d="M296.071 337.857V332.109L294.481 331.223C294.033 333.943 290.84 335.727 288.173 336.099L269.99 346.736L262.066 349.597L236.742 336.522L237.331 336.189C235.164 335.175 233.998 332.866 232.831 330.749L231.125 331.775L230.112 332.057V337.947C230.179 338.616 230.421 339.256 230.812 339.803C231.204 340.35 231.732 340.785 232.343 341.064L257.706 355.717C259.375 356.565 261.22 357.006 263.092 357.006C264.963 357.006 266.808 356.565 268.477 355.717L293.84 341.064C294.443 340.791 294.966 340.366 295.357 339.831C295.747 339.296 295.994 338.669 296.071 338.011C296.071 338.011 296.071 337.908 296.071 337.857Z" fill="url(#paint7_linear_145_6869)"/>
<path opacity="0.3" d="M288.173 336.125L269.99 346.761L263.092 349.25V357.026C264.967 357.064 266.821 356.623 268.477 355.743L293.84 341.09C294.443 340.816 294.966 340.391 295.357 339.856C295.747 339.321 295.994 338.694 296.071 338.036C296.071 338.036 296.071 337.934 296.071 337.882V332.134L294.61 331.326H294.456C293.968 333.969 290.814 335.727 288.173 336.125Z" fill="#0F054C"/>
<path d="M257.706 349.879L232.343 335.226C229.369 333.507 229.369 330.71 232.343 329.004L257.706 314.312C259.375 313.465 261.22 313.023 263.092 313.023C264.963 313.023 266.808 313.465 268.477 314.312L293.84 328.965C296.802 330.672 296.802 333.469 293.84 335.188L268.477 349.879C266.807 350.721 264.962 351.159 263.092 351.159C261.221 351.159 259.377 350.721 257.706 349.879Z" fill="url(#paint8_linear_145_6869)"/>
<g opacity="0.3">
<path d="M257.706 349.879L232.343 335.226C229.369 333.507 229.369 330.71 232.343 329.004L257.706 314.312C259.375 313.465 261.22 313.023 263.092 313.023C264.963 313.023 266.808 313.465 268.477 314.312L293.84 328.965C296.802 330.672 296.802 333.469 293.84 335.188L268.477 349.879C266.807 350.721 264.962 351.159 263.092 351.159C261.221 351.159 259.377 350.721 257.706 349.879Z" fill="#0F054C"/>
</g>
</g>
<path d="M263.092 328.555C261.426 328.591 259.779 328.198 258.309 327.413L232.946 312.76C232.352 312.547 231.837 312.155 231.474 311.638C231.11 311.122 230.915 310.505 230.915 309.873C230.915 309.241 231.11 308.625 231.474 308.108C231.837 307.591 232.352 307.199 232.946 306.986L258.309 292.334C259.791 291.581 261.43 291.188 263.092 291.188C264.754 291.188 266.393 291.581 267.875 292.334L293.238 306.986C293.832 307.199 294.346 307.591 294.71 308.108C295.074 308.625 295.269 309.241 295.269 309.873C295.269 310.505 295.074 311.122 294.71 311.638C294.346 312.155 293.832 312.547 293.238 312.76L267.875 327.413C266.405 328.198 264.758 328.591 263.092 328.555ZM258.527 327.028C259.94 327.743 261.502 328.115 263.085 328.115C264.669 328.115 266.231 327.743 267.644 327.028L293.007 312.375C293.573 312.246 294.079 311.928 294.442 311.473C294.804 311.019 295.002 310.455 295.002 309.873C295.002 309.292 294.804 308.727 294.442 308.273C294.079 307.818 293.573 307.5 293.007 307.371L267.644 292.719C266.232 291.998 264.67 291.622 263.085 291.622C261.501 291.622 259.939 291.998 258.527 292.719L233.164 307.371C232.598 307.5 232.092 307.818 231.729 308.273C231.367 308.727 231.169 309.292 231.169 309.873C231.169 310.455 231.367 311.019 231.729 311.473C232.092 311.928 232.598 312.246 233.164 312.375L258.527 327.028Z" fill="#42E8E0"/>
<path opacity="0.4" d="M296.071 304.253V295.554L294.481 294.669C294.033 297.389 290.84 299.172 288.173 299.544L269.99 310.181L262.066 313.029L236.742 299.955L237.331 299.621C235.164 298.608 233.998 296.298 232.831 294.181L231.125 295.208L230.112 295.49V304.33C230.174 305 230.413 305.641 230.805 306.187C231.198 306.733 231.729 307.164 232.343 307.435L257.706 322.088C259.375 322.935 261.22 323.377 263.092 323.377C264.963 323.377 266.808 322.935 268.477 322.088L293.84 307.435C294.443 307.161 294.966 306.737 295.357 306.202C295.747 305.667 295.994 305.04 296.071 304.382C296.071 304.382 296.071 304.279 296.071 304.228V304.253Z" fill="#42E8E0"/>
<path d="M296.071 296.516V290.768L294.481 289.883C294.033 292.603 290.84 294.386 288.173 294.759L269.99 305.395L262.066 308.256L236.742 295.182L237.331 294.848C235.164 293.835 233.998 291.525 232.831 289.421L231.125 290.435L230.112 290.717V296.619C230.182 297.286 230.424 297.924 230.815 298.468C231.207 299.013 231.733 299.446 232.343 299.724L257.706 314.377C259.375 315.224 261.22 315.666 263.092 315.666C264.963 315.666 266.808 315.224 268.477 314.377L293.84 299.724C294.443 299.45 294.966 299.025 295.357 298.49C295.747 297.955 295.994 297.328 296.071 296.67C296.071 296.67 296.071 296.568 296.071 296.516Z" fill="url(#paint9_linear_145_6869)"/>
<path opacity="0.3" d="M288.173 294.759L269.99 305.395L263.092 307.897V315.673C264.967 315.711 266.821 315.27 268.477 314.39L293.84 299.737C294.443 299.463 294.966 299.038 295.357 298.503C295.747 297.968 295.994 297.341 296.071 296.683C296.071 296.683 296.071 296.581 296.071 296.529V290.781L294.61 289.973H294.456C293.968 292.629 290.814 294.399 288.173 294.759Z" fill="#0F054C"/>
<path d="M257.706 308.539L232.343 293.886C229.369 292.167 229.369 289.37 232.343 287.663L257.706 273.011C259.375 272.163 261.22 271.721 263.092 271.721C264.963 271.721 266.808 272.163 268.477 273.011L293.84 287.663C296.802 289.383 296.802 292.167 293.84 293.886L268.477 308.539C266.808 309.386 264.963 309.828 263.092 309.828C261.22 309.828 259.375 309.386 257.706 308.539Z" fill="url(#paint10_linear_145_6869)"/>
<path d="M263.092 305.87C261.588 305.904 260.1 305.55 258.771 304.843L238.96 293.398C238.418 293.206 237.95 292.851 237.618 292.381C237.286 291.911 237.108 291.35 237.108 290.775C237.108 290.199 237.286 289.638 237.618 289.169C237.95 288.699 238.418 288.343 238.96 288.151L258.771 276.706C260.109 276.023 261.59 275.667 263.092 275.667C264.594 275.667 266.075 276.023 267.413 276.706L287.224 288.151C287.766 288.343 288.235 288.699 288.566 289.169C288.898 289.638 289.076 290.199 289.076 290.775C289.076 291.35 288.898 291.911 288.566 292.381C288.235 292.851 287.766 293.206 287.224 293.398L267.413 304.843C266.085 305.55 264.597 305.904 263.092 305.87ZM258.989 304.459C260.258 305.104 261.662 305.441 263.086 305.441C264.51 305.441 265.913 305.104 267.183 304.459L287.006 293.014C287.482 292.863 287.897 292.565 288.192 292.162C288.487 291.76 288.646 291.274 288.646 290.775C288.646 290.275 288.487 289.789 288.192 289.387C287.897 288.984 287.482 288.686 287.006 288.536L267.183 277.104C265.913 276.458 264.51 276.121 263.086 276.121C261.662 276.121 260.258 276.458 258.989 277.104L239.178 288.549C238.733 288.742 238.347 289.051 238.061 289.444C237.775 289.836 237.598 290.298 237.55 290.781C237.6 291.265 237.777 291.728 238.063 292.122C238.349 292.516 238.733 292.828 239.178 293.026L258.989 304.459Z" fill="#5351AF"/>
<path d="M293.841 293.886L268.478 308.539C266.809 309.386 264.964 309.828 263.093 309.828C261.221 309.828 259.376 309.386 257.707 308.539L232.344 293.886C231.791 293.625 231.304 293.241 230.922 292.762C230.54 292.284 230.272 291.725 230.139 291.127C230.109 291.863 230.305 292.589 230.699 293.211C231.093 293.832 231.667 294.318 232.344 294.605L257.707 309.257C259.378 310.099 261.222 310.537 263.093 310.537C264.963 310.537 266.807 310.099 268.478 309.257L293.841 294.605C294.518 294.319 295.091 293.833 295.483 293.211C295.876 292.589 296.068 291.862 296.034 291.127C295.903 291.724 295.637 292.283 295.257 292.761C294.877 293.239 294.393 293.624 293.841 293.886Z" fill="white"/>
<g opacity="0.3">
<path d="M79.1534 133.875V128.127L77.5634 127.242C77.1146 129.949 73.9218 131.745 71.2547 132.117L53.0724 142.741L45.1481 145.615L19.8236 132.541L20.4134 132.194C18.2464 131.193 17.0796 128.871 15.9127 126.767L14.2073 127.78L13.1943 128.063V133.965C13.2546 134.635 13.4934 135.276 13.8859 135.822C14.2783 136.369 14.81 136.799 15.4255 137.07L40.7884 151.722C42.4573 152.57 44.3024 153.012 46.1739 153.012C48.0454 153.012 49.8905 152.57 51.5593 151.722L76.9223 137.07C77.5254 136.796 78.0477 136.371 78.4386 135.836C78.8295 135.301 79.0757 134.674 79.1534 134.016V133.875Z" fill="url(#paint11_linear_145_6869)"/>
<path opacity="0.3" d="M71.2547 132.117L53.0724 142.741L46.1738 145.243V153.018C48.0489 153.057 49.9028 152.615 51.5593 151.735L76.9223 137.083C77.5254 136.809 78.0477 136.384 78.4385 135.849C78.8294 135.314 79.0756 134.687 79.1534 134.029V133.888V128.14L77.7044 127.331H77.5505C77.0376 129.987 73.8961 131.745 71.2547 132.117Z" fill="#0F054C"/>
<path d="M40.7888 145.885L15.4899 131.232C12.5151 129.513 12.5151 126.728 15.4899 125.009L40.7888 110.305C42.4576 109.458 44.3027 109.016 46.1742 109.016C48.0457 109.016 49.8908 109.458 51.5597 110.305L76.9226 124.958C79.8974 126.677 79.8974 129.461 76.9226 131.181L51.5597 145.833C49.8949 146.689 48.0518 147.139 46.1803 147.148C44.3088 147.157 42.4616 146.724 40.7888 145.885Z" fill="url(#paint12_linear_145_6869)"/>
<g opacity="0.3">
<path d="M40.7888 145.885L15.4899 131.232C12.5151 129.513 12.5151 126.728 15.4899 125.009L40.7888 110.305C42.4576 109.458 44.3027 109.016 46.1742 109.016C48.0457 109.016 49.8908 109.458 51.5597 110.305L76.9226 124.958C79.8974 126.677 79.8974 129.461 76.9226 131.181L51.5597 145.833C49.8949 146.689 48.0518 147.139 46.1803 147.148C44.3088 147.157 42.4616 146.724 40.7888 145.885Z" fill="#0F054C"/>
</g>
</g>
<path d="M46.1735 128.332C44.5083 128.362 42.8628 127.97 41.3907 127.19L16.0277 112.538C15.4288 112.327 14.9099 111.936 14.5428 111.418C14.1757 110.899 13.9785 110.28 13.9785 109.644C13.9785 109.009 14.1757 108.39 14.5428 107.871C14.9099 107.353 15.4288 106.962 16.0277 106.751L41.3907 92.0985C42.8745 91.3516 44.5125 90.9625 46.1735 90.9625C47.8345 90.9625 49.4724 91.3516 50.9563 92.0985L76.3192 106.751C76.9182 106.962 77.4371 107.353 77.8042 107.871C78.1713 108.39 78.3684 109.009 78.3684 109.644C78.3684 110.28 78.1713 110.899 77.8042 111.418C77.4371 111.936 76.9182 112.327 76.3192 112.538L50.9563 127.19C49.4842 127.97 47.8386 128.362 46.1735 128.332ZM46.1735 91.3928C44.5884 91.3653 43.0222 91.7405 41.6215 92.4834L16.2457 107.136C15.7191 107.311 15.2609 107.648 14.9363 108.098C14.6116 108.548 14.4368 109.089 14.4368 109.644C14.4368 110.2 14.6116 110.741 14.9363 111.191C15.2609 111.641 15.7191 111.978 16.2457 112.153L41.6215 126.805C43.0348 127.52 44.5962 127.893 46.1799 127.893C47.7635 127.893 49.325 127.52 50.7383 126.805L76.1012 112.153C76.6278 111.978 77.086 111.641 77.4107 111.191C77.7354 110.741 77.9101 110.2 77.9101 109.644C77.9101 109.089 77.7354 108.548 77.4107 108.098C77.086 107.648 76.6278 107.311 76.1012 107.136L50.7383 92.4834C49.3329 91.7405 47.7626 91.3654 46.1735 91.3928Z" fill="#42E8E0"/>
<path opacity="0.4" d="M79.1534 104.018V95.3318L77.5634 94.4465C77.1146 97.1538 73.9218 98.95 71.2547 99.3221L53.0724 109.959L45.1481 112.871L19.8236 99.7969L20.4134 99.4633C18.2464 98.4497 17.0796 96.1401 15.9127 94.0231L14.2073 95.0367L13.1943 95.3318V104.159C13.276 104.826 13.5309 105.461 13.9336 105.999C14.3363 106.537 14.8727 106.96 15.4896 107.226L40.7884 121.853C42.4573 122.7 44.3024 123.142 46.1739 123.142C48.0454 123.142 49.8905 122.7 51.5593 121.853L76.9223 107.2C77.5254 106.926 78.0477 106.501 78.4386 105.966C78.8295 105.431 79.0757 104.805 79.1534 104.146V103.992V104.018Z" fill="#42E8E0"/>
<path d="M79.1534 96.294V90.5459L77.5634 89.6606C77.1146 92.3678 73.9218 94.1641 71.2547 94.5362L53.0724 105.173L45.1481 108.034L19.8236 94.9083L20.4134 94.5747C18.2464 93.5611 17.0796 91.2516 15.9127 89.1345L14.2073 90.1481L13.1943 90.4432V96.3325C13.2615 97.002 13.5028 97.6422 13.8943 98.1892C14.2858 98.7363 14.8137 99.1711 15.4255 99.4504L40.7884 114.154C42.4591 114.996 44.3035 115.434 46.1739 115.434C48.0443 115.434 49.8887 114.996 51.5593 114.154L76.9223 99.5017C77.5254 99.2279 78.0477 98.803 78.4386 98.268C78.8295 97.733 79.0757 97.1061 79.1534 96.448V96.294Z" fill="url(#paint13_linear_145_6869)"/>
<path opacity="0.3" d="M71.2547 94.5362L53.0724 105.173L46.1738 107.662V115.437C48.0489 115.476 49.9028 115.034 51.5593 114.154L76.9223 99.5017C77.5254 99.2279 78.0477 98.803 78.4385 98.268C78.8294 97.733 79.0756 97.1061 79.1534 96.448V96.294V90.5459L77.7044 89.7375H77.5505C77.0376 92.4063 73.8961 94.1641 71.2547 94.5362Z" fill="#0F054C"/>
<path d="M20.4127 94.6261L44.4549 80.7946C44.9902 80.526 45.5807 80.3861 46.1795 80.3861C46.7784 80.3861 47.3689 80.526 47.9042 80.7946L71.5104 94.4336L71.254 94.5876C73.9211 94.2155 77.1139 92.4192 77.5627 89.7119L51.0585 74.9567L43.365 72.9166L37.082 76.6118L15.9248 89.2372C17.0788 91.3029 18.2457 93.6253 20.4127 94.6261Z" fill="url(#paint14_linear_145_6869)"/>
<path opacity="0.3" d="M46.1733 73.6224L43.3523 72.8654L37.0693 76.5606L15.9121 89.1859C17.079 91.303 18.2458 93.6125 20.4128 94.6261L44.4551 80.7947C44.9806 80.5048 45.5733 80.3587 46.1733 80.3713V73.6224Z" fill="#0F054C"/>
<path d="M40.7878 108.304L15.4889 93.6253C12.5141 91.9188 12.5141 89.1217 15.4889 87.4024L40.8519 72.7498C42.5225 71.9082 44.3669 71.4698 46.2374 71.4698C48.1078 71.4698 49.9522 71.9082 51.6228 72.7498L76.9857 87.4024C79.9606 89.1217 79.9606 91.9188 76.9857 93.6253L51.6228 108.278C49.9477 109.14 48.092 109.592 46.2084 109.596C44.3247 109.601 42.4669 109.158 40.7878 108.304ZM47.9043 74.9439C47.369 74.6752 46.7785 74.5353 46.1796 74.5353C45.5808 74.5353 44.9903 74.6752 44.455 74.9439L19.0921 89.5965C18.8808 89.6651 18.6966 89.7988 18.566 89.9786C18.4354 90.1584 18.365 90.375 18.365 90.5973C18.365 90.8195 18.4354 91.0361 18.566 91.2159C18.6966 91.3957 18.8808 91.5295 19.0921 91.5981L44.455 106.251C44.9903 106.519 45.5808 106.659 46.1796 106.659C46.7785 106.659 47.369 106.519 47.9043 106.251L73.2672 91.5981C73.4725 91.5233 73.6498 91.3872 73.7751 91.2082C73.9005 91.0291 73.9677 90.8159 73.9677 90.5973C73.9677 90.3787 73.9005 90.1654 73.7751 89.9864C73.6498 89.8073 73.4725 89.6712 73.2672 89.5965L47.9043 74.9439Z" fill="url(#paint15_linear_145_6869)"/>
<path d="M73.2678 89.5451L47.9049 74.8925C47.3696 74.6239 46.7791 74.484 46.1802 74.484C45.5814 74.484 44.9909 74.6239 44.4556 74.8925L19.0927 89.5451C18.4515 89.9172 18.2464 90.4305 18.4515 90.9052C18.596 90.6318 18.8194 90.4082 19.0927 90.2637L44.4556 75.6624C44.9909 75.3937 45.5814 75.2539 46.1802 75.2539C46.7791 75.2539 47.3696 75.3937 47.9049 75.6624L73.2678 90.315C73.5378 90.4596 73.757 90.6835 73.8961 90.9565C74.1013 90.4305 73.8961 89.9172 73.2678 89.5451Z" fill="white"/>
<path d="M76.9222 93.6253L51.5592 108.278C49.8904 109.125 48.0452 109.567 46.1737 109.567C44.3022 109.567 42.4571 109.125 40.7883 108.278L15.4894 93.6253C14.9358 93.3678 14.4488 92.9862 14.0664 92.51C13.6839 92.0339 13.4162 91.4759 13.284 90.8795C13.2555 91.6129 13.4514 92.3376 13.8455 92.9566C14.2396 93.5757 14.8131 94.0596 15.4894 94.3438L40.7883 109.022C42.4571 109.87 44.3022 110.311 46.1737 110.311C48.0452 110.311 49.8904 109.87 51.5592 109.022L76.9222 94.3695C77.5985 94.0853 78.172 93.6014 78.5661 92.9823C78.9602 92.3633 79.1561 91.6386 79.1276 90.9052C78.9919 91.4969 78.7225 92.0497 78.3402 92.5212C77.9579 92.9927 77.4729 93.3704 76.9222 93.6253Z" fill="white"/>
<path d="M41.5061 107.893L16.1431 93.2404C13.5786 91.752 13.5786 89.3912 16.1431 87.8515L41.5061 73.1989C42.9511 72.4601 44.5507 72.0748 46.1734 72.0748C47.7962 72.0748 49.3958 72.4601 50.8409 73.1989L76.2038 87.8515C78.7683 89.3398 78.7683 91.7007 76.2038 93.2404L50.8409 107.893C49.3958 108.632 47.7962 109.017 46.1734 109.017C44.5507 109.017 42.9511 108.632 41.5061 107.893ZM48.6097 74.5333C47.8556 74.147 47.0206 73.9456 46.1734 73.9456C45.3263 73.9456 44.4913 74.147 43.7372 74.5333L18.3742 89.1345C18.0785 89.2336 17.8214 89.4232 17.6392 89.6764C17.457 89.9297 17.359 90.2339 17.359 90.5459C17.359 90.858 17.457 91.1621 17.6392 91.4154C17.8214 91.6687 18.0785 91.8582 18.3742 91.9573L43.6987 106.61C44.4549 106.989 45.2891 107.187 46.135 107.187C46.9808 107.187 47.815 106.989 48.5712 106.61L73.947 91.9573C74.2427 91.8582 74.4999 91.6687 74.6821 91.4154C74.8642 91.1621 74.9623 90.858 74.9623 90.5459C74.9623 90.2339 74.8642 89.9297 74.6821 89.6764C74.4999 89.4232 74.2427 89.2336 73.947 89.1345L48.6097 74.5333Z" fill="url(#paint16_linear_145_6869)"/>
<path opacity="0.4" d="M47.9045 74.8925C47.3692 74.6239 46.7787 74.484 46.1799 74.484C45.5811 74.484 44.9905 74.6239 44.4552 74.8925L19.0923 89.5451C18.881 89.6137 18.6968 89.7475 18.5662 89.9273C18.4356 90.1071 18.3652 90.3237 18.3652 90.5459C18.3652 90.7682 18.4356 90.9848 18.5662 91.1646C18.6968 91.3444 18.881 91.4781 19.0923 91.5467L44.4552 106.199C44.9905 106.468 45.5811 106.608 46.1799 106.608C46.7787 106.608 47.3692 106.468 47.9045 106.199L73.2674 91.5467C73.4727 91.472 73.6501 91.3359 73.7754 91.1568C73.9007 90.9778 73.9679 90.7645 73.9679 90.5459C73.9679 90.3274 73.9007 90.1141 73.7754 89.935C73.6501 89.756 73.4727 89.6199 73.2674 89.5451L47.9045 74.8925Z" fill="#42E8E0"/>
<path style="mix-blend-mode:lighten" opacity="0.5" d="M73.9725 90.5203V-0.0384521H18.374V90.4818C18.3883 90.7023 18.4628 90.9146 18.5894 91.0956C18.716 91.2766 18.8899 91.4194 19.0921 91.5082L44.455 106.161C44.9903 106.429 45.5808 106.569 46.1797 106.569C46.7785 106.569 47.369 106.429 47.9043 106.161L73.2672 91.5082C73.4572 91.4146 73.621 91.2754 73.744 91.103C73.8671 90.9306 73.9456 90.7304 73.9725 90.5203Z" fill="url(#paint17_linear_145_6869)"/>
<path d="M247.808 162.603C247.808 148.297 237.781 130.898 225.394 123.752C219.188 120.159 213.572 119.825 209.52 122.186L205.263 124.675L206.545 124.791C204.314 127.524 203.006 131.553 203.006 136.698C203.006 151.004 213.046 168.402 225.432 175.562C229.69 178.012 233.665 178.949 237.05 178.526L236.96 179.668L241.255 177.101L241.422 176.999C245.384 174.612 247.808 169.647 247.808 162.603Z" fill="#9FFFF8"/>
<path d="M236.967 179.641C245.725 174.582 245.726 158.178 236.969 143.001C228.213 127.825 214.015 119.624 205.257 124.683C196.499 129.743 196.498 146.147 205.254 161.323C214.011 176.5 228.209 184.701 236.967 179.641Z" fill="#42E8E0"/>
<path d="M195.428 100.772C203.737 89.1217 205.686 69.1188 199.724 56.1085C196.749 49.5777 192.363 46.0492 187.696 45.613L182.811 45.1768L183.747 45.9851C180.336 46.9089 176.925 49.4365 173.95 53.6835C165.654 65.3337 163.692 85.3239 169.655 98.347C171.167 102.15 173.865 105.362 177.348 107.508L176.617 108.381L181.58 108.83H181.644H181.836C186.478 109.138 191.35 106.456 195.428 100.772Z" fill="#9FFFF8"/>
<path d="M197.996 78.5058C199.671 61.062 192.869 46.1363 182.803 45.1682C172.737 44.2001 163.218 57.5562 161.543 74.9999C159.867 92.4437 166.669 107.369 176.735 108.338C186.802 109.306 196.32 95.9495 197.996 78.5058Z" fill="#42E8E0"/>
<g opacity="0.1">
<path d="M202.968 194.987C202.968 180.681 192.928 163.283 180.554 156.123C174.348 152.544 168.732 152.21 164.667 154.571L160.435 157.047L161.718 157.163C159.474 159.896 158.179 163.937 158.179 169.07C158.179 183.389 168.219 200.787 180.605 207.934C184.053 210.159 188.131 211.2 192.222 210.897L192.133 212.039L196.428 209.473L196.608 209.371C200.544 206.971 202.968 201.993 202.968 194.987Z" fill="#9FFFF8"/>
<path d="M192.122 212.002C200.88 206.942 200.881 190.538 192.125 175.362C183.368 160.185 169.17 151.984 160.412 157.044C151.654 162.103 151.653 178.507 160.41 193.684C169.166 208.86 183.364 217.061 192.122 212.002Z" fill="#42E8E0"/>
</g>
<path opacity="0.4" d="M177.707 218.301C162.243 218.301 146.779 214.901 134.996 208.1C123.545 201.48 117.236 192.704 117.236 183.299C117.236 173.894 123.545 165.105 134.996 158.497C158.551 144.884 196.864 144.884 220.419 158.497C231.87 165.105 238.178 173.894 238.178 183.299C238.178 192.704 231.87 201.48 220.419 208.1C208.648 214.901 193.184 218.301 177.707 218.301ZM177.707 148.733C162.32 148.733 146.933 152.107 135.226 158.882C123.917 165.413 117.685 174.086 117.685 183.26C117.685 192.434 123.917 201.146 135.226 207.638C158.653 221.175 196.774 221.175 220.201 207.638C231.511 201.108 237.73 192.434 237.73 183.26C237.73 174.086 231.511 165.374 220.201 158.882C208.481 152.107 193.094 148.797 177.707 148.797V148.733Z" fill="#42E8E0"/>
<path opacity="0.2" d="M177.707 227.693C158.076 227.693 138.458 223.369 123.507 214.734C108.991 206.343 100.99 195.18 100.99 183.299C100.99 171.417 108.991 160.204 123.507 151.851C153.396 134.594 202.019 134.594 231.908 151.851C246.436 160.242 254.425 171.405 254.425 183.299C254.425 195.193 246.436 206.394 231.908 214.734C216.97 223.369 197.339 227.693 177.707 227.693ZM177.707 139.341C158.166 139.341 138.612 143.639 123.737 152.236C109.351 160.55 101.401 171.571 101.401 183.299C101.401 195.026 109.312 206.047 123.699 214.349C153.46 231.555 201.916 231.555 231.652 214.349C246.064 206.047 253.989 194.987 253.989 183.299C253.989 171.61 246.064 160.55 231.69 152.249C216.803 143.665 197.262 139.341 177.707 139.341Z" fill="#42E8E0"/>
<path d="M177.707 210.91C165.526 210.91 153.344 208.229 144.048 202.878C135.072 197.656 130.046 190.702 130.046 183.299C130.046 175.895 135.021 168.941 144.048 163.719C162.615 153.006 192.774 153.006 211.366 163.719C220.406 168.941 225.381 175.895 225.381 183.299C225.381 190.702 220.406 197.656 211.366 202.878C202.096 208.229 189.876 210.91 177.707 210.91ZM177.707 156.123C165.603 156.123 153.485 158.779 144.266 164.104C135.38 169.236 130.482 176.062 130.482 183.35C130.482 190.638 135.38 197.464 144.279 202.596C162.718 213.258 192.71 213.258 211.148 202.596C220.034 197.464 224.933 190.651 224.933 183.35C224.933 176.049 220.034 169.3 211.148 164.104C201.929 158.779 189.876 156.123 177.707 156.123Z" fill="#42E8E0"/>
<mask id="mask1_145_6869" style="mask-type:luminance" maskUnits="userSpaceOnUse" x="142" y="102" width="71" height="96">
<path d="M212.815 189.291L198.723 197.412L142.599 164.989V102.645L212.815 143.203V189.291Z" fill="white"/>
</mask>
<g mask="url(#mask1_145_6869)">
<path d="M202.967 194.987C202.967 180.681 192.927 163.283 180.553 156.123C174.347 152.544 168.731 152.21 164.666 154.571L160.435 157.047L161.717 157.163C159.473 159.896 158.178 163.937 158.178 169.07C158.178 183.389 168.218 200.787 180.604 207.934C184.052 210.159 188.13 211.2 192.222 210.897L192.132 212.039L196.427 209.473L196.607 209.371C200.543 206.971 202.967 201.993 202.967 194.987Z" fill="#9FFFF8"/>
<path d="M192.121 212.002C200.879 206.942 200.88 190.538 192.124 175.362C183.367 160.185 169.169 151.984 160.411 157.044C151.653 162.103 151.652 178.507 160.409 193.684C169.165 208.86 183.363 217.061 192.121 212.002Z" fill="#42E8E0"/>
</g>
<path opacity="0.4" d="M117.492 256.857L47.0709 216.171C46.5969 215.897 46.2032 215.504 45.9295 215.03C45.6558 214.555 45.5117 214.018 45.5117 213.47C45.5117 212.922 45.6558 212.385 45.9295 211.91C46.2032 211.436 46.5969 211.043 47.0709 210.769L57.8162 204.508C59.5818 203.486 61.5853 202.948 63.6248 202.948C65.6643 202.948 67.6678 203.486 69.4334 204.508L139.867 245.194C140.342 245.466 140.736 245.858 141.01 246.331C141.284 246.804 141.428 247.341 141.428 247.888C141.428 248.435 141.284 248.972 141.01 249.445C140.736 249.919 140.342 250.311 139.867 250.583L129.122 256.857C127.355 257.881 125.349 258.42 123.307 258.42C121.265 258.42 119.259 257.881 117.492 256.857Z" fill="#24126A"/>
<path d="M82.2437 215.26L70.9727 208.755L73.2166 207.459L84.4876 213.964L82.2437 215.26Z" fill="#42E8E0"/>
<path d="M114.018 234.082L110.556 232.081L112.8 230.785L116.262 232.786L114.018 234.082Z" fill="#42E8E0"/>
<path d="M88.7697 219.135L85.3076 217.133L87.5516 215.837L91.0136 217.839L88.7697 219.135Z" fill="#42E8E0"/>
<path d="M123.301 248.748C121.218 248.749 119.171 248.205 117.364 247.17L46.9425 206.535C46.4297 206.239 46.0043 205.812 45.7093 205.298C45.4143 204.785 45.2603 204.202 45.2628 203.61C45.2586 203.019 45.412 202.437 45.7073 201.925C46.0026 201.413 46.429 200.989 46.9425 200.697L57.7006 194.423C59.5041 193.382 61.5493 192.835 63.6311 192.835C65.7128 192.835 67.758 193.382 69.5615 194.423L139.983 235.109C140.496 235.405 140.921 235.832 141.216 236.345C141.511 236.859 141.665 237.442 141.662 238.034C141.667 238.625 141.513 239.207 141.218 239.719C140.923 240.231 140.496 240.655 139.983 240.947L129.237 247.221C127.425 248.238 125.379 248.765 123.301 248.748ZM63.6246 193.294C61.6301 193.296 59.6711 193.822 57.9442 194.821L47.199 201.082C46.7618 201.331 46.3982 201.691 46.1452 202.126C45.8923 202.561 45.7591 203.055 45.7591 203.558C45.7591 204.062 45.8923 204.556 46.1452 204.991C46.3982 205.426 46.7618 205.786 47.199 206.035L117.62 246.721C119.348 247.717 121.307 248.242 123.301 248.242C125.295 248.242 127.254 247.717 128.981 246.721L139.726 240.459C140.163 240.209 140.526 239.847 140.779 239.411C141.031 238.975 141.164 238.48 141.164 237.977C141.164 237.473 141.031 236.978 140.779 236.542C140.526 236.106 140.163 235.744 139.726 235.494L69.3435 194.821C67.6067 193.812 65.6327 193.285 63.6246 193.294Z" fill="#42E8E0"/>
</g>
<defs>
<linearGradient id="paint0_linear_145_6869" x1="0.243037" y1="195.154" x2="372.468" y2="195.154" gradientUnits="userSpaceOnUse">
<stop stop-color="#BCBEFF"/>
<stop offset="0.15" stop-color="#A3A7F5"/>
<stop offset="0.39" stop-color="#8289E8"/>
<stop offset="0.61" stop-color="#6A73DF"/>
<stop offset="0.82" stop-color="#5C66D9"/>
<stop offset="1" stop-color="#5761D7"/>
</linearGradient>
<linearGradient id="paint1_linear_145_6869" x1="238.204" y1="247.85" x2="134.219" y2="109.932" gradientUnits="userSpaceOnUse">
<stop stop-color="#42E8E0"/>
<stop offset="0.11" stop-color="#37B6BF"/>
<stop offset="0.22" stop-color="#2C87A1"/>
<stop offset="0.34" stop-color="#235F87"/>
<stop offset="0.46" stop-color="#1C3F72"/>
<stop offset="0.58" stop-color="#162561"/>
<stop offset="0.71" stop-color="#121355"/>
<stop offset="0.85" stop-color="#10084E"/>
<stop offset="1" stop-color="#0F054C"/>
</linearGradient>
<radialGradient id="paint2_radial_145_6869" cx="0" cy="0" r="1" gradientUnits="userSpaceOnUse" gradientTransform="translate(177.117 182.375) scale(291.341 291.525)">
<stop stop-color="#42E8E0"/>
<stop offset="0.11" stop-color="#37B6BF"/>
<stop offset="0.22" stop-color="#2C87A1"/>
<stop offset="0.34" stop-color="#235F87"/>
<stop offset="0.46" stop-color="#1C3F72"/>
<stop offset="0.58" stop-color="#162561"/>
<stop offset="0.71" stop-color="#121355"/>
<stop offset="0.85" stop-color="#10084E"/>
<stop offset="1" stop-color="#0F054C"/>
</radialGradient>
<linearGradient id="paint3_linear_145_6869" x1="349.606" y1="286.483" x2="401.951" y2="316.683" gradientUnits="userSpaceOnUse">
<stop stop-color="#BCBEFF"/>
<stop offset="0.23" stop-color="#AAADF8"/>
<stop offset="0.68" stop-color="#7C83E5"/>
<stop offset="1" stop-color="#5761D7"/>
</linearGradient>
<linearGradient id="paint4_linear_145_6869" x1="343.041" y1="297.915" x2="408.987" y2="297.915" gradientUnits="userSpaceOnUse">
<stop stop-color="#E9E9FD"/>
<stop offset="0.36" stop-color="#D3D2F9"/>
<stop offset="0.71" stop-color="#C5C4F7"/>
<stop offset="1" stop-color="#C0BFF6"/>
</linearGradient>
<linearGradient id="paint5_linear_145_6869" x1="349.606" y1="247.94" x2="401.951" y2="278.153" gradientUnits="userSpaceOnUse">
<stop stop-color="#BCBEFF"/>
<stop offset="0.23" stop-color="#AAADF8"/>
<stop offset="0.68" stop-color="#7C83E5"/>
<stop offset="1" stop-color="#5761D7"/>
</linearGradient>
<linearGradient id="paint6_linear_145_6869" x1="343.041" y1="259.372" x2="408.987" y2="259.372" gradientUnits="userSpaceOnUse">
<stop stop-color="#E9E9FD"/>
<stop offset="0.36" stop-color="#D3D2F9"/>
<stop offset="0.71" stop-color="#C5C4F7"/>
<stop offset="1" stop-color="#C0BFF6"/>
</linearGradient>
<linearGradient id="paint7_linear_145_6869" x1="236.677" y1="320.676" x2="289.023" y2="350.89" gradientUnits="userSpaceOnUse">
<stop stop-color="#BCBEFF"/>
<stop offset="0.23" stop-color="#AAADF8"/>
<stop offset="0.68" stop-color="#7C83E5"/>
<stop offset="1" stop-color="#5761D7"/>
</linearGradient>
<linearGradient id="paint8_linear_145_6869" x1="230.112" y1="332.109" x2="296.071" y2="332.109" gradientUnits="userSpaceOnUse">
<stop stop-color="#E9E9FD"/>
<stop offset="0.36" stop-color="#D3D2F9"/>
<stop offset="0.71" stop-color="#C5C4F7"/>
<stop offset="1" stop-color="#C0BFF6"/>
</linearGradient>
<linearGradient id="paint9_linear_145_6869" x1="236.677" y1="279.349" x2="289.023" y2="309.549" gradientUnits="userSpaceOnUse">
<stop stop-color="#BCBEFF"/>
<stop offset="0.23" stop-color="#AAADF8"/>
<stop offset="0.68" stop-color="#7C83E5"/>
<stop offset="1" stop-color="#5761D7"/>
</linearGradient>
<linearGradient id="paint10_linear_145_6869" x1="230.112" y1="290.768" x2="296.071" y2="290.768" gradientUnits="userSpaceOnUse">
<stop stop-color="#E9E9FD"/>
<stop offset="0.36" stop-color="#D3D2F9"/>
<stop offset="0.71" stop-color="#C5C4F7"/>
<stop offset="1" stop-color="#C0BFF6"/>
</linearGradient>
<linearGradient id="paint11_linear_145_6869" x1="19.7595" y1="116.695" x2="72.1048" y2="146.895" gradientUnits="userSpaceOnUse">
<stop stop-color="#BCBEFF"/>
<stop offset="0.23" stop-color="#AAADF8"/>
<stop offset="0.68" stop-color="#7C83E5"/>
<stop offset="1" stop-color="#5761D7"/>
</linearGradient>
<linearGradient id="paint12_linear_145_6869" x1="13.1947" y1="128.127" x2="79.1537" y2="128.127" gradientUnits="userSpaceOnUse">
<stop stop-color="#E9E9FD"/>
<stop offset="0.36" stop-color="#D3D2F9"/>
<stop offset="0.71" stop-color="#C5C4F7"/>
<stop offset="1" stop-color="#C0BFF6"/>
</linearGradient>
<linearGradient id="paint13_linear_145_6869" x1="19.7595" y1="79.1138" x2="72.1048" y2="109.314" gradientUnits="userSpaceOnUse">
<stop stop-color="#BCBEFF"/>
<stop offset="0.23" stop-color="#AAADF8"/>
<stop offset="0.68" stop-color="#7C83E5"/>
<stop offset="1" stop-color="#5761D7"/>
</linearGradient>
<linearGradient id="paint14_linear_145_6869" x1="22.9003" y1="77.0866" x2="69.5762" y2="104.018" gradientUnits="userSpaceOnUse">
<stop offset="0.24" stop-color="#5761D7"/>
<stop offset="0.39" stop-color="#7A82E5"/>
<stop offset="0.55" stop-color="#979CF0"/>
<stop offset="0.7" stop-color="#ACAFF8"/>
<stop offset="0.85" stop-color="#B8BAFD"/>
<stop offset="1" stop-color="#BCBEFF"/>
</linearGradient>
<linearGradient id="paint15_linear_145_6869" x1="13.1937" y1="90.5459" x2="79.1527" y2="90.5459" gradientUnits="userSpaceOnUse">
<stop stop-color="#E9E9FD"/>
<stop offset="0.36" stop-color="#D3D2F9"/>
<stop offset="0.71" stop-color="#C5C4F7"/>
<stop offset="1" stop-color="#C0BFF6"/>
</linearGradient>
<linearGradient id="paint16_linear_145_6869" x1="14.2069" y1="90.5459" x2="78.14" y2="90.5459" gradientUnits="userSpaceOnUse">
<stop stop-color="#E9E9FD"/>
<stop offset="0.36" stop-color="#D3D2F9"/>
<stop offset="0.71" stop-color="#C5C4F7"/>
<stop offset="1" stop-color="#C0BFF6"/>
</linearGradient>
<linearGradient id="paint17_linear_145_6869" x1="46.1732" y1="106.61" x2="46.1732" y2="4.30703e-05" gradientUnits="userSpaceOnUse">
<stop stop-color="#42E8E0"/>
<stop offset="0.11" stop-color="#37B6BF"/>
<stop offset="0.22" stop-color="#2C87A1"/>
<stop offset="0.34" stop-color="#235F87"/>
<stop offset="0.46" stop-color="#1C3F72" stop-opacity="0.59"/>
<stop offset="0.58" stop-color="#162561" stop-opacity="0.49"/>
<stop offset="0.71" stop-color="#121355" stop-opacity="0.24"/>
<stop offset="0.85" stop-color="#10084E" stop-opacity="0.15"/>
<stop offset="1" stop-color="#0F054C" stop-opacity="0"/>
</linearGradient>
<clipPath id="clip0_145_6869">
<rect width="409" height="357" fill="white"/>
</clipPath>
</defs>
</svg>
