<svg  viewBox="0 0 375 364" fill="none" xmlns="http://www.w3.org/2000/svg">
<g clip-path="url(#clip0_145_9222)">
<g style="mix-blend-mode:lighten">
<path d="M187.49 232.295C186.35 232.321 185.223 232.057 184.215 231.528L110.476 189.132C110.051 188.93 109.689 188.617 109.429 188.226C109.169 187.835 109.019 187.382 108.997 186.913C109.057 186.328 109.271 185.768 109.617 185.29C109.963 184.813 110.429 184.435 110.968 184.193L183.722 142.35C184.851 141.718 186.116 141.363 187.41 141.315C188.705 141.267 189.992 141.527 191.166 142.074L264.905 184.469C265.329 184.672 265.691 184.985 265.951 185.376C266.212 185.767 266.361 186.22 266.383 186.688C266.323 187.274 266.11 187.834 265.764 188.312C265.418 188.789 264.951 189.167 264.412 189.408L191.658 231.251C190.38 231.945 188.946 232.304 187.49 232.295ZM184.779 230.546C185.783 230.985 186.875 231.188 187.97 231.138C189.065 231.089 190.134 230.788 191.094 230.26L263.847 188.427C264.206 188.274 264.521 188.036 264.765 187.733C265.009 187.429 265.173 187.07 265.244 186.688C265.212 186.424 265.113 186.171 264.954 185.956C264.796 185.741 264.584 185.571 264.34 185.461L190.591 143.056C189.587 142.623 188.498 142.423 187.405 142.473C186.313 142.523 185.246 142.82 184.287 143.342L111.533 185.175C111.174 185.327 110.859 185.566 110.615 185.869C110.372 186.173 110.207 186.531 110.137 186.913C110.168 187.178 110.268 187.43 110.426 187.645C110.585 187.861 110.796 188.031 111.04 188.14L184.779 230.546Z" fill="#8686F2"/>
</g>
<path opacity="0.5" d="M100.937 237.172C100.823 237.159 100.716 237.113 100.628 237.039C100.541 236.965 100.478 236.867 100.447 236.757C100.416 236.648 100.419 236.531 100.455 236.423C100.491 236.314 100.559 236.219 100.65 236.15L147.232 209.359C147.368 209.283 147.529 209.264 147.679 209.306C147.829 209.348 147.957 209.448 148.033 209.584C148.109 209.719 148.128 209.879 148.086 210.029C148.043 210.178 147.943 210.305 147.807 210.381L101.225 237.049C101.141 237.114 101.042 237.157 100.937 237.172Z" fill="url(#paint0_linear_145_9222)"/>
<path opacity="0.5" d="M274.34 237.049C274.239 237.047 274.14 237.019 274.053 236.968L227.737 210.381C227.67 210.344 227.61 210.294 227.562 210.235C227.514 210.175 227.478 210.106 227.457 210.033C227.435 209.959 227.429 209.882 227.437 209.806C227.446 209.73 227.469 209.656 227.506 209.589C227.543 209.521 227.593 209.462 227.653 209.414C227.713 209.366 227.782 209.331 227.856 209.309C227.93 209.288 228.007 209.281 228.084 209.29C228.16 209.298 228.234 209.322 228.302 209.359L274.679 235.955C274.809 236.032 274.903 236.157 274.941 236.302C274.98 236.447 274.959 236.602 274.884 236.732C274.835 236.833 274.758 236.917 274.661 236.974C274.564 237.03 274.452 237.056 274.34 237.049Z" fill="url(#paint1_linear_145_9222)"/>
<path opacity="0.5" d="M187.501 326.482C185.595 326.484 183.721 325.987 182.069 325.041C163.085 314.079 99.8493 277.665 98.34 276.98C98.2692 276.958 98.2035 276.922 98.1466 276.875C98.0897 276.827 98.0427 276.769 98.0084 276.704C97.9741 276.638 97.953 276.567 97.9465 276.493C97.94 276.419 97.9481 276.345 97.9704 276.275C98.0219 276.132 98.1255 276.014 98.2606 275.944C98.3957 275.873 98.5524 275.857 98.6994 275.896C99.7261 276.183 181.864 323.558 182.644 324.028C184.123 324.877 185.799 325.324 187.506 325.324C189.212 325.324 190.889 324.877 192.367 324.028L275.891 275.815C276.022 275.74 276.177 275.719 276.323 275.758C276.469 275.796 276.594 275.89 276.671 276.019C276.711 276.083 276.738 276.154 276.749 276.229C276.76 276.303 276.756 276.379 276.737 276.452C276.718 276.525 276.684 276.593 276.637 276.652C276.591 276.711 276.532 276.76 276.466 276.796L192.942 324.989C191.293 325.957 189.415 326.472 187.501 326.482Z" fill="url(#paint2_linear_145_9222)"/>
<path d="M265.808 155.766V164.785L187.5 209.808L109.182 164.785V155.766H265.808Z" fill="url(#paint3_linear_145_9222)"/>
<path d="M187.5 200.8L109.182 155.766L187.5 110.743L265.808 155.766L187.5 200.8Z" fill="#BCBEFF"/>
<path d="M187.5 199.746L110.095 155.245L109.182 155.766L187.5 200.8L265.808 155.766L264.894 155.245L187.5 199.746Z" fill="white"/>
<path d="M187.5 190.411L127.263 155.776L187.5 121.142L247.728 155.776L187.5 190.411Z" fill="#0F054C"/>
<path opacity="0.5" d="M187.5 190.411L127.263 155.776L187.5 121.142L247.728 155.776L187.5 190.411Z" fill="url(#paint4_linear_145_9222)"/>
<path opacity="0.5" d="M187.5 112.41L247.728 147.044V155.776L187.5 121.142V112.41Z" fill="url(#paint5_linear_145_9222)"/>
<path opacity="0.5" d="M187.5 121.142L127.263 155.776V147.044L187.5 112.41V121.142Z" fill="url(#paint6_linear_145_9222)"/>
<path opacity="0.5" d="M187.5 181.678L127.263 147.044L187.5 112.41L247.728 147.044L187.5 181.678Z" fill="url(#paint7_linear_145_9222)"/>
<path opacity="0.5" d="M187.5 160.889L163.434 147.044L187.5 133.209L211.566 147.044L187.5 160.889Z" fill="#42E8E0"/>
<path opacity="0.5" d="M187.5 134.477L210.457 147.688L211.566 147.044L187.5 133.209L163.434 147.044L164.532 147.688L187.5 134.477Z" fill="#42E8E0"/>
<path opacity="0.5" d="M187.5 181.678V190.411L247.728 155.776V147.044L187.5 181.678Z" fill="url(#paint8_linear_145_9222)"/>
<path opacity="0.5" d="M127.263 147.044V155.776L187.5 190.411V181.678L127.263 147.044Z" fill="url(#paint9_linear_145_9222)"/>
<path opacity="0.8" d="M187.5 180.727L128.094 146.573L127.263 147.044L187.5 181.678L247.728 147.044L246.907 146.573L187.5 180.727Z" fill="#42E8E0"/>
<g opacity="0.11">
<path d="M71.6452 219.758C70.0966 218.869 68.3403 218.401 66.5527 218.401C64.7651 218.401 63.0088 218.869 61.4602 219.758L0.719269 254.597C0.501925 254.722 0.321569 254.903 0.19621 255.12C0.0708519 255.337 0.00488281 255.583 0.00488281 255.834C0.00488281 256.084 0.0708519 256.33 0.19621 256.547C0.321569 256.765 0.501925 256.945 0.719269 257.071L61.9633 292.268C63.3295 293.057 64.8809 293.472 66.4603 293.472C68.0397 293.472 69.5911 293.057 70.9573 292.268L132.294 257.092C132.514 256.968 132.697 256.788 132.824 256.57C132.951 256.353 133.018 256.106 133.018 255.854C133.018 255.603 132.951 255.355 132.824 255.138C132.697 254.921 132.514 254.741 132.294 254.617L71.6452 219.758Z" fill="url(#paint10_linear_145_9222)"/>
</g>
<g opacity="0.11">
<path d="M71.6452 209.573C70.0973 208.682 68.3408 208.213 66.5527 208.213C64.7646 208.213 63.0082 208.682 61.4602 209.573L0.719269 244.412C0.501925 244.538 0.321569 244.718 0.19621 244.935C0.0708519 245.153 0.00488281 245.399 0.00488281 245.649C0.00488281 245.9 0.0708519 246.146 0.19621 246.363C0.321569 246.58 0.501925 246.76 0.719269 246.886L61.9633 282.103C63.3312 282.888 64.8819 283.3 66.4603 283.3C68.0387 283.3 69.5894 282.888 70.9573 282.103L132.294 246.917C132.514 246.793 132.697 246.613 132.824 246.396C132.951 246.179 133.018 245.931 133.018 245.68C133.018 245.428 132.951 245.181 132.824 244.964C132.697 244.746 132.514 244.566 132.294 244.443L71.6452 209.573Z" fill="url(#paint11_linear_145_9222)"/>
</g>
<g opacity="0.11">
<path d="M71.6452 199.378C70.0966 198.489 68.3403 198.021 66.5527 198.021C64.7651 198.021 63.0088 198.489 61.4602 199.378L0.719269 234.227C0.501925 234.353 0.321569 234.534 0.19621 234.751C0.0708519 234.968 0.00488281 235.214 0.00488281 235.464C0.00488281 235.715 0.0708519 235.961 0.19621 236.178C0.321569 236.395 0.501925 236.576 0.719269 236.702L61.9633 271.919C63.3295 272.708 64.8809 273.123 66.4603 273.123C68.0397 273.123 69.5911 272.708 70.9573 271.919L132.294 236.732C132.514 236.609 132.697 236.429 132.824 236.211C132.951 235.994 133.018 235.747 133.018 235.495C133.018 235.243 132.951 234.996 132.824 234.779C132.697 234.562 132.514 234.382 132.294 234.258L71.6452 199.378Z" fill="url(#paint12_linear_145_9222)"/>
</g>
<g opacity="0.11">
<path d="M71.6446 189.183C70.096 188.294 68.3397 187.826 66.5521 187.826C64.7644 187.826 63.0082 188.294 61.4596 189.183L0.718679 224.032C0.501135 224.157 0.320422 224.336 0.194759 224.553C0.0690953 224.769 0.00292969 225.015 0.00292969 225.264C0.00292969 225.514 0.0690953 225.76 0.194759 225.976C0.320422 226.193 0.501135 226.372 0.718679 226.497L61.9627 261.724C63.3306 262.508 64.8813 262.921 66.4597 262.921C68.0381 262.921 69.5888 262.508 70.9567 261.724L132.293 226.538C132.513 226.414 132.696 226.234 132.823 226.016C132.951 225.799 133.018 225.552 133.018 225.3C133.018 225.049 132.951 224.801 132.823 224.584C132.696 224.367 132.513 224.187 132.293 224.063L71.6446 189.183Z" fill="url(#paint13_linear_145_9222)"/>
</g>
<path opacity="0.5" d="M132.293 224.063L71.6448 189.183C70.0962 188.294 68.3399 187.826 66.5523 187.826C64.7646 187.826 63.0084 188.294 61.4598 189.183L0.718866 224.032C0.497843 224.154 0.314258 224.334 0.187684 224.552C0.0611101 224.77 -0.00370153 225.018 0.000163275 225.27V245.721C-0.00150967 245.972 0.0642246 246.219 0.190574 246.437C0.316924 246.654 0.499302 246.834 0.718866 246.958L61.9629 282.175C63.3291 282.964 64.8805 283.38 66.4599 283.38C68.0393 283.38 69.5907 282.964 70.9569 282.175L132.293 246.989C132.514 246.868 132.697 246.69 132.823 246.474C132.95 246.258 133.015 246.012 133.012 245.762V225.31C133.016 225.057 132.951 224.808 132.824 224.589C132.698 224.369 132.514 224.188 132.293 224.063Z" fill="url(#paint14_linear_145_9222)"/>
<g opacity="0.11">
<path d="M71.6446 189.183C70.096 188.294 68.3397 187.826 66.5521 187.826C64.7644 187.826 63.0082 188.294 61.4596 189.183L0.718679 224.032C0.501135 224.157 0.320422 224.336 0.194759 224.553C0.0690953 224.769 0.00292969 225.015 0.00292969 225.264C0.00292969 225.514 0.0690953 225.76 0.194759 225.976C0.320422 226.193 0.501135 226.372 0.718679 226.497L61.9627 261.724C63.3306 262.508 64.8813 262.921 66.4597 262.921C68.0381 262.921 69.5888 262.508 70.9567 261.724L132.293 226.538C132.513 226.414 132.696 226.234 132.823 226.016C132.951 225.799 133.018 225.552 133.018 225.3C133.018 225.049 132.951 224.801 132.823 224.584C132.696 224.367 132.513 224.187 132.293 224.063L71.6446 189.183Z" fill="url(#paint15_linear_145_9222)"/>
</g>
<g opacity="0.5">
<path d="M68.6874 209.164C68.03 208.787 67.2847 208.589 66.5262 208.589C65.7676 208.589 65.0224 208.787 64.3649 209.164L37.1568 224.779C37.0585 224.834 36.9768 224.914 36.9199 225.011C36.863 225.108 36.833 225.219 36.833 225.331C36.833 225.443 36.863 225.554 36.9199 225.651C36.9768 225.748 37.0585 225.828 37.1568 225.883L64.4779 241.6C65.0878 241.952 65.7802 242.137 66.4851 242.137C67.19 242.137 67.8824 241.952 68.4924 241.6L95.8648 225.904C95.9604 225.846 96.0396 225.765 96.0946 225.669C96.1495 225.572 96.1784 225.463 96.1784 225.351C96.1784 225.24 96.1495 225.131 96.0946 225.034C96.0396 224.937 95.9604 224.856 95.8648 224.799L68.6874 209.164Z" fill="#42E8E0"/>
</g>
<path d="M37.1568 225.801L64.3649 210.187C65.0217 209.808 65.7672 209.608 66.5261 209.608C67.2851 209.608 68.0306 209.808 68.6874 210.187L95.8647 225.801L95.9263 225.863C96.0057 225.8 96.0688 225.72 96.1101 225.628C96.1515 225.536 96.17 225.436 96.1639 225.335C96.1579 225.235 96.1275 225.137 96.0754 225.051C96.0233 224.965 95.951 224.892 95.8647 224.84L68.6874 209.215C68.0299 208.839 67.2847 208.64 66.5261 208.64C65.7676 208.64 65.0223 208.839 64.3649 209.215L37.1568 224.779C37.0705 224.831 36.9982 224.903 36.9461 224.99C36.894 225.076 36.8636 225.173 36.8576 225.274C36.8515 225.374 36.87 225.475 36.9113 225.567C36.9527 225.658 37.0158 225.739 37.0952 225.801H37.1568Z" fill="#42E8E0"/>
<path d="M132.293 225.126L70.9565 260.313C69.5885 261.097 68.0378 261.51 66.4594 261.51C64.881 261.51 63.3303 261.097 61.9624 260.313L0.718378 225.096C0.497204 224.967 0.313244 224.784 0.184486 224.564C-0.000960386 224.891 -0.0489063 225.278 0.0511326 225.64C0.151171 226.002 0.391059 226.31 0.718378 226.497L61.9624 261.724C63.3303 262.508 64.881 262.921 66.4594 262.921C68.0378 262.921 69.5885 262.508 70.9565 261.724L132.293 226.538C132.456 226.445 132.6 226.322 132.715 226.174C132.83 226.026 132.915 225.857 132.965 225.677C133.015 225.496 133.028 225.308 133.004 225.122C132.98 224.936 132.92 224.757 132.827 224.595C132.704 224.819 132.518 225.004 132.293 225.126Z" fill="url(#paint16_linear_145_9222)"/>
<g opacity="0.11">
<path d="M313.633 219.758C312.081 218.874 310.324 218.409 308.535 218.409C306.747 218.409 304.99 218.874 303.438 219.758L242.697 254.597C242.479 254.722 242.299 254.903 242.174 255.12C242.048 255.337 241.982 255.583 241.982 255.834C241.982 256.084 242.048 256.33 242.174 256.547C242.299 256.765 242.479 256.945 242.697 257.071L303.941 292.268C305.307 293.057 306.858 293.472 308.438 293.472C310.017 293.472 311.569 293.057 312.935 292.268L374.271 257.112C374.489 256.986 374.669 256.805 374.794 256.588C374.92 256.371 374.986 256.125 374.986 255.875C374.986 255.624 374.92 255.378 374.794 255.161C374.669 254.944 374.489 254.763 374.271 254.637L313.633 219.758Z" fill="url(#paint17_linear_145_9222)"/>
</g>
<g opacity="0.11">
<path d="M313.633 209.573C312.084 208.681 310.325 208.211 308.535 208.211C306.746 208.211 304.987 208.681 303.438 209.573L242.697 244.412C242.479 244.538 242.299 244.718 242.174 244.935C242.048 245.153 241.982 245.399 241.982 245.649C241.982 245.9 242.048 246.146 242.174 246.363C242.299 246.58 242.479 246.76 242.697 246.886L303.941 282.103C305.309 282.888 306.859 283.3 308.438 283.3C310.016 283.3 311.567 282.888 312.935 282.103L374.271 246.917C374.489 246.791 374.669 246.611 374.794 246.393C374.92 246.176 374.986 245.93 374.986 245.68C374.986 245.429 374.92 245.183 374.794 244.966C374.669 244.749 374.489 244.568 374.271 244.443L313.633 209.573Z" fill="url(#paint18_linear_145_9222)"/>
</g>
<g opacity="0.11">
<path d="M313.633 199.378C312.081 198.494 310.324 198.029 308.535 198.029C306.747 198.029 304.99 198.494 303.438 199.378L242.697 234.227C242.479 234.353 242.299 234.534 242.174 234.751C242.048 234.968 241.982 235.214 241.982 235.464C241.982 235.715 242.048 235.961 242.174 236.178C242.299 236.395 242.479 236.576 242.697 236.702L303.941 271.919C305.307 272.708 306.858 273.124 308.438 273.124C310.017 273.124 311.569 272.708 312.935 271.919L374.271 236.722C374.489 236.596 374.669 236.416 374.794 236.199C374.92 235.981 374.986 235.735 374.986 235.485C374.986 235.234 374.92 234.988 374.794 234.771C374.669 234.554 374.489 234.374 374.271 234.248L313.633 199.378Z" fill="url(#paint19_linear_145_9222)"/>
</g>
<g opacity="0.11">
<path d="M313.633 189.183C312.081 188.299 310.324 187.834 308.536 187.834C306.748 187.834 304.99 188.299 303.438 189.183L242.697 224.032C242.48 224.157 242.299 224.336 242.173 224.553C242.048 224.769 241.981 225.015 241.981 225.264C241.981 225.514 242.048 225.76 242.173 225.976C242.299 226.193 242.48 226.372 242.697 226.497L303.941 261.724C305.309 262.508 306.86 262.921 308.438 262.921C310.017 262.921 311.567 262.508 312.935 261.724L374.272 226.538C374.489 226.412 374.669 226.231 374.795 226.014C374.92 225.797 374.986 225.551 374.986 225.3C374.986 225.05 374.92 224.804 374.795 224.587C374.669 224.369 374.489 224.189 374.272 224.063L313.633 189.183Z" fill="url(#paint20_linear_145_9222)"/>
</g>
<path opacity="0.5" d="M374.271 224.063L313.623 189.183C312.07 188.299 310.313 187.834 308.525 187.834C306.737 187.834 304.98 188.299 303.427 189.183L242.686 224.032C242.467 224.156 242.285 224.336 242.158 224.554C242.032 224.771 241.966 225.018 241.968 225.27V245.721C241.968 245.972 242.035 246.218 242.161 246.435C242.287 246.652 242.468 246.833 242.686 246.958L303.93 282.175C305.297 282.964 306.848 283.38 308.428 283.38C310.007 283.38 311.558 282.964 312.925 282.175L374.271 247.019C374.49 246.897 374.672 246.719 374.798 246.503C374.925 246.288 374.991 246.042 374.99 245.792V225.341C374.997 225.083 374.934 224.829 374.807 224.604C374.681 224.379 374.495 224.192 374.271 224.063Z" fill="url(#paint21_linear_145_9222)"/>
<g opacity="0.11">
<path d="M313.633 189.183C312.081 188.299 310.324 187.834 308.536 187.834C306.748 187.834 304.99 188.299 303.438 189.183L242.697 224.032C242.48 224.157 242.299 224.336 242.173 224.553C242.048 224.769 241.981 225.015 241.981 225.264C241.981 225.514 242.048 225.76 242.173 225.976C242.299 226.193 242.48 226.372 242.697 226.497L303.941 261.724C305.309 262.508 306.86 262.921 308.438 262.921C310.017 262.921 311.567 262.508 312.935 261.724L374.272 226.538C374.489 226.412 374.669 226.231 374.795 226.014C374.92 225.797 374.986 225.551 374.986 225.3C374.986 225.05 374.92 224.804 374.795 224.587C374.669 224.369 374.489 224.189 374.272 224.063L313.633 189.183Z" fill="url(#paint22_linear_145_9222)"/>
</g>
<g opacity="0.5">
<path d="M310.666 209.164C310.01 208.787 309.267 208.589 308.51 208.589C307.753 208.589 307.009 208.787 306.354 209.164L279.135 224.779C279.037 224.834 278.955 224.914 278.898 225.011C278.842 225.108 278.812 225.219 278.812 225.331C278.812 225.443 278.842 225.554 278.898 225.651C278.955 225.748 279.037 225.828 279.135 225.883L306.508 241.59C307.118 241.941 307.81 242.127 308.515 242.127C309.22 242.127 309.912 241.941 310.522 241.59L337.895 225.893C337.993 225.838 338.075 225.758 338.132 225.661C338.188 225.564 338.218 225.453 338.218 225.341C338.218 225.229 338.188 225.118 338.132 225.021C338.075 224.924 337.993 224.844 337.895 224.789L310.666 209.164Z" fill="#42E8E0"/>
</g>
<path d="M279.135 225.801L306.354 210.187C307.009 209.808 307.752 209.608 308.51 209.608C309.267 209.608 310.011 209.808 310.666 210.187L337.843 225.801C337.843 225.801 337.843 225.801 337.905 225.863C337.984 225.8 338.047 225.72 338.089 225.628C338.13 225.536 338.148 225.436 338.142 225.335C338.136 225.235 338.106 225.137 338.054 225.051C338.002 224.965 337.93 224.892 337.843 224.84L310.666 209.215C310.01 208.838 309.267 208.64 308.51 208.64C307.753 208.64 307.009 208.838 306.354 209.215L279.135 224.779C279.049 224.831 278.977 224.903 278.925 224.99C278.873 225.076 278.842 225.173 278.836 225.274C278.83 225.374 278.848 225.475 278.89 225.567C278.931 225.658 278.994 225.739 279.074 225.801H279.135Z" fill="#42E8E0"/>
<path d="M374.271 225.126L312.924 260.313C311.556 261.097 310.006 261.51 308.427 261.51C306.849 261.51 305.298 261.097 303.93 260.313L242.686 225.096C242.465 224.967 242.281 224.784 242.152 224.564C241.967 224.891 241.919 225.278 242.019 225.64C242.119 226.002 242.359 226.31 242.686 226.497L303.93 261.724C305.298 262.508 306.849 262.921 308.427 262.921C310.006 262.921 311.556 262.508 312.924 261.724L374.271 226.538C374.597 226.347 374.835 226.037 374.935 225.674C375.035 225.311 374.988 224.924 374.805 224.595C374.679 224.817 374.494 225.001 374.271 225.126Z" fill="url(#paint23_linear_145_9222)"/>
<path opacity="0.5" d="M358.521 139.906V103.657C357.679 91.3042 352.772 79.5346 344.537 68.7773V105.006C352.751 115.774 357.679 127.503 358.521 139.886V139.906ZM340.328 99.9244V63.6849C337.326 60.3308 334.109 57.1747 330.697 54.2365V90.4657C334.11 93.4074 337.327 96.5669 340.328 99.9244ZM324.732 85.6086V49.41C320.792 46.4228 316.696 43.6445 312.462 41.0864V77.3258C316.696 79.8805 320.791 82.6554 324.732 85.6392V85.6086ZM304.197 83.3283V25.7173C337.709 43.428 358.614 68.7466 358.614 96.7749V154.416C358.614 126.398 337.689 101.07 304.197 83.3589V83.3283Z" fill="#42E8E0"/>
<path opacity="0.5" d="M242.923 55.6885V45.2789C240.363 44.788 237.779 44.3347 235.171 43.9189V54.3285C237.779 54.7443 240.363 55.1977 242.923 55.6885ZM228.98 42.9986V33.7955C226.331 33.4274 223.654 33.0866 220.951 32.773V41.976C223.648 42.2691 226.324 42.61 228.98 42.9986ZM256.342 48.2034V35.6055C253.891 34.9988 251.41 34.4261 248.898 33.8876V46.4446C251.403 46.9899 253.885 47.5626 256.342 48.1625V48.2034ZM214.554 41.3932V22.8439C211.816 22.6122 209.078 22.4179 206.34 22.2611V40.8001C209.113 40.9535 211.864 41.158 214.554 41.3932ZM184.594 40.3706V21.8009C181.788 21.8418 178.999 21.9236 176.227 22.0463V40.5853C178.965 40.4763 181.754 40.3944 184.594 40.3399V40.3706ZM169.717 40.9739V17.6187C166.979 17.8027 164.241 18.0209 161.503 18.2731V41.5874C164.214 41.342 166.935 41.1171 169.717 40.9432V40.9739ZM199.728 40.4933V13.8148C197.223 13.733 194.697 13.6716 192.161 13.6511H191.268V40.3195H192.161C194.697 40.3195 197.223 40.4013 199.728 40.4831V40.4933ZM155.21 42.2521V8.88603C152.54 9.19279 149.891 9.53365 147.263 9.90859V43.2951C149.891 42.9202 152.54 42.5793 155.21 42.2725V42.2521ZM130.209 6.03309C150.573 1.77474 171.345 -0.241581 192.151 0.0204497C221.248 0.306766 248.498 4.76512 272.184 12.3832V70.035C248.498 62.4169 221.248 57.9586 192.151 57.662C171.345 57.4051 150.574 59.4214 130.209 63.6747V6.03309Z" fill="#42E8E0"/>
<path opacity="0.5" d="M31.726 84.2179V72.6119C28.349 77.4065 25.5896 82.6042 23.5122 88.0832V122.451C25.5919 116.977 28.3513 111.783 31.726 106.99V95.3842C32.7527 93.9424 33.7794 92.5313 34.9088 91.1201V97.3782C37.0828 94.6612 39.4067 92.0667 41.87 89.6068V83.3487C52.7943 72.4073 67.3327 62.8055 84.5509 55.075V43.9086C81.4844 45.2721 78.5069 46.707 75.6184 48.2136C74.1673 48.9635 72.7436 49.7236 71.3472 50.4939C60.9642 56.1022 51.3819 63.0697 42.8557 71.2109L41.8289 72.2335V65.9754C39.3631 68.4365 37.039 71.0346 34.8678 73.7571V80.0152C33.7452 81.4195 32.6843 82.8374 31.6849 84.269L31.726 84.2179ZM21.2432 83.86C27.8245 55.7294 55.4946 31.4948 94.7462 16.4223V74.0639C55.4946 89.1466 27.8245 113.371 21.2432 141.553V83.86Z" fill="#42E8E0"/>
<path opacity="0.75" d="M41.8696 72.1824L42.8963 71.1598V82.3262C49.1165 76.329 55.9469 70.9931 63.2768 66.4049C65.8846 64.7484 68.5883 63.1464 71.3879 61.5989V50.4939C72.7568 49.7168 74.1806 48.9567 75.659 48.2136V59.3697C78.5441 57.887 81.5216 56.4452 84.5915 55.075C67.3734 62.8055 52.835 72.4073 41.9107 83.3487V72.1824H41.8696ZM31.7256 84.2179C32.7318 82.7863 33.7927 81.3684 34.9084 79.964V91.1201C33.7893 92.5313 32.7318 93.9424 31.7256 95.3842V84.2179Z" fill="#42E8E0"/>
<path opacity="0.88" d="M75.6182 48.2136C78.5067 46.7207 81.4842 45.2857 84.5507 43.9086V55.0341C81.4705 56.4043 78.5033 57.8461 75.6182 59.3288V48.2136Z" fill="#42E8E0"/>
<path opacity="0.88" d="M42.8555 71.2109C49.0783 65.2167 55.9082 59.8811 63.2359 55.2897V66.456C55.906 71.0442 49.0757 76.3801 42.8555 82.3773V71.2109Z" fill="#42E8E0"/>
<path opacity="0.97" d="M63.2363 55.2897C65.8442 53.6468 68.5479 52.0482 71.3474 50.4939V61.65C68.5548 63.2043 65.851 64.8063 63.2363 66.456V55.2897Z" fill="#42E8E0"/>
<path opacity="0.75" d="M23.502 88.0832C25.5793 82.6042 28.3388 77.4065 31.7157 72.6118V84.2179C28.3388 89.0125 25.5793 94.2102 23.502 99.6892V110.845C25.5795 105.37 28.339 100.175 31.7157 95.3842V106.99C28.341 111.783 25.5817 116.977 23.502 122.451V88.0832Z" fill="#42E8E0"/>
<path opacity="0.88" d="M23.502 99.6892C25.5793 94.2102 28.3388 89.0125 31.7157 84.2179V95.3842C28.339 100.175 25.5795 105.37 23.502 110.845V99.6892Z" fill="#42E8E0"/>
<path opacity="0.75" d="M34.9092 91.1201C37.0831 88.4031 39.4071 85.8087 41.8704 83.3487V89.6068C39.4071 92.0667 37.0831 94.6612 34.9092 97.3782V91.1201ZM34.9092 73.7367C37.0804 71.0141 39.4045 68.4161 41.8704 65.955V72.2131C39.407 74.6765 37.083 77.2744 34.9092 79.9947V73.7367Z" fill="#42E8E0"/>
<path opacity="0.88" d="M34.9092 79.964C37.083 77.2437 39.407 74.6458 41.8704 72.1824V83.3487C39.4071 85.8087 37.0831 88.4031 34.9092 91.1201V79.964Z" fill="#42E8E0"/>
<path opacity="0.75" d="M344.496 68.7773C352.71 79.5346 357.638 91.2735 358.48 103.657V139.906C357.638 127.564 352.73 115.794 344.496 105.027V68.7773Z" fill="#42E8E0"/>
<path d="M330.697 54.2365C334.11 57.1747 337.327 60.3308 340.328 63.6849V99.9244C337.327 96.5669 334.11 93.4074 330.697 90.4657V54.2365Z" fill="#42E8E0"/>
<path opacity="0.75" d="M312.463 41.0864C316.697 43.6445 320.792 46.4228 324.732 49.41V85.6392C320.792 82.6554 316.696 79.8805 312.463 77.3258V41.0864Z" fill="#42E8E0"/>
<path opacity="0.75" d="M248.898 33.9285C251.404 34.4738 253.885 35.0465 256.342 35.6464V48.2034C253.892 47.6035 251.41 47.0309 248.898 46.4855V33.9285Z" fill="#42E8E0"/>
<path opacity="0.75" d="M235.171 43.9189C237.779 44.3415 240.363 44.7949 242.923 45.2789V55.6885C240.363 55.1977 237.779 54.7443 235.171 54.3285V43.9189Z" fill="#42E8E0"/>
<path opacity="0.75" d="M220.951 32.7934C223.648 33.0934 226.324 33.4342 228.98 33.816V43.019C226.331 42.6509 223.655 42.31 220.951 41.9965V32.7934Z" fill="#42E8E0"/>
<path opacity="0.75" d="M206.3 22.3122C209.072 22.4622 211.81 22.6565 214.514 22.8951V41.3931C211.783 41.158 209.031 40.9534 206.3 40.8001V22.3122Z" fill="#42E8E0"/>
<path opacity="0.75" d="M191.258 13.6409H192.151C194.687 13.6409 197.213 13.7227 199.718 13.8045V40.4933C197.213 40.4115 194.687 40.3501 192.151 40.3297H191.258V13.6409Z" fill="#42E8E0"/>
<path d="M176.227 22.0463C178.964 21.9236 181.754 21.8418 184.594 21.8009V40.3399C181.788 40.3944 178.999 40.4763 176.227 40.5853V22.0463Z" fill="#42E8E0"/>
<path opacity="0.75" d="M161.545 18.2731C164.283 18.0209 167.021 17.8027 169.759 17.6187V40.9432C167.017 41.1171 164.297 41.342 161.545 41.5874V18.2731Z" fill="#42E8E0"/>
<path d="M147.263 9.92904C149.891 9.54046 152.54 9.19961 155.21 8.90648V42.2521C152.54 42.5725 149.891 42.9133 147.263 43.2747V9.92904Z" fill="#42E8E0"/>
<g opacity="0.11">
<path d="M182.407 294.681C183.864 293.844 185.516 293.404 187.197 293.404C188.878 293.404 190.53 293.844 191.986 294.681L249.093 327.403C249.3 327.519 249.472 327.689 249.592 327.894C249.712 328.098 249.775 328.331 249.775 328.568C249.775 328.805 249.712 329.038 249.592 329.243C249.472 329.448 249.3 329.617 249.093 329.734L191.514 362.875C190.228 363.614 188.769 364.002 187.284 364.002C185.799 364.002 184.34 363.614 183.054 362.875L125.383 329.795C125.178 329.677 125.009 329.506 124.891 329.302C124.773 329.097 124.711 328.866 124.711 328.63C124.711 328.394 124.773 328.162 124.891 327.958C125.009 327.753 125.178 327.583 125.383 327.464L182.407 294.681Z" fill="url(#paint24_linear_145_9222)"/>
</g>
<g opacity="0.11">
<path d="M182.407 285.11C183.864 284.273 185.516 283.833 187.197 283.833C188.878 283.833 190.53 284.273 191.986 285.11L249.093 317.831C249.3 317.948 249.472 318.118 249.592 318.322C249.712 318.527 249.775 318.76 249.775 318.997C249.775 319.234 249.712 319.467 249.592 319.672C249.472 319.877 249.3 320.046 249.093 320.163L191.514 353.294C190.228 354.032 188.769 354.421 187.284 354.421C185.799 354.421 184.34 354.032 183.054 353.294L125.383 320.214C125.178 320.095 125.009 319.925 124.891 319.72C124.773 319.516 124.711 319.284 124.711 319.048C124.711 318.812 124.773 318.581 124.891 318.376C125.009 318.172 125.178 318.001 125.383 317.883L182.407 285.11Z" fill="url(#paint25_linear_145_9222)"/>
</g>
<g opacity="0.11">
<path d="M182.407 275.518C183.864 274.682 185.516 274.241 187.197 274.241C188.878 274.241 190.53 274.682 191.986 275.518L249.093 308.24C249.3 308.357 249.472 308.526 249.592 308.731C249.712 308.936 249.775 309.169 249.775 309.406C249.775 309.643 249.712 309.875 249.592 310.08C249.472 310.285 249.3 310.455 249.093 310.571L191.514 343.712C190.228 344.451 188.769 344.84 187.284 344.84C185.799 344.84 184.34 344.451 183.054 343.712L125.383 310.674C125.178 310.555 125.009 310.384 124.891 310.18C124.773 309.975 124.711 309.744 124.711 309.508C124.711 309.272 124.773 309.04 124.891 308.836C125.009 308.631 125.178 308.461 125.383 308.342L182.407 275.518Z" fill="url(#paint26_linear_145_9222)"/>
</g>
<g opacity="0.11">
<path d="M182.407 265.937C183.864 265.1 185.516 264.66 187.197 264.66C188.878 264.66 190.53 265.1 191.986 265.937L249.093 298.659C249.3 298.775 249.472 298.945 249.592 299.15C249.712 299.354 249.775 299.587 249.775 299.824C249.775 300.061 249.712 300.294 249.592 300.499C249.472 300.704 249.3 300.873 249.093 300.99L191.514 334.131C190.228 334.87 188.769 335.258 187.284 335.258C185.799 335.258 184.34 334.87 183.054 334.131L125.383 301.051C125.178 300.932 125.009 300.762 124.891 300.558C124.773 300.353 124.711 300.121 124.711 299.886C124.711 299.65 124.773 299.418 124.891 299.213C125.009 299.009 125.178 298.839 125.383 298.72L182.407 265.937Z" fill="url(#paint27_linear_145_9222)"/>
</g>
<path opacity="0.11" d="M125.383 298.72L182.407 265.937C183.864 265.1 185.516 264.66 187.197 264.66C188.878 264.66 190.53 265.1 191.987 265.937L249.093 298.659C249.3 298.775 249.472 298.945 249.591 299.15C249.71 299.355 249.772 299.587 249.771 299.824V328.568C249.771 328.805 249.709 329.037 249.59 329.242C249.471 329.447 249.299 329.617 249.093 329.734L191.514 362.875C190.228 363.614 188.769 364.002 187.284 364.002C185.799 364.002 184.341 363.614 183.054 362.875L125.383 329.795C125.18 329.675 125.012 329.505 124.895 329.3C124.778 329.096 124.716 328.865 124.716 328.63V299.886C124.716 299.65 124.778 299.419 124.895 299.215C125.012 299.011 125.18 298.84 125.383 298.72Z" fill="url(#paint28_linear_145_9222)"/>
<g opacity="0.11">
<path d="M181.381 242.438C183.148 241.423 185.152 240.889 187.192 240.889C189.232 240.889 191.236 241.423 193.004 242.438L262.246 282.165C262.493 282.308 262.698 282.513 262.841 282.76C262.983 283.006 263.058 283.286 263.058 283.571C263.058 283.855 262.983 284.135 262.841 284.382C262.698 284.629 262.493 284.834 262.246 284.977L192.429 325.133C190.868 326.03 189.097 326.503 187.295 326.503C185.493 326.503 183.722 326.03 182.161 325.133L112.231 285.018C111.984 284.873 111.779 284.667 111.637 284.42C111.495 284.172 111.42 283.892 111.42 283.606C111.42 283.321 111.495 283.041 111.637 282.793C111.779 282.546 111.984 282.34 112.231 282.195L181.381 242.438Z" fill="url(#paint29_linear_145_9222)"/>
</g>
<g opacity="0.11">
<path d="M181.381 230.822C183.148 229.807 185.152 229.273 187.192 229.273C189.232 229.273 191.236 229.807 193.004 230.822L262.246 270.538C262.493 270.683 262.698 270.889 262.84 271.136C262.982 271.384 263.057 271.664 263.057 271.949C263.057 272.235 262.982 272.515 262.84 272.762C262.698 273.01 262.493 273.216 262.246 273.36L192.429 313.506C190.868 314.404 189.097 314.876 187.295 314.876C185.493 314.876 183.722 314.404 182.161 313.506L112.231 273.401C111.984 273.257 111.779 273.051 111.637 272.803C111.495 272.556 111.42 272.275 111.42 271.99C111.42 271.705 111.495 271.425 111.637 271.177C111.779 270.93 111.984 270.723 112.231 270.579L181.381 230.822Z" fill="url(#paint30_linear_145_9222)"/>
</g>
<g opacity="0.11">
<path d="M181.381 219.206C183.149 218.193 185.153 217.66 187.192 217.66C189.232 217.66 191.236 218.193 193.004 219.206L262.246 258.932C262.493 259.076 262.698 259.283 262.84 259.53C262.982 259.778 263.057 260.058 263.057 260.343C263.057 260.629 262.982 260.909 262.84 261.156C262.698 261.404 262.493 261.61 262.246 261.754L192.429 301.9C190.868 302.798 189.097 303.27 187.295 303.27C185.493 303.27 183.722 302.798 182.161 301.9L112.231 261.795C111.984 261.651 111.779 261.445 111.637 261.197C111.495 260.95 111.42 260.669 111.42 260.384C111.42 260.099 111.495 259.819 111.637 259.571C111.779 259.324 111.984 259.117 112.231 258.973L181.381 219.206Z" fill="url(#paint31_linear_145_9222)"/>
</g>
<g opacity="0.11">
<path d="M181.381 207.59C183.149 206.577 185.153 206.043 187.192 206.043C189.232 206.043 191.236 206.577 193.004 207.59L262.246 247.275C262.493 247.419 262.698 247.626 262.84 247.873C262.982 248.121 263.057 248.401 263.057 248.686C263.057 248.971 262.982 249.252 262.84 249.499C262.698 249.747 262.493 249.953 262.246 250.097L192.429 290.243C190.868 291.14 189.097 291.613 187.295 291.613C185.493 291.613 183.722 291.14 182.161 290.243L112.231 250.138C111.984 249.994 111.779 249.788 111.637 249.54C111.495 249.293 111.42 249.012 111.42 248.727C111.42 248.442 111.495 248.161 111.637 247.914C111.779 247.666 111.984 247.46 112.231 247.316L181.381 207.59Z" fill="url(#paint32_linear_145_9222)"/>
</g>
<path opacity="0.5" d="M112.242 247.347L181.381 207.59C183.149 206.577 185.153 206.043 187.193 206.043C189.232 206.043 191.236 206.577 193.004 207.59L262.246 247.275C262.495 247.417 262.702 247.623 262.844 247.871C262.987 248.119 263.06 248.4 263.057 248.686V283.535C263.061 283.821 262.988 284.103 262.846 284.351C262.703 284.599 262.496 284.805 262.246 284.946L192.429 325.102C190.868 325.999 189.098 326.472 187.295 326.472C185.493 326.472 183.722 325.999 182.162 325.102L112.232 284.987C111.981 284.845 111.773 284.64 111.629 284.392C111.485 284.144 111.409 283.862 111.41 283.576V248.758C111.409 248.47 111.486 248.187 111.632 247.939C111.778 247.69 111.989 247.486 112.242 247.347Z" fill="url(#paint33_linear_145_9222)"/>
<g opacity="0.11">
<path d="M181.381 207.59C183.149 206.577 185.153 206.043 187.192 206.043C189.232 206.043 191.236 206.577 193.004 207.59L262.246 247.275C262.493 247.419 262.698 247.626 262.84 247.873C262.982 248.121 263.057 248.401 263.057 248.686C263.057 248.971 262.982 249.252 262.84 249.499C262.698 249.747 262.493 249.953 262.246 250.097L192.429 290.243C190.868 291.14 189.097 291.613 187.295 291.613C185.493 291.613 183.722 291.14 182.161 290.243L112.231 250.138C111.984 249.994 111.779 249.788 111.637 249.54C111.495 249.293 111.42 249.012 111.42 248.727C111.42 248.442 111.495 248.161 111.637 247.914C111.779 247.666 111.984 247.46 112.231 247.316L181.381 207.59Z" fill="url(#paint34_linear_145_9222)"/>
</g>
<path d="M112.242 248.563L182.172 288.668C183.733 289.566 185.503 290.038 187.305 290.038C189.108 290.038 190.878 289.566 192.439 288.668L262.256 248.523C262.508 248.379 262.717 248.17 262.862 247.919C263.074 248.293 263.129 248.734 263.016 249.148C262.902 249.561 262.629 249.914 262.256 250.128L192.439 290.274C190.878 291.171 189.108 291.644 187.305 291.644C185.503 291.644 183.733 291.171 182.172 290.274L112.242 250.169C111.868 249.953 111.595 249.599 111.481 249.183C111.368 248.768 111.424 248.325 111.636 247.95C111.777 248.206 111.986 248.419 112.242 248.563Z" fill="url(#paint35_linear_145_9222)"/>
<path opacity="0.2" d="M187.243 270.763C208.298 270.763 225.365 260.948 225.365 248.84C225.365 236.731 208.298 226.916 187.243 226.916C166.189 226.916 149.121 236.731 149.121 248.84C149.121 260.948 166.189 270.763 187.243 270.763Z" fill="#180D5B"/>
<path d="M201.781 230.249C201.781 230.249 202.705 231.221 203.671 232.295C205.133 233.616 206.746 234.762 208.476 235.71C209.605 236.415 214.811 240.342 215.899 244.207C216.987 248.073 213.27 248.594 209.461 247.919C205.652 247.244 202.11 243.747 201.073 242.489C198.341 239.833 195.2 237.627 191.771 235.955C187.099 233.552 189.923 230.321 189.923 230.321L201.781 230.249Z" fill="#160A5B"/>
<path d="M167.1 241.743C166.567 243.013 166.221 244.353 166.073 245.721C165.857 247.96 165.539 252.807 165.426 254.228C165.174 257.149 166.007 260.06 167.767 262.409C170.272 265.732 171.566 267.041 174.903 265.732C178.24 264.423 178.157 258.861 177.562 255.997C177 252.706 176.64 249.383 176.484 246.048C176.527 245.67 176.463 245.287 176.299 244.944L167.1 241.743Z" fill="#160A5B"/>
<path d="M213.25 164.54C213.25 164.54 212.552 190.104 206.566 203.642C203.777 212.101 202.146 220.896 201.72 229.789C201.996 230.509 202.102 231.283 202.031 232.051C201.96 232.818 201.713 233.559 201.309 234.217C199.913 236.211 191.134 238.031 189.687 231.497C188.239 224.963 188.793 212.743 190.385 207.651C191.976 202.559 189.82 188.509 189.82 188.509C189.82 188.509 187.407 190.012 184.327 200.125C181.247 210.238 178.875 214.062 177.787 216.854C176.699 219.645 175.734 236.743 176.401 245.087C176.401 245.087 169.296 246.109 167.243 242.714C165.189 239.319 164.501 221.834 165.015 216.251C165.528 210.667 167.879 192.793 167.561 187.261C167.243 181.729 166.082 177.24 167.355 171.718C168.629 166.196 206.114 153.926 206.114 153.926L213.25 164.54Z" fill="#24126A"/>
<path d="M167.51 187.261C167.191 181.739 166.031 177.24 167.304 171.718C167.777 169.673 173.372 166.605 180.169 163.64C191.648 162.617 206.207 161.38 207.203 161.533C208.994 162.012 210.747 162.621 212.449 163.354L213.25 164.54C213.25 164.54 213.25 166.094 213.055 168.63C210.375 169.428 205.231 168.63 205.231 168.63C204.502 170.43 200.036 176.811 194.471 179.541C188.906 182.271 172.633 181.351 171.699 182.394C170.764 183.437 170.59 197.425 170.672 199.205C170.754 200.984 169.132 212.171 167.592 222.069C166.052 231.967 168.372 243.645 168.444 244.023C167.916 243.703 167.469 243.266 167.14 242.745C165.087 239.36 164.399 221.864 164.912 216.281C165.425 210.698 167.828 192.793 167.51 187.261Z" fill="#160A5B"/>
<path d="M200.755 80.9968C200.755 80.9968 209.071 82.8886 211.864 83.543C212.095 83.5934 212.31 83.7002 212.489 83.8537C212.668 84.0072 212.806 84.2026 212.891 84.4224C213.702 86.4675 215.725 92.7869 214.195 102.021C213.08 108.292 212.653 114.666 212.922 121.03L216.762 140.97C216.762 140.97 221.597 159.969 221.187 160.48C220.776 160.992 210.047 169.131 206.7 167.986C203.353 166.841 204.451 164.918 204.451 164.918C204.451 164.918 201.73 178.692 189.718 178.559C177.705 178.426 167.89 178.467 165.846 173.63C163.803 168.794 166.411 148.455 168.526 140.407C170.641 132.36 175.713 116.306 175.713 116.306L158.115 96.8771L173.034 85.4961C173.034 85.4961 176.627 78.8495 178.095 78.011C179.563 77.1725 180.344 77.878 180.344 77.878L200.755 80.9968Z" fill="#453C9E"/>
<path d="M206.433 163.599C206.433 164.294 206.823 165.317 208.979 166.053C211.32 166.851 217.029 163.395 220.776 160.787C218.908 162.341 209.698 169.029 206.638 167.945C206.099 167.776 205.59 167.524 205.129 167.198C205.653 166.033 206.089 164.83 206.433 163.599Z" fill="url(#paint36_linear_145_9222)"/>
<path d="M165.847 172.045C168.003 177.158 178.352 177.107 191.032 177.25C193.833 177.319 196.586 176.526 198.918 174.98C197.689 176.169 196.234 177.101 194.638 177.721C193.042 178.341 191.338 178.636 189.626 178.59C177.613 178.457 167.798 178.498 165.755 173.651C165.087 172.066 164.923 168.804 165.067 164.857C165.067 168.068 165.293 170.655 165.847 172.045Z" fill="url(#paint37_linear_145_9222)"/>
<path d="M178.454 77.8371C178.454 77.8371 175.374 81.5388 179.799 86.5391C184.055 91.7311 187.868 97.2688 191.196 103.094C193.691 107.399 195.991 109.69 197.295 113.391C197.295 113.391 197.479 108.994 197.654 102.215C197.818 95.8137 197.9 89.1671 197.654 87.4901C197.028 84.085 181.853 76.1601 178.454 77.8371Z" fill="#F0F6FF"/>
<path d="M189.944 88.9728C189.944 88.9728 191.525 89.9953 192.059 89.8726C192.902 89.3937 193.673 88.7981 194.349 88.1036C194.349 88.1036 198.712 88.0218 199.184 86.1607C199.498 84.5693 199.91 82.9984 200.417 81.457C200.858 80.4958 202.737 75.8534 202.757 73.9718C202.778 72.0903 202.696 68.7159 203.517 66.9367C204.339 65.1574 205.427 47.324 188.116 47.8353C170.806 48.3465 176.206 66.2413 176.206 66.2413C176.206 66.2413 174.944 66.773 175.703 69.0738C176.463 71.3746 176.638 71.62 177.028 72.755C177.267 73.8471 177.858 74.8313 178.712 75.5568L178.999 77.6735C178.572 79.8945 179.049 82.1933 180.324 84.0645C182.5 87.1731 189.944 88.9728 189.944 88.9728Z" fill="#FCD1C5"/>
<path d="M212.296 83.7475C212.296 83.7475 214.134 84.0236 220.12 99.0041C223.456 107.358 228.6 116.019 229.689 122.237C230.777 128.454 230.171 135.09 228.939 135.53C227.707 135.97 206.269 143.986 199.544 146.512C199.458 146.543 199.366 146.556 199.275 146.548C199.183 146.541 199.095 146.514 199.015 146.469C198.935 146.425 198.865 146.363 198.811 146.29C198.758 146.216 198.72 146.131 198.702 146.042L196.844 135.704L210.191 130.591C211.575 128.903 213.243 127.468 215.119 126.347C215.119 126.347 212.44 121.439 212.614 120.099C212.789 118.76 212.378 104.904 213.939 99.2597C215.499 93.6152 212.296 83.7475 212.296 83.7475Z" fill="#24126A"/>
<path d="M204.482 123.341C204.482 123.341 206.32 122.114 206.772 121.94C207.224 121.766 209.688 120.917 210.15 120.723C210.977 120.606 211.817 120.606 212.645 120.723C212.773 120.736 212.897 120.78 213.004 120.851C213.111 120.923 213.2 121.019 213.261 121.132C213.826 122.155 215.407 125.222 215.222 126.388C215.222 126.388 210.786 129.18 210.294 130.427L209.585 130.581C209.585 130.581 206.608 124.261 204.482 123.341Z" fill="#FCD1C5"/>
<path d="M168.465 140.438C168.978 138.495 169.656 136.102 170.385 133.567L197.387 145.101C194.587 148.172 191.144 150.593 187.301 152.194C183.459 153.795 179.31 154.536 175.149 154.365C172.035 154.19 169.016 153.237 166.37 151.594C166.871 147.841 167.57 144.118 168.465 140.438Z" fill="#24126A"/>
<path d="M158.023 96.9589C158.023 96.9589 165.139 97.9815 170.899 107.021C174.733 113.278 178.059 119.829 180.847 126.613L181.043 127.789C181.163 128.51 181.447 129.195 181.874 129.789C182.301 130.384 182.859 130.873 183.505 131.22C184.152 131.567 184.869 131.761 185.603 131.788C186.336 131.816 187.066 131.676 187.737 131.378C193.805 128.658 202.809 124.568 204.483 123.341C206.238 124.457 207.749 125.915 208.925 127.626C210.102 129.337 210.92 131.267 211.331 133.301C212.501 138.884 212.204 138.904 212.204 138.904C212.204 138.904 188.23 150.05 178.969 149.938C169.708 149.825 157.962 119.506 156.668 113.238C155.374 106.97 153.947 98.7075 158.023 96.9589Z" fill="#24126A"/>
<path d="M158.023 96.9589C158.023 96.9589 165.139 97.9815 170.899 107.021C174.733 113.278 178.059 119.829 180.847 126.613L181.043 127.789C181.163 128.51 181.447 129.195 181.874 129.789C182.301 130.384 182.859 130.873 183.505 131.22C184.152 131.567 184.869 131.761 185.603 131.788C186.336 131.816 187.066 131.676 187.737 131.378C193.805 128.658 202.809 124.568 204.483 123.341C206.238 124.457 207.749 125.915 208.925 127.626C210.102 129.337 210.92 131.267 211.331 133.301C212.501 138.884 212.204 138.904 212.204 138.904C212.204 138.904 188.23 150.05 178.969 149.938C169.708 149.825 157.962 119.506 156.668 113.238C155.374 106.97 153.947 98.7075 158.023 96.9589Z" fill="#4846A5"/>
<path d="M184.328 132.748C184.328 132.748 181.309 135.561 179.995 134.016C178.681 132.472 179.061 132.309 179.061 132.309C179.061 132.309 176.34 132.309 175.981 130.581C175.621 128.853 174.307 129.783 174.225 127.891C174.143 126 176.432 126.388 176.432 126.388L184.328 132.748Z" fill="#453C9E"/>
<path d="M187.942 131.256C187.942 131.256 187.11 130.489 186.042 129.589C184.974 128.689 183.229 124.936 182.962 124.609C182.695 124.282 179.05 121.541 177.305 121.47C175.559 121.398 176.853 123.361 177.253 123.637C177.654 123.914 179.358 124.752 179.358 124.752C179.358 124.752 181.114 126.225 181.309 126.439C181.504 126.654 176.442 126.092 175.642 126.582C175.481 126.711 175.351 126.874 175.262 127.058C175.173 127.243 175.127 127.446 175.127 127.651C175.127 127.856 175.173 128.059 175.262 128.244C175.351 128.429 175.481 128.591 175.642 128.72C175.946 128.924 176.301 129.041 176.668 129.057C176.513 129.478 176.526 129.943 176.703 130.355C176.881 130.768 177.21 131.097 177.623 131.276C179.143 131.982 179.492 131.593 179.492 131.593C179.492 131.593 179.625 134.221 182.141 133.699L187.942 131.256Z" fill="#FCD1C5"/>
<path d="M203.907 57.8257C203.907 57.8257 206.156 64.9836 200.222 62.9385C194.287 60.8933 188.928 57.4984 187.049 58.8482C185.622 59.8708 185.693 62.8566 185.806 64.2473C185.839 64.7212 185.713 65.1925 185.447 65.5869L183.681 68.133C183.487 68.4228 183.37 68.7572 183.342 69.1045L183.219 70.8735C183.204 71.0901 183.111 71.2939 182.956 71.4464C182.8 71.599 182.595 71.6898 182.377 71.7018H181.977C181.757 71.7151 181.541 71.6473 181.368 71.5114C181.196 71.3756 181.08 71.1812 181.042 70.9655L180.58 68.3682C180.58 68.3682 179.184 64.8609 176.237 66.2413C176.237 66.2413 174.256 63.5929 174.913 57.9381C175.57 52.2834 178.116 46.4139 189.287 45.4732C200.458 44.5324 203.907 57.8257 203.907 57.8257Z" fill="#AA8383"/>
<path d="M186.884 95.2717L188.547 93.9833C189.422 94.7172 190.15 95.6087 190.693 96.6113C191.288 97.9713 190.693 102.266 190.693 102.266L191.206 103.135L191.833 102L192.356 96.8874C192.356 96.8874 191.792 93.1244 191.74 93.0323C190.664 93.091 189.591 93.2036 188.527 93.3698C187.859 93.8906 187.301 94.5368 186.884 95.2717Z" fill="#C4CCD6"/>
<path d="M194.893 90.2101C195.806 90.2618 196.693 90.5319 197.48 90.9974C197.48 90.9974 195.611 91.0895 195.314 91.1201C195.016 91.1508 194.893 90.2101 194.893 90.2101Z" fill="#C4CCD6"/>
<path d="M191.515 90.6089L188.527 93.4005C190.047 94.1224 191.241 95.3844 191.874 96.9385C191.874 96.9385 195.129 97.5418 195.427 96.3659C195.725 95.1899 195.427 92.2756 195.807 90.9259C196.187 89.5761 191.515 90.6089 191.515 90.6089Z" fill="#24126A"/>
<path d="M195.293 96.2943C195.556 97.482 195.948 98.6375 196.463 99.7403C197.069 100.763 197.685 101.877 197.685 101.877L197.613 116.193C197.613 116.193 192.336 105.364 191.196 103.166C191.196 103.166 191.371 97.9508 191.864 96.9692C192.356 95.9875 195.293 96.2943 195.293 96.2943Z" fill="#24126A"/>
<path d="M181.134 75.1887C184.595 85.1484 194.348 88.1036 194.348 88.1036C193.673 88.7981 192.902 89.3937 192.059 89.8726C191.525 89.9544 189.944 88.9728 189.944 88.9728C189.944 88.9728 182.5 87.1731 180.354 84.0338C179.079 82.1626 178.603 79.8638 179.03 77.6428L178.742 75.5261C179.134 75.6919 179.564 75.748 179.985 75.6886C180.407 75.6291 180.804 75.4563 181.134 75.1887Z" fill="#E2B1A6"/>
<path d="M173.208 86.8458C173.208 86.8458 174.574 91.5496 174.748 91.7235C175.898 91.7505 177.048 91.6855 178.188 91.5292L176.606 94.515C176.606 94.515 193.034 112.042 196.412 121.47C190.027 112.142 182.859 103.371 174.984 95.2513L176.914 92.3268L173.557 92.9812L173.208 86.8458Z" fill="#24126A"/>
<path d="M200.16 82.6943L201.033 83.7168L200.006 84.6678L203.086 87.398C203.086 87.398 204.01 106.571 200.304 119.271C200.304 119.271 205.335 107.624 204.195 86.8765L200.909 84.6576L201.987 83.635L200.16 82.6943Z" fill="#24126A"/>
<path d="M189.821 188.509L189.708 188.59L193.958 184.091C191.997 186.842 194.256 199.43 194.492 202.354C194.728 205.279 192.223 211.209 191.278 218.193C190.334 225.178 192.305 235.147 192.305 235.178C191.633 234.787 191.054 234.255 190.607 233.619C190.16 232.984 189.857 232.26 189.718 231.497C188.27 224.963 188.825 212.743 190.416 207.651C192.007 202.559 189.821 188.509 189.821 188.509Z" fill="#160A5B"/>
<path d="M178.968 149.938C169.728 149.825 157.961 119.506 156.668 113.238C156.452 112.216 156.237 111.091 156.031 109.976C156.031 110.068 158.465 116.613 160.785 122.41C163.105 128.208 175.488 145.98 181.812 147.126C187.511 148.148 208.024 138.638 211.998 136.747C212.357 138.884 212.203 138.904 212.203 138.904C212.203 138.904 188.229 150.05 178.968 149.938Z" fill="url(#paint38_linear_145_9222)"/>
<path d="M181.976 71.6711C181.757 71.6844 181.54 71.6166 181.368 71.4808C181.195 71.3449 181.079 71.1506 181.042 70.9349L180.58 68.3376C180.58 68.3376 179.183 64.8302 176.237 66.2106C176.237 66.2106 174.368 63.6951 174.871 58.3574C178.157 63.2657 185.446 65.5153 185.446 65.5153L183.68 68.0615C183.486 68.3512 183.37 68.6856 183.342 69.0329L183.218 70.8019C183.204 71.0185 183.11 71.2223 182.955 71.3748C182.8 71.5274 182.594 71.6182 182.376 71.6302L181.976 71.6711Z" fill="#936D6D"/>
<path opacity="0.5" d="M73.5444 216.66V206.915C75.502 207.958 77.5076 208.98 79.561 209.982V219.727C77.5076 218.732 75.502 217.709 73.5444 216.66ZM54.2934 204.481V186.535C55.9156 187.752 57.5892 188.958 59.3243 190.134V208.08C57.5926 206.901 55.9156 205.701 54.2934 204.481ZM63.4723 210.8V189.633C65.2725 190.772 67.1171 191.883 69.0063 192.967V214.144C67.1171 213.047 65.2725 211.932 63.4723 210.8ZM38.8309 190.584V167.066C40.0733 168.436 41.3875 169.786 42.7428 171.156V194.675C41.3875 193.345 40.0733 191.995 38.8309 190.584ZM46.018 197.742V172.291C47.4622 173.593 48.9578 174.871 50.5048 176.125V201.567C48.9647 200.305 47.4691 199.027 46.018 197.732V197.742ZM27.6089 175.246V147.637C28.4439 149.13 29.3372 150.606 30.2886 152.065V179.674C29.3372 178.208 28.4439 176.732 27.6089 175.246ZM32.6398 183.089V147.197C33.6871 148.629 34.7925 150.047 35.9561 151.451V187.343C34.7994 185.939 33.6939 184.521 32.6398 183.089ZM23.7689 167.106V126.552C24.3781 128.092 25.0626 129.623 25.8224 131.143V171.677C25.0968 170.164 24.4123 168.633 23.7689 167.086V167.106ZM91.9227 176.074C53.1948 160.542 26.4487 135.99 20.8428 107.87V165.521C26.4487 193.642 53.1948 218.183 91.9227 233.726V176.074Z" fill="#42E8E0"/>
<path opacity="0.5" d="M205.457 240.117V227.11C212.124 226.742 218.668 226.163 225.088 225.372V238.379C218.675 239.163 212.131 239.742 205.457 240.117ZM174.142 240.168V216.476C178.14 216.68 182.171 216.799 186.237 216.833C189.016 216.833 191.781 216.833 194.533 216.833V240.536C191.795 240.591 189.03 240.591 186.237 240.536C182.171 240.495 178.14 240.373 174.142 240.168ZM143.967 237.101V200.83C150.271 201.853 156.739 202.62 163.331 203.193V239.432C156.739 238.849 150.271 238.062 143.967 237.06V237.101ZM235.407 236.947V198.642C241.67 197.626 247.782 196.416 253.744 195.012V233.276C247.789 234.687 241.677 235.897 235.407 236.906V236.947ZM269.186 182.199C244.544 189.766 216.217 193.928 186.237 193.632C166.321 193.488 146.476 191.24 127.036 186.924V244.575C146.477 248.882 166.321 251.13 186.237 251.283C216.217 251.58 244.514 247.408 269.186 239.851V182.159V182.199Z" fill="#42E8E0"/>
<path opacity="0.5" d="M310.768 198.652V187.486C337.781 171.606 355.359 150.429 358.234 126.859V138.025C355.359 161.544 337.781 182.762 310.768 198.652ZM358.624 156.145V98.4928C357.761 126.695 335.882 151.86 301.661 169.213V226.824C335.882 209.44 357.761 184.296 358.624 156.104V156.145Z" fill="#42E8E0"/>
<path opacity="0.75" d="M358.234 126.859C355.359 150.377 337.782 171.606 310.769 187.486V198.652C337.782 182.762 355.359 161.585 358.234 138.025V126.859Z" fill="#42E8E0"/>
<path d="M163.331 203.193C156.739 202.62 150.271 201.822 143.967 200.83V237.049C150.271 238.072 156.739 238.839 163.331 239.422V203.193Z" fill="#42E8E0"/>
<path d="M225.088 225.372C218.674 226.163 212.131 226.742 205.457 227.11V240.117C212.124 239.749 218.668 239.17 225.088 238.379V225.372Z" fill="#42E8E0"/>
<path d="M253.744 195.012C247.789 196.416 241.677 197.626 235.407 198.642V236.906C241.67 235.89 247.783 234.68 253.744 233.276V195.012Z" fill="#42E8E0"/>
<path opacity="0.75" d="M194.533 216.803C191.795 216.85 189.03 216.85 186.237 216.803C182.172 216.762 178.14 216.643 174.143 216.445V240.138C178.14 240.342 182.172 240.465 186.237 240.506C189.016 240.506 191.782 240.506 194.533 240.506V216.803Z" fill="#42E8E0"/>
<path d="M25.8122 131.143C25.0867 129.63 24.4022 128.099 23.7588 126.552V167.086C24.368 168.627 25.0525 170.157 25.8122 171.677V131.143Z" fill="#42E8E0"/>
<path d="M30.3194 152.065C29.368 150.606 28.4747 149.13 27.6396 147.637V175.246C28.4747 176.739 29.368 178.215 30.3194 179.674V152.065Z" fill="#42E8E0"/>
<path opacity="0.75" d="M35.997 151.431C34.8402 150.026 33.7348 148.608 32.6807 147.177V183.069C33.7279 184.5 34.8334 185.918 35.997 187.322V151.431Z" fill="#42E8E0"/>
<path d="M42.7526 171.146C41.3974 169.816 40.0832 168.466 38.8408 167.055V190.574C40.0832 191.944 41.3974 193.294 42.7526 194.664V171.146Z" fill="#42E8E0"/>
<path opacity="0.75" d="M50.5454 176.125C49.0053 174.871 47.5097 173.593 46.0586 172.291V197.732C47.5028 199.027 48.9984 200.305 50.5454 201.567V176.125Z" fill="#42E8E0"/>
<path opacity="0.75" d="M59.3239 190.134C57.5887 188.959 55.9152 187.752 54.293 186.535V204.481C55.9152 205.708 57.5922 206.908 59.3239 208.08V190.134Z" fill="#42E8E0"/>
<path opacity="0.75" d="M69.0057 192.967C67.1165 191.883 65.2719 190.772 63.4717 189.633V210.8C65.2719 211.939 67.1165 213.053 69.0057 214.144V192.967Z" fill="#42E8E0"/>
<path opacity="0.75" d="M79.6016 209.972C77.5481 208.984 75.5426 207.961 73.585 206.904V216.649C75.5426 217.692 77.5481 218.715 79.6016 219.717V209.972Z" fill="#42E8E0"/>
</g>
<defs>
<linearGradient id="paint0_linear_145_9222" x1="100.362" y1="223.204" x2="148.094" y2="223.204" gradientUnits="userSpaceOnUse">
<stop stop-color="#5761D7"/>
<stop offset="0.07" stop-color="#5472D8"/>
<stop offset="0.28" stop-color="#4E9CDB"/>
<stop offset="0.48" stop-color="#49BDDD"/>
<stop offset="0.67" stop-color="#45D5DF"/>
<stop offset="0.85" stop-color="#43E3E0"/>
<stop offset="1" stop-color="#42E8E0"/>
</linearGradient>
<linearGradient id="paint1_linear_145_9222" x1="227.45" y1="223.132" x2="274.905" y2="223.132" gradientUnits="userSpaceOnUse">
<stop stop-color="#42E8E0"/>
<stop offset="0.15" stop-color="#43E3E0"/>
<stop offset="0.33" stop-color="#45D5DF"/>
<stop offset="0.52" stop-color="#49BDDD"/>
<stop offset="0.72" stop-color="#4E9CDB"/>
<stop offset="0.93" stop-color="#5472D8"/>
<stop offset="1" stop-color="#5761D7"/>
</linearGradient>
<linearGradient id="paint2_linear_145_9222" x1="97.9499" y1="301.123" x2="276.754" y2="301.123" gradientUnits="userSpaceOnUse">
<stop stop-color="#5761D7"/>
<stop offset="0.07" stop-color="#5472D8"/>
<stop offset="0.28" stop-color="#4E9CDB"/>
<stop offset="0.48" stop-color="#49BDDD"/>
<stop offset="0.67" stop-color="#45D5DF"/>
<stop offset="0.85" stop-color="#43E3E0"/>
<stop offset="1" stop-color="#42E8E0"/>
</linearGradient>
<linearGradient id="paint3_linear_145_9222" x1="70.4639" y1="182.792" x2="271.168" y2="182.792" gradientUnits="userSpaceOnUse">
<stop stop-color="#5761D7"/>
<stop offset="0.16" stop-color="#5E67DA"/>
<stop offset="0.41" stop-color="#727AE2"/>
<stop offset="0.69" stop-color="#9297EE"/>
<stop offset="1" stop-color="#BCBEFF"/>
</linearGradient>
<linearGradient id="paint4_linear_145_9222" x1="127.263" y1="155.776" x2="247.728" y2="155.776" gradientUnits="userSpaceOnUse">
<stop stop-color="#42E8E0"/>
<stop offset="0.15" stop-color="#43E3E0"/>
<stop offset="0.33" stop-color="#45D5DF"/>
<stop offset="0.52" stop-color="#49BDDD"/>
<stop offset="0.72" stop-color="#4E9CDB"/>
<stop offset="0.93" stop-color="#5472D8"/>
<stop offset="1" stop-color="#5761D7"/>
</linearGradient>
<linearGradient id="paint5_linear_145_9222" x1="187.5" y1="134.098" x2="247.728" y2="134.098" gradientUnits="userSpaceOnUse">
<stop stop-color="#42E8E0"/>
<stop offset="0.15" stop-color="#43E3E0"/>
<stop offset="0.33" stop-color="#45D5DF"/>
<stop offset="0.52" stop-color="#49BDDD"/>
<stop offset="0.72" stop-color="#4E9CDB"/>
<stop offset="0.93" stop-color="#5472D8"/>
<stop offset="1" stop-color="#5761D7"/>
</linearGradient>
<linearGradient id="paint6_linear_145_9222" x1="127.263" y1="134.098" x2="187.5" y2="134.098" gradientUnits="userSpaceOnUse">
<stop stop-color="#42E8E0"/>
<stop offset="0.15" stop-color="#43E3E0"/>
<stop offset="0.33" stop-color="#45D5DF"/>
<stop offset="0.52" stop-color="#49BDDD"/>
<stop offset="0.72" stop-color="#4E9CDB"/>
<stop offset="0.93" stop-color="#5472D8"/>
<stop offset="1" stop-color="#5761D7"/>
</linearGradient>
<linearGradient id="paint7_linear_145_9222" x1="127.263" y1="147.044" x2="247.728" y2="147.044" gradientUnits="userSpaceOnUse">
<stop stop-color="#42E8E0"/>
<stop offset="0.15" stop-color="#43E3E0"/>
<stop offset="0.33" stop-color="#45D5DF"/>
<stop offset="0.52" stop-color="#49BDDD"/>
<stop offset="0.72" stop-color="#4E9CDB"/>
<stop offset="0.93" stop-color="#5472D8"/>
<stop offset="1" stop-color="#5761D7"/>
</linearGradient>
<linearGradient id="paint8_linear_145_9222" x1="187.5" y1="168.732" x2="247.728" y2="168.732" gradientUnits="userSpaceOnUse">
<stop stop-color="#42E8E0"/>
<stop offset="0.15" stop-color="#43E3E0"/>
<stop offset="0.33" stop-color="#45D5DF"/>
<stop offset="0.52" stop-color="#49BDDD"/>
<stop offset="0.72" stop-color="#4E9CDB"/>
<stop offset="0.93" stop-color="#5472D8"/>
<stop offset="1" stop-color="#5761D7"/>
</linearGradient>
<linearGradient id="paint9_linear_145_9222" x1="127.263" y1="168.732" x2="187.5" y2="168.732" gradientUnits="userSpaceOnUse">
<stop stop-color="#42E8E0"/>
<stop offset="0.15" stop-color="#43E3E0"/>
<stop offset="0.33" stop-color="#45D5DF"/>
<stop offset="0.52" stop-color="#49BDDD"/>
<stop offset="0.72" stop-color="#4E9CDB"/>
<stop offset="0.93" stop-color="#5472D8"/>
<stop offset="1" stop-color="#5761D7"/>
</linearGradient>
<linearGradient id="paint10_linear_145_9222" x1="0.000568859" y1="255.946" x2="133.012" y2="255.946" gradientUnits="userSpaceOnUse">
<stop stop-color="#5761D7"/>
<stop offset="0.07" stop-color="#5472D8"/>
<stop offset="0.28" stop-color="#4E9CDB"/>
<stop offset="0.48" stop-color="#49BDDD"/>
<stop offset="0.67" stop-color="#45D5DF"/>
<stop offset="0.85" stop-color="#43E3E0"/>
<stop offset="1" stop-color="#42E8E0"/>
</linearGradient>
<linearGradient id="paint11_linear_145_9222" x1="0.000568859" y1="245.751" x2="133.012" y2="245.751" gradientUnits="userSpaceOnUse">
<stop stop-color="#5761D7"/>
<stop offset="0.07" stop-color="#5472D8"/>
<stop offset="0.28" stop-color="#4E9CDB"/>
<stop offset="0.48" stop-color="#49BDDD"/>
<stop offset="0.67" stop-color="#45D5DF"/>
<stop offset="0.85" stop-color="#43E3E0"/>
<stop offset="1" stop-color="#42E8E0"/>
</linearGradient>
<linearGradient id="paint12_linear_145_9222" x1="0.000568859" y1="235.567" x2="133.012" y2="235.567" gradientUnits="userSpaceOnUse">
<stop stop-color="#5761D7"/>
<stop offset="0.07" stop-color="#5472D8"/>
<stop offset="0.28" stop-color="#4E9CDB"/>
<stop offset="0.48" stop-color="#49BDDD"/>
<stop offset="0.67" stop-color="#45D5DF"/>
<stop offset="0.85" stop-color="#43E3E0"/>
<stop offset="1" stop-color="#42E8E0"/>
</linearGradient>
<linearGradient id="paint13_linear_145_9222" x1="-2.15708e-05" y1="225.372" x2="133.012" y2="225.372" gradientUnits="userSpaceOnUse">
<stop stop-color="#5761D7"/>
<stop offset="0.07" stop-color="#5472D8"/>
<stop offset="0.28" stop-color="#4E9CDB"/>
<stop offset="0.48" stop-color="#49BDDD"/>
<stop offset="0.67" stop-color="#45D5DF"/>
<stop offset="0.85" stop-color="#43E3E0"/>
<stop offset="1" stop-color="#42E8E0"/>
</linearGradient>
<linearGradient id="paint14_linear_145_9222" x1="0.000163277" y1="235.618" x2="133.012" y2="235.618" gradientUnits="userSpaceOnUse">
<stop stop-color="#5761D7"/>
<stop offset="0.07" stop-color="#5472D8"/>
<stop offset="0.28" stop-color="#4E9CDB"/>
<stop offset="0.48" stop-color="#49BDDD"/>
<stop offset="0.67" stop-color="#45D5DF"/>
<stop offset="0.85" stop-color="#43E3E0"/>
<stop offset="1" stop-color="#42E8E0"/>
</linearGradient>
<linearGradient id="paint15_linear_145_9222" x1="-2.15708e-05" y1="225.372" x2="133.012" y2="225.372" gradientUnits="userSpaceOnUse">
<stop stop-color="#5761D7"/>
<stop offset="0.07" stop-color="#5472D8"/>
<stop offset="0.28" stop-color="#4E9CDB"/>
<stop offset="0.48" stop-color="#49BDDD"/>
<stop offset="0.67" stop-color="#45D5DF"/>
<stop offset="0.85" stop-color="#43E3E0"/>
<stop offset="1" stop-color="#42E8E0"/>
</linearGradient>
<linearGradient id="paint16_linear_145_9222" x1="-0.000327141" y1="243.737" x2="133.012" y2="243.737" gradientUnits="userSpaceOnUse">
<stop stop-color="#5761D7"/>
<stop offset="0.07" stop-color="#5472D8"/>
<stop offset="0.28" stop-color="#4E9CDB"/>
<stop offset="0.48" stop-color="#49BDDD"/>
<stop offset="0.67" stop-color="#45D5DF"/>
<stop offset="0.85" stop-color="#43E3E0"/>
<stop offset="1" stop-color="#42E8E0"/>
</linearGradient>
<linearGradient id="paint17_linear_145_9222" x1="241.978" y1="255.946" x2="375" y2="255.946" gradientUnits="userSpaceOnUse">
<stop stop-color="#5761D7"/>
<stop offset="0.07" stop-color="#5472D8"/>
<stop offset="0.28" stop-color="#4E9CDB"/>
<stop offset="0.48" stop-color="#49BDDD"/>
<stop offset="0.67" stop-color="#45D5DF"/>
<stop offset="0.85" stop-color="#43E3E0"/>
<stop offset="1" stop-color="#42E8E0"/>
</linearGradient>
<linearGradient id="paint18_linear_145_9222" x1="241.978" y1="245.751" x2="375" y2="245.751" gradientUnits="userSpaceOnUse">
<stop stop-color="#5761D7"/>
<stop offset="0.07" stop-color="#5472D8"/>
<stop offset="0.28" stop-color="#4E9CDB"/>
<stop offset="0.48" stop-color="#49BDDD"/>
<stop offset="0.67" stop-color="#45D5DF"/>
<stop offset="0.85" stop-color="#43E3E0"/>
<stop offset="1" stop-color="#42E8E0"/>
</linearGradient>
<linearGradient id="paint19_linear_145_9222" x1="241.978" y1="235.567" x2="375" y2="235.567" gradientUnits="userSpaceOnUse">
<stop stop-color="#5761D7"/>
<stop offset="0.07" stop-color="#5472D8"/>
<stop offset="0.28" stop-color="#4E9CDB"/>
<stop offset="0.48" stop-color="#49BDDD"/>
<stop offset="0.67" stop-color="#45D5DF"/>
<stop offset="0.85" stop-color="#43E3E0"/>
<stop offset="1" stop-color="#42E8E0"/>
</linearGradient>
<linearGradient id="paint20_linear_145_9222" x1="241.978" y1="225.372" x2="375.001" y2="225.372" gradientUnits="userSpaceOnUse">
<stop stop-color="#5761D7"/>
<stop offset="0.07" stop-color="#5472D8"/>
<stop offset="0.28" stop-color="#4E9CDB"/>
<stop offset="0.48" stop-color="#49BDDD"/>
<stop offset="0.67" stop-color="#45D5DF"/>
<stop offset="0.85" stop-color="#43E3E0"/>
<stop offset="1" stop-color="#42E8E0"/>
</linearGradient>
<linearGradient id="paint21_linear_145_9222" x1="241.978" y1="235.618" x2="375" y2="235.618" gradientUnits="userSpaceOnUse">
<stop stop-color="#5761D7"/>
<stop offset="0.07" stop-color="#5472D8"/>
<stop offset="0.28" stop-color="#4E9CDB"/>
<stop offset="0.48" stop-color="#49BDDD"/>
<stop offset="0.67" stop-color="#45D5DF"/>
<stop offset="0.85" stop-color="#43E3E0"/>
<stop offset="1" stop-color="#42E8E0"/>
</linearGradient>
<linearGradient id="paint22_linear_145_9222" x1="241.978" y1="225.372" x2="375.001" y2="225.372" gradientUnits="userSpaceOnUse">
<stop stop-color="#5761D7"/>
<stop offset="0.07" stop-color="#5472D8"/>
<stop offset="0.28" stop-color="#4E9CDB"/>
<stop offset="0.48" stop-color="#49BDDD"/>
<stop offset="0.67" stop-color="#45D5DF"/>
<stop offset="0.85" stop-color="#43E3E0"/>
<stop offset="1" stop-color="#42E8E0"/>
</linearGradient>
<linearGradient id="paint23_linear_145_9222" x1="241.978" y1="243.737" x2="375" y2="243.737" gradientUnits="userSpaceOnUse">
<stop stop-color="#5761D7"/>
<stop offset="0.07" stop-color="#5472D8"/>
<stop offset="0.28" stop-color="#4E9CDB"/>
<stop offset="0.48" stop-color="#49BDDD"/>
<stop offset="0.67" stop-color="#45D5DF"/>
<stop offset="0.85" stop-color="#43E3E0"/>
<stop offset="1" stop-color="#42E8E0"/>
</linearGradient>
<linearGradient id="paint24_linear_145_9222" x1="249.77" y1="328.701" x2="124.705" y2="328.701" gradientUnits="userSpaceOnUse">
<stop stop-color="#5761D7"/>
<stop offset="0.07" stop-color="#5472D8"/>
<stop offset="0.28" stop-color="#4E9CDB"/>
<stop offset="0.48" stop-color="#49BDDD"/>
<stop offset="0.67" stop-color="#45D5DF"/>
<stop offset="0.85" stop-color="#43E3E0"/>
<stop offset="1" stop-color="#42E8E0"/>
</linearGradient>
<linearGradient id="paint25_linear_145_9222" x1="249.77" y1="319.12" x2="124.705" y2="319.12" gradientUnits="userSpaceOnUse">
<stop stop-color="#5761D7"/>
<stop offset="0.07" stop-color="#5472D8"/>
<stop offset="0.28" stop-color="#4E9CDB"/>
<stop offset="0.48" stop-color="#49BDDD"/>
<stop offset="0.67" stop-color="#45D5DF"/>
<stop offset="0.85" stop-color="#43E3E0"/>
<stop offset="1" stop-color="#42E8E0"/>
</linearGradient>
<linearGradient id="paint26_linear_145_9222" x1="249.77" y1="309.539" x2="124.705" y2="309.539" gradientUnits="userSpaceOnUse">
<stop stop-color="#5761D7"/>
<stop offset="0.07" stop-color="#5472D8"/>
<stop offset="0.28" stop-color="#4E9CDB"/>
<stop offset="0.48" stop-color="#49BDDD"/>
<stop offset="0.67" stop-color="#45D5DF"/>
<stop offset="0.85" stop-color="#43E3E0"/>
<stop offset="1" stop-color="#42E8E0"/>
</linearGradient>
<linearGradient id="paint27_linear_145_9222" x1="249.77" y1="299.957" x2="124.705" y2="299.957" gradientUnits="userSpaceOnUse">
<stop stop-color="#5761D7"/>
<stop offset="0.07" stop-color="#5472D8"/>
<stop offset="0.28" stop-color="#4E9CDB"/>
<stop offset="0.48" stop-color="#49BDDD"/>
<stop offset="0.67" stop-color="#45D5DF"/>
<stop offset="0.85" stop-color="#43E3E0"/>
<stop offset="1" stop-color="#42E8E0"/>
</linearGradient>
<linearGradient id="paint28_linear_145_9222" x1="249.771" y1="314.324" x2="124.706" y2="314.324" gradientUnits="userSpaceOnUse">
<stop stop-color="#5761D7"/>
<stop offset="0.07" stop-color="#5472D8"/>
<stop offset="0.28" stop-color="#4E9CDB"/>
<stop offset="0.48" stop-color="#49BDDD"/>
<stop offset="0.67" stop-color="#45D5DF"/>
<stop offset="0.85" stop-color="#43E3E0"/>
<stop offset="1" stop-color="#42E8E0"/>
</linearGradient>
<linearGradient id="paint29_linear_145_9222" x1="263.057" y1="283.688" x2="111.42" y2="283.688" gradientUnits="userSpaceOnUse">
<stop stop-color="#5761D7"/>
<stop offset="0.07" stop-color="#5472D8"/>
<stop offset="0.28" stop-color="#4E9CDB"/>
<stop offset="0.48" stop-color="#49BDDD"/>
<stop offset="0.67" stop-color="#45D5DF"/>
<stop offset="0.85" stop-color="#43E3E0"/>
<stop offset="1" stop-color="#42E8E0"/>
</linearGradient>
<linearGradient id="paint30_linear_145_9222" x1="263.057" y1="272.072" x2="111.42" y2="272.072" gradientUnits="userSpaceOnUse">
<stop stop-color="#5761D7"/>
<stop offset="0.07" stop-color="#5472D8"/>
<stop offset="0.28" stop-color="#4E9CDB"/>
<stop offset="0.48" stop-color="#49BDDD"/>
<stop offset="0.67" stop-color="#45D5DF"/>
<stop offset="0.85" stop-color="#43E3E0"/>
<stop offset="1" stop-color="#42E8E0"/>
</linearGradient>
<linearGradient id="paint31_linear_145_9222" x1="263.057" y1="260.456" x2="111.42" y2="260.456" gradientUnits="userSpaceOnUse">
<stop stop-color="#5761D7"/>
<stop offset="0.07" stop-color="#5472D8"/>
<stop offset="0.28" stop-color="#4E9CDB"/>
<stop offset="0.48" stop-color="#49BDDD"/>
<stop offset="0.67" stop-color="#45D5DF"/>
<stop offset="0.85" stop-color="#43E3E0"/>
<stop offset="1" stop-color="#42E8E0"/>
</linearGradient>
<linearGradient id="paint32_linear_145_9222" x1="263.057" y1="248.839" x2="111.42" y2="248.839" gradientUnits="userSpaceOnUse">
<stop stop-color="#5761D7"/>
<stop offset="0.07" stop-color="#5472D8"/>
<stop offset="0.28" stop-color="#4E9CDB"/>
<stop offset="0.48" stop-color="#49BDDD"/>
<stop offset="0.67" stop-color="#45D5DF"/>
<stop offset="0.85" stop-color="#43E3E0"/>
<stop offset="1" stop-color="#42E8E0"/>
</linearGradient>
<linearGradient id="paint33_linear_145_9222" x1="263.057" y1="266.264" x2="111.42" y2="266.264" gradientUnits="userSpaceOnUse">
<stop stop-color="#5761D7"/>
<stop offset="0.07" stop-color="#5472D8"/>
<stop offset="0.28" stop-color="#4E9CDB"/>
<stop offset="0.48" stop-color="#49BDDD"/>
<stop offset="0.67" stop-color="#45D5DF"/>
<stop offset="0.85" stop-color="#43E3E0"/>
<stop offset="1" stop-color="#42E8E0"/>
</linearGradient>
<linearGradient id="paint34_linear_145_9222" x1="263.057" y1="248.839" x2="111.42" y2="248.839" gradientUnits="userSpaceOnUse">
<stop stop-color="#5761D7"/>
<stop offset="0.07" stop-color="#5472D8"/>
<stop offset="0.28" stop-color="#4E9CDB"/>
<stop offset="0.48" stop-color="#49BDDD"/>
<stop offset="0.67" stop-color="#45D5DF"/>
<stop offset="0.85" stop-color="#43E3E0"/>
<stop offset="1" stop-color="#42E8E0"/>
</linearGradient>
<linearGradient id="paint35_linear_145_9222" x1="263.057" y1="269.782" x2="111.42" y2="269.782" gradientUnits="userSpaceOnUse">
<stop stop-color="#5761D7"/>
<stop offset="0.07" stop-color="#5472D8"/>
<stop offset="0.28" stop-color="#4E9CDB"/>
<stop offset="0.48" stop-color="#49BDDD"/>
<stop offset="0.67" stop-color="#45D5DF"/>
<stop offset="0.85" stop-color="#43E3E0"/>
<stop offset="1" stop-color="#42E8E0"/>
</linearGradient>
<linearGradient id="paint36_linear_145_9222" x1="221.256" y1="164.843" x2="205.25" y2="165.807" gradientUnits="userSpaceOnUse">
<stop stop-color="#5761D7"/>
<stop offset="0.07" stop-color="#5472D8"/>
<stop offset="0.28" stop-color="#4E9CDB"/>
<stop offset="0.48" stop-color="#49BDDD"/>
<stop offset="0.67" stop-color="#45D5DF"/>
<stop offset="0.85" stop-color="#43E3E0"/>
<stop offset="1" stop-color="#42E8E0"/>
</linearGradient>
<linearGradient id="paint37_linear_145_9222" x1="198.95" y1="171.369" x2="165.469" y2="173.386" gradientUnits="userSpaceOnUse">
<stop stop-color="#5761D7"/>
<stop offset="0.07" stop-color="#5472D8"/>
<stop offset="0.28" stop-color="#4E9CDB"/>
<stop offset="0.48" stop-color="#49BDDD"/>
<stop offset="0.67" stop-color="#45D5DF"/>
<stop offset="0.85" stop-color="#43E3E0"/>
<stop offset="1" stop-color="#42E8E0"/>
</linearGradient>
<linearGradient id="paint38_linear_145_9222" x1="211.783" y1="128.177" x2="157.338" y2="131.457" gradientUnits="userSpaceOnUse">
<stop stop-color="#5761D7"/>
<stop offset="0.07" stop-color="#5472D8"/>
<stop offset="0.28" stop-color="#4E9CDB"/>
<stop offset="0.48" stop-color="#49BDDD"/>
<stop offset="0.67" stop-color="#45D5DF"/>
<stop offset="0.85" stop-color="#43E3E0"/>
<stop offset="1" stop-color="#42E8E0"/>
</linearGradient>
<clipPath id="clip0_145_9222">
<rect width="375" height="364" fill="white"/>
</clipPath>
</defs>
</svg>
