<svg width="49" height="48" viewBox="0 0 49 48" fill="none" xmlns="http://www.w3.org/2000/svg">
<path d="M33.2656 17.0625C24.7362 17.0625 17.7969 24.0018 17.7969 32.5312C17.7969 41.0607 24.7362 48 33.2656 48C41.7951 48 48.7344 41.0607 48.7344 32.5312C48.7344 24.0018 41.7951 17.0625 33.2656 17.0625ZM33.2656 31.125C35.5919 31.125 37.4844 33.0174 37.4844 35.3438C37.4844 37.1747 36.3052 38.721 34.6719 39.3035V42.375H31.8594V39.3035C30.2261 38.721 29.0469 37.1747 29.0469 35.3438H31.8594C31.8594 36.1196 32.4897 36.75 33.2656 36.75C34.0415 36.75 34.6719 36.1196 34.6719 35.3438C34.6719 34.5679 34.0415 33.9375 33.2656 33.9375C30.9393 33.9375 29.0469 32.0451 29.0469 29.7188C29.0469 27.8878 30.2261 26.3415 31.8594 25.759V22.6875H34.6719V25.759C36.3052 26.3415 37.4844 27.8878 37.4844 29.7188H34.6719C34.6719 28.9429 34.0415 28.3125 33.2656 28.3125C32.4897 28.3125 31.8594 28.9429 31.8594 29.7188C31.8594 30.4946 32.4897 31.125 33.2656 31.125ZM16.3906 17.0625C25.0644 17.0625 31.8594 13.356 31.8594 8.625C31.8594 3.894 25.0644 0 16.3906 0C7.71688 0 0.734375 3.894 0.734375 8.625C0.734375 13.356 7.71688 17.0625 16.3906 17.0625ZM0.734375 31.6462V33.9375C0.734375 38.6685 7.71688 42.375 16.3906 42.375C16.8826 42.375 17.3593 42.3297 17.8438 42.306C16.7503 40.588 15.9536 38.6984 15.4869 36.7162C9.21453 36.543 3.76831 34.6156 0.734375 31.6462ZM15.052 33.8659C15.0197 33.4236 14.9844 32.9817 14.9844 32.5312C14.9844 31.0653 15.1765 29.6465 15.504 28.2794C9.22391 28.1093 3.77103 26.1808 0.734375 23.2087V25.5C0.734375 29.98 7.04019 33.5008 15.052 33.8659ZM16.3906 25.5L16.3949 25.4998C17.316 23.2986 18.6578 21.2982 20.3449 19.6108C19.0749 19.7713 17.7624 19.875 16.3906 19.875C9.71403 19.875 3.91494 17.884 0.734375 14.7712V17.0625C0.734375 21.7935 7.71688 25.5 16.3906 25.5Z" fill="#713DFF"/>
</svg>
