<svg width="48" height="48" viewBox="0 0 48 48" fill="none" xmlns="http://www.w3.org/2000/svg">
<path d="M22.4273 38.9999H17.0273C14.3873 38.9999 12.2273 41.1599 12.2273 43.7999V44.3999H9.82734C8.84334 44.3999 8.02734 45.2159 8.02734 46.1999C8.02734 47.1839 8.84334 47.9999 9.82734 47.9999H38.6273C39.6113 47.9999 40.4273 47.1839 40.4273 46.1999C40.4273 45.2159 39.6113 44.3999 38.6273 44.3999H36.2273V43.7999C36.2273 41.1599 34.0673 38.9999 31.4273 38.9999H26.0273V33.5039C25.4273 33.5759 24.8273 33.5999 24.2273 33.5999C23.6273 33.5999 23.0273 33.5759 22.4273 33.5039V38.9999Z" fill="#713DFF"/>
<path d="M39.7784 23.136C41.3624 22.536 42.7544 21.552 43.8584 20.448C46.0904 17.976 47.5544 15.024 47.5544 11.568C47.5544 8.112 44.8424 5.4 41.3864 5.4H40.0424C38.4824 2.208 35.2184 0 31.4264 0H17.0264C13.2344 0 9.97044 2.208 8.41044 5.4H7.06644C3.61044 5.4 0.898438 8.112 0.898438 11.568C0.898438 15.024 2.36244 17.976 4.59444 20.448C5.69844 21.552 7.09044 22.536 8.67444 23.136C11.1704 29.28 17.1704 33.6 24.2264 33.6C31.2824 33.6 37.2824 29.28 39.7784 23.136ZM31.0424 15.48L29.5544 17.304C29.3144 17.568 29.1464 18.096 29.1704 18.456L29.3144 20.808C29.4104 22.248 28.3784 22.992 27.0344 22.464L24.8504 21.6C24.5144 21.48 23.9384 21.48 23.6024 21.6L21.4184 22.464C20.0744 22.992 19.0424 22.248 19.1384 20.808L19.2824 18.456C19.3064 18.096 19.1384 17.568 18.8984 17.304L17.4104 15.48C16.4744 14.376 16.8824 13.152 18.2744 12.792L20.5544 12.216C20.9144 12.12 21.3464 11.784 21.5384 11.472L22.8104 9.504C23.6024 8.28 24.8504 8.28 25.6424 9.504L26.9144 11.472C27.1064 11.784 27.5384 12.12 27.8984 12.216L30.1784 12.792C31.5704 13.152 31.9784 14.376 31.0424 15.48Z" fill="#713DFF"/>
</svg>
