<svg width="49" height="48" viewBox="0 0 49 48" fill="none" xmlns="http://www.w3.org/2000/svg">
<g clip-path="url(#clip0_163_5249)">
<path d="M47.3411 4.09207C46.3811 3.07207 45.0191 2.48402 43.6151 2.48402H39.1451C39.1632 1.68 39.1751 0.852071 39.1751 0H10.3451C10.3451 0.851953 10.3571 1.68 10.3751 2.48402H5.87512C4.4711 2.48402 3.10914 3.07207 2.14914 4.09207C1.17707 5.11817 0.673167 6.52207 0.757074 7.94414C1.5611 21.3482 8.47914 29.7601 19.4471 31.0082L17.323 38.4001C14.7971 38.4001 12.7511 40.4461 12.7511 42.9721V48.0001H36.7751V42.9721C36.7751 40.4461 34.7291 38.4001 32.2032 38.4001L30.0791 31.0082C41.0232 29.7482 47.9351 21.3422 48.7332 7.94414C48.8171 6.52817 48.3132 5.12414 47.3411 4.09207ZM5.5511 7.6561C5.54512 7.52414 5.59914 7.43414 5.64707 7.3861C5.73707 7.29012 5.84512 7.29012 5.87512 7.29012H10.6032C11.3172 16.7282 13.3991 22.0801 15.4212 25.1041C7.72317 21.8761 5.88707 13.2541 5.5511 7.6561ZM34.0991 25.0861C36.1211 22.0561 38.1972 16.7101 38.9111 7.28414H43.6211C43.6571 7.28414 43.7591 7.28414 43.8491 7.38012C43.8972 7.42817 43.9511 7.51817 43.9451 7.65012C43.6032 13.2482 41.7732 21.8461 34.0991 25.0861Z" fill="#713DFF"/>
</g>
<defs>
<clipPath id="clip0_163_5249">
<rect width="48" height="48" fill="white" transform="translate(0.746094)"/>
</clipPath>
</defs>
</svg>
