<svg width="49" height="48" viewBox="0 0 49 48" fill="none" xmlns="http://www.w3.org/2000/svg">
<path d="M12.7264 30.4461C11.993 29.7129 11.7168 30.0813 11.5536 30.2446C7.33011 34.4681 3.58052 44.6589 5.56277 43.6635C12.7789 40.0403 13.9813 41.119 18.2047 36.8957C18.368 36.7325 18.7434 36.4633 17.9886 35.7084L12.7264 30.4461Z" fill="#713DFF"/>
<path d="M35.4945 30.3894C35.3031 29.7803 35.7041 29.4868 35.8729 29.3046C45.1946 19.2407 51.119 5.83226 46.7287 1.44169C42.3615 -2.92522 29.3666 3.17224 19.3054 12.4268C19.1064 12.6101 18.714 12.9573 18.0122 12.8107L14.8775 12.0643C14.0072 11.8573 12.7774 12.2052 12.1448 12.8378L0.642596 24.3399C0.00997365 24.9726 0.215511 25.604 1.09939 25.7427L9.41854 27.0501C10.3024 27.1891 11.5432 26.7851 12.1756 26.1523C12.1756 26.1523 12.6049 25.7219 13.0361 26.1531C15.4155 28.5321 19.8369 32.9535 22.1037 35.2205C22.5543 35.671 22.1228 36.0995 22.1228 36.0995C21.49 36.7323 21.0861 37.9727 21.2252 38.8567L22.5324 47.1757C22.6713 48.0599 23.3026 48.2654 23.9353 47.6327L35.4376 36.1304C36.07 35.4977 36.4181 34.2683 36.2108 33.3979L35.4945 30.3894ZM32.9193 15.5294C30.9711 13.5812 30.9711 10.4229 32.9193 8.47497C34.8674 6.52676 38.0258 6.52676 39.9741 8.47497C41.922 10.4227 41.922 13.5812 39.9741 15.5293C38.0258 17.4775 34.8673 17.4775 32.9193 15.5294Z" fill="#713DFF"/>
</svg>
