<svg  viewBox="0 0 557 189" fill="none" xmlns="http://www.w3.org/2000/svg">
<path d="M463.085 181C510.534 181 548.998 142.273 548.998 94.5C548.998 46.7274 510.534 8 463.085 8C415.637 8 377.172 46.7274 377.172 94.5C377.172 142.273 415.637 181 463.085 181Z" stroke="#713DFF" stroke-width="15"/>
<path d="M462.765 147.883C492.047 147.883 515.786 123.983 515.786 94.5003C515.786 65.0177 492.047 41.1174 462.765 41.1174C433.482 41.1174 409.744 65.0177 409.744 94.5003C409.744 123.983 433.482 147.883 462.765 147.883Z" fill="url(#paint0_linear_144_4456)"/>
<path d="M460.712 63.0749C440.047 75.7534 433.587 87.9299 432.081 117.201C432.052 117.742 432.651 118.093 433.099 117.795C444.544 110.2 450.939 108.635 460.899 110.861C461.311 110.953 461.707 110.64 461.707 110.214V63.6312C461.707 63.1194 461.144 62.8087 460.712 63.0749Z" fill="white"/>
<path d="M465.953 68.7673V112.102C465.953 112.429 466.166 112.722 466.477 112.822C479.395 117.032 486.297 116.474 496.97 110.437C497.36 110.216 497.412 109.668 497.078 109.369C482.337 96.2351 474.744 87.453 466.919 68.5821C466.709 68.08 465.953 68.2236 465.953 68.7673Z" fill="white"/>
<path d="M93.9132 181C141.362 181 179.826 142.273 179.826 94.5C179.826 46.7274 141.362 8 93.9132 8C46.4647 8 8 46.7274 8 94.5C8 142.273 46.4647 181 93.9132 181Z" stroke="#713DFF" stroke-width="15"/>
<path d="M72.0685 96.5883L73.6974 87.9202H76.1819L73.4978 100.102H70.9881L69.0188 91.9532L67.0492 100.102H64.5396L61.8555 87.9202H64.3402L65.9773 96.5715L67.9715 87.9202H70.0825L72.0685 96.5883ZM84.0018 97.5923H79.6308L78.7995 100.102H76.1488L80.653 87.9202H82.963L87.492 100.102H84.8409L84.0018 97.5923ZM80.3037 95.5592H83.3285L81.808 90.9992L80.3037 95.5592ZM91.1151 98.086H96.4086V100.102H88.6221V87.9202H91.1151V98.086ZM100.339 98.086H105.633V100.102H97.8464V87.9202H100.339V98.086ZM114.35 94.823H109.564V98.086H115.181V100.102H107.07V87.9202H115.165V89.9533H109.564V92.8568H114.35V94.823ZM125.918 89.9533H122.211V100.102H119.718V89.9533H116.062V87.9202H125.918V89.9533Z" fill="white"/>
<path d="M390.764 58.5827C390.764 42.2034 377.578 28.9255 361.308 28.9255H163.953V88.2398H361.308C377.578 88.2398 390.764 74.962 390.764 58.5827Z" fill="url(#paint1_linear_144_4456)"/>
<path d="M335.117 82.6367C348.222 82.6367 358.846 71.9405 358.846 58.7462C358.846 45.5518 348.222 34.8557 335.117 34.8557C322.012 34.8557 311.389 45.5518 311.389 58.7462C311.389 71.9405 322.012 82.6367 335.117 82.6367Z" fill="#713DFF"/>
<path d="M338.382 63.5403C338.382 62.6958 338.147 62.0265 337.676 61.5322C337.216 61.0277 336.429 60.5644 335.314 60.142C334.199 59.7198 333.238 59.303 332.43 58.8911C331.622 58.4686 330.926 57.9898 330.343 57.4544C329.77 56.9087 329.32 56.2701 328.993 55.5392C328.676 54.808 328.518 53.9377 328.518 52.9287C328.518 51.1881 329.07 49.762 330.175 48.6498C331.279 47.5377 332.747 46.8892 334.578 46.7036V43.3982H337.032V46.7501C338.843 47.0075 340.259 47.7697 341.282 49.036C342.305 50.2925 342.816 51.9246 342.816 53.9327H338.382C338.382 52.697 338.127 51.7753 337.615 51.1677C337.114 50.5498 336.439 50.2411 335.59 50.2411C334.751 50.2411 334.102 50.483 333.642 50.967C333.181 51.4406 332.951 52.0996 332.951 52.9442C332.951 53.7268 333.176 54.3549 333.627 54.8284C334.076 55.3022 334.91 55.7863 336.127 56.2806C337.354 56.7749 338.362 57.2435 339.149 57.686C339.937 58.1187 340.602 58.613 341.144 59.1689C341.686 59.7149 342.1 60.343 342.386 61.0534C342.673 61.7537 342.816 62.5722 342.816 63.5094C342.816 65.2601 342.274 66.681 341.19 67.7727C340.106 68.8641 338.612 69.5077 336.71 69.7034V72.7772H334.271V69.7189C332.174 69.4922 330.548 68.7458 329.392 67.4791C328.247 66.2022 327.674 64.5081 327.674 62.3972H332.108C332.108 63.6227 332.394 64.5648 332.967 65.2239C333.55 65.8727 334.383 66.197 335.467 66.197C336.367 66.197 337.078 65.9604 337.6 65.4865C338.122 65.0024 338.382 64.3539 338.382 63.5403Z" fill="white"/>
<path d="M165.924 130.747C165.924 114.368 179.112 101.09 195.38 101.09H392.735V160.405H195.38C179.112 160.405 165.924 147.127 165.924 130.747Z" fill="url(#paint2_linear_144_4456)"/>
<path d="M247.572 154.472C260.677 154.472 271.301 143.776 271.301 130.582C271.301 117.387 260.677 106.691 247.572 106.691C234.467 106.691 223.844 117.387 223.844 130.582C223.844 143.776 234.467 154.472 247.572 154.472Z" fill="#713DFF"/>
<path d="M250.837 135.376C250.837 134.531 250.602 133.862 250.132 133.368C249.671 132.863 248.884 132.4 247.769 131.977C246.654 131.555 245.693 131.138 244.885 130.727C244.077 130.304 243.382 129.825 242.798 129.29C242.226 128.744 241.775 128.105 241.448 127.375C241.131 126.643 240.973 125.773 240.973 124.764C240.973 123.024 241.525 121.597 242.63 120.485C243.734 119.373 245.202 118.725 247.033 118.539V115.234H249.487V118.586C251.298 118.843 252.714 119.605 253.737 120.871C254.76 122.128 255.271 123.76 255.271 125.768H250.837C250.837 124.532 250.582 123.611 250.07 123.003C249.569 122.385 248.894 122.077 248.045 122.077C247.207 122.077 246.557 122.318 246.097 122.802C245.637 123.276 245.406 123.935 245.406 124.78C245.406 125.562 245.631 126.19 246.082 126.664C246.531 127.138 247.365 127.622 248.582 128.116C249.809 128.61 250.817 129.079 251.604 129.521C252.392 129.954 253.057 130.448 253.599 131.004C254.141 131.55 254.555 132.178 254.842 132.889C255.128 133.589 255.271 134.408 255.271 135.345C255.271 137.096 254.729 138.516 253.645 139.608C252.561 140.7 251.068 141.343 249.165 141.539V144.613H246.726V141.554C244.629 141.328 243.003 140.581 241.847 139.315C240.702 138.038 240.129 136.344 240.129 134.233H244.563C244.563 135.458 244.849 136.4 245.422 137.059C246.005 137.708 246.838 138.032 247.922 138.032C248.822 138.032 249.533 137.796 250.055 137.322C250.577 136.838 250.837 136.189 250.837 135.376Z" fill="white"/>
<path d="M299.289 154.143C312.394 154.143 323.017 143.447 323.017 130.253C323.017 117.058 312.394 106.362 299.289 106.362C286.184 106.362 275.561 117.058 275.561 130.253C275.561 143.447 286.184 154.143 299.289 154.143Z" fill="#713DFF"/>
<path d="M302.554 135.047C302.554 134.202 302.319 133.533 301.848 133.039C301.388 132.534 300.601 132.071 299.486 131.648C298.371 131.226 297.41 130.809 296.602 130.397C295.793 129.975 295.098 129.496 294.515 128.961C293.942 128.415 293.492 127.776 293.165 127.046C292.848 126.314 292.689 125.444 292.689 124.435C292.689 122.694 293.242 121.268 294.347 120.156C295.451 119.044 296.919 118.396 298.75 118.21V114.905H301.204V118.256C303.014 118.514 304.431 119.276 305.454 120.542C306.476 121.799 306.988 123.431 306.988 125.439H302.554C302.554 124.203 302.299 123.282 301.787 122.674C301.286 122.056 300.611 121.747 299.762 121.747C298.923 121.747 298.274 121.989 297.813 122.473C297.353 122.947 297.123 123.606 297.123 124.451C297.123 125.233 297.348 125.861 297.798 126.335C298.248 126.809 299.082 127.293 300.299 127.787C301.526 128.281 302.534 128.75 303.321 129.192C304.109 129.625 304.774 130.119 305.316 130.675C305.858 131.221 306.272 131.849 306.558 132.56C306.845 133.26 306.988 134.079 306.988 135.016C306.988 136.766 306.446 138.187 305.362 139.279C304.277 140.37 302.784 141.014 300.882 141.21V144.284H298.443V141.225C296.346 140.999 294.72 140.252 293.564 138.985C292.418 137.709 291.846 136.014 291.846 133.904H296.279C296.279 135.129 296.566 136.071 297.139 136.73C297.722 137.379 298.555 137.703 299.639 137.703C300.539 137.703 301.25 137.467 301.772 136.993C302.293 136.509 302.554 135.86 302.554 135.047Z" fill="white"/>
<path d="M351.002 154.472C364.107 154.472 374.73 143.776 374.73 130.582C374.73 117.387 364.107 106.691 351.002 106.691C337.897 106.691 327.273 117.387 327.273 130.582C327.273 143.776 337.897 154.472 351.002 154.472Z" fill="#713DFF"/>
<path d="M354.267 135.376C354.267 134.531 354.032 133.862 353.561 133.368C353.102 132.863 352.314 132.4 351.197 131.977C350.085 131.555 349.123 131.138 348.314 130.727C347.506 130.304 346.812 129.825 346.229 129.29C345.657 128.744 345.205 128.105 344.878 127.375C344.56 126.643 344.403 125.773 344.403 124.764C344.403 123.024 344.956 121.597 346.059 120.485C347.165 119.373 348.632 118.725 350.461 118.539V115.234H352.916V118.586C354.729 118.843 356.143 119.605 357.167 120.871C358.188 122.128 358.702 123.76 358.702 125.768H354.267C354.267 124.532 354.012 123.611 353.498 123.003C352.998 122.385 352.323 122.077 351.476 122.077C350.638 122.077 349.987 122.318 349.525 122.802C349.067 123.276 348.838 123.935 348.838 124.78C348.838 125.562 349.06 126.19 349.512 126.664C349.96 127.138 350.795 127.622 352.012 128.116C353.24 128.61 354.248 129.079 355.033 129.521C355.822 129.954 356.487 130.448 357.03 131.004C357.57 131.55 357.985 132.178 358.27 132.889C358.558 133.589 358.702 134.408 358.702 135.345C358.702 137.096 358.159 138.516 357.076 139.608C355.989 140.7 354.497 141.343 352.595 141.539V144.613H350.157V141.554C348.059 141.328 346.432 140.581 345.277 139.315C344.131 138.038 343.559 136.344 343.559 134.233H347.993C347.993 135.458 348.278 136.4 348.851 137.059C349.433 137.708 350.268 138.032 351.351 138.032C352.251 138.032 352.962 137.796 353.485 137.322C354.006 136.838 354.267 136.189 354.267 135.376Z" fill="white"/>
<defs>
<linearGradient id="paint0_linear_144_4456" x1="417.167" y1="72.6133" x2="519.581" y2="98.4384" gradientUnits="userSpaceOnUse">
<stop stop-color="#A056FF"/>
<stop offset="1" stop-color="#6A20E2"/>
</linearGradient>
<linearGradient id="paint1_linear_144_4456" x1="390.764" y1="58.5827" x2="163.953" y2="58.5827" gradientUnits="userSpaceOnUse">
<stop stop-color="#7622FF" stop-opacity="0.75"/>
<stop offset="1" stop-color="#0F215B" stop-opacity="0"/>
</linearGradient>
<linearGradient id="paint2_linear_144_4456" x1="165.924" y1="130.747" x2="392.735" y2="130.747" gradientUnits="userSpaceOnUse">
<stop stop-color="#9122FF" stop-opacity="0.75"/>
<stop offset="1" stop-color="#0F215B" stop-opacity="0"/>
</linearGradient>
</defs>
</svg>
